<?xml version="1.0" encoding="UTF-8"?>
<svg version="1.1" xmlns="http://www.w3.org/2000/svg" width="512" height="512">
<path d="M0 0 C0.8864276 -0.00367669 1.77285519 -0.00735338 2.68614423 -0.01114148 C5.66848469 -0.02219013 8.65079032 -0.02602418 11.63314819 -0.02983093 C13.76674511 -0.03609474 15.90034093 -0.04274147 18.03393555 -0.04974365 C23.83995836 -0.06716217 29.64597293 -0.07770799 35.4520154 -0.08594918 C39.07919108 -0.0910981 42.70636419 -0.09717391 46.33353806 -0.10346031 C57.68128551 -0.12251575 69.02902645 -0.1367455 80.37678683 -0.14507228 C93.47706049 -0.15484353 106.57716514 -0.18115879 119.67737925 -0.22157317 C129.80148958 -0.25173453 139.92555147 -0.26654123 150.04970586 -0.26985329 C156.09691001 -0.27220395 162.14393367 -0.28116658 168.19108963 -0.30631447 C173.88250503 -0.32960001 179.57362117 -0.33382629 185.26507187 -0.32355309 C187.35117844 -0.32305772 189.43729976 -0.32937832 191.52336121 -0.34310913 C194.37774749 -0.36084205 197.23106143 -0.35371478 200.08544922 -0.34057617 C200.90541402 -0.35154542 201.72537881 -0.36251466 202.57019103 -0.37381631 C211.04269186 -0.28006216 219.24222845 3.30585141 225.42367554 9.14717102 C233.2869944 18.76795977 233.7260585 27.41133608 233.73007202 39.46430969 C233.73770137 40.91696597 233.74613019 42.36961823 233.7552948 43.82226562 C233.77715758 47.75175436 233.78602641 51.68116533 233.79112124 55.610708 C233.79477153 58.06664619 233.80101475 60.52256418 233.80812263 62.97849464 C233.83257881 71.54831966 233.84566282 80.11808438 233.84921265 88.6879425 C233.8528553 96.67534701 233.88281229 104.66236903 233.92461723 112.64965647 C233.95927853 119.51266174 233.97476028 126.37553979 233.97545868 133.23863202 C233.97625227 137.33565218 233.9850298 141.4322814 234.01345634 145.52921104 C234.03956946 149.37815726 234.0418809 153.2263862 234.0258007 157.07538033 C234.02398136 158.48793473 234.03072083 159.90052981 234.04661942 161.31299591 C234.06699018 163.24009305 234.05357224 165.16745936 234.03840637 167.09460449 C234.0404177 168.17322848 234.04242903 169.25185247 234.0445013 170.36316204 C233.42367554 173.14717102 233.42367554 173.14717102 231.01025486 175.52545643 C228.42367554 177.14717102 228.42367554 177.14717102 226.42367554 177.14717102 C226.42367554 182.42717102 226.42367554 187.70717102 226.42367554 193.14717102 C229.64140213 193.13717827 229.64140213 193.13717827 232.9241333 193.12698364 C253.14098585 193.06563938 273.35782611 193.02101494 293.5747509 192.9917345 C303.9684403 192.97628036 314.3620613 192.95521862 324.75570679 192.92085266 C333.81716812 192.89090583 342.8785799 192.87158546 351.94008934 192.86490554 C356.73594875 192.86100223 361.53166643 192.85185921 366.32748032 192.82998085 C370.8467557 192.80953219 375.36583174 192.80335409 379.885149 192.80784798 C381.53866855 192.80702651 383.19219515 192.80111096 384.84567451 192.7895546 C397.71606691 192.7040574 407.92628766 193.56409874 417.98617554 202.39717102 C425.17436776 210.50692634 427.7350498 218.27385417 427.68437195 228.97000122 C427.6881975 229.83463964 427.69202304 230.69927805 427.69596452 231.59011763 C427.70624748 234.47483933 427.7023113 237.35936023 427.69833374 240.24409485 C427.70268285 242.31754744 427.70786667 244.39099842 427.71382141 246.46444702 C427.72720219 252.08850966 427.72779102 257.71250506 427.72525811 263.33658051 C427.72418763 268.03575038 427.72907384 272.73490667 427.73386353 277.43407363 C427.74495586 288.52342697 427.74539787 299.61274645 427.73934937 310.70210266 C427.73331105 322.13157494 427.74561766 333.56092407 427.76691943 344.99037534 C427.78455012 354.8122555 427.79053441 364.63409652 427.78728169 374.45599192 C427.7854708 380.31812589 427.7880856 386.18017204 427.80199623 392.04229164 C427.81459351 397.55727318 427.81261237 403.07206318 427.79958534 408.58704185 C427.79722404 410.60660747 427.79993818 412.62618664 427.80820847 414.64573669 C427.90525758 440.19472034 427.90525758 440.19472034 418.42367554 450.14717102 C411.321268 456.6319779 404.98800713 459.22626669 395.42367554 459.14717102 C395.43938599 460.32223206 395.45509644 461.49729309 395.47128296 462.70796204 C395.5257983 467.08940206 395.56010394 471.47081239 395.58847046 475.85249329 C395.60350799 477.74479727 395.62394339 479.63706668 395.6499939 481.5292511 C395.68659952 484.25744688 395.70345243 486.98517973 395.71664429 489.71357727 C395.73212814 490.55239944 395.747612 491.39122162 395.76356506 492.25546265 C395.76549604 499.07546175 394.51320667 503.74421022 389.92367554 509.02217102 C386.38962439 512.02611449 383.61523862 512.34130698 379.11117554 512.45967102 C378.18691772 512.49705383 377.26265991 512.53443665 376.31039429 512.57295227 C372.55354391 512.01882955 370.13595674 510.7326521 367.42367554 508.14717102 C365.75590968 505.63419535 364.31449415 503.03655459 362.84687805 500.40182495 C352.91276206 483.22004526 338.89519818 466.34968951 319.42367554 460.14717102 C283.89838374 452.3459655 243.71337704 456.35164244 207.67074692 458.41247004 C205.68668571 458.52524101 203.70211292 458.62889326 201.71754456 458.73235607 C199.31519166 458.86041537 196.91369408 459.00644212 194.51382446 459.17474079 C185.73656709 459.63045954 178.83778005 457.86589071 172.17367554 451.89717102 C165.99157066 446.14608939 161.78129624 439.21432027 161.17757988 430.66022682 C161.17942347 429.36787306 161.18126705 428.07551929 161.1831665 426.7440033 C161.18145765 426.02017153 161.1797488 425.29633977 161.17798817 424.55057371 C161.1747066 422.13686976 161.18567478 419.72344681 161.19662476 417.30976868 C161.19718916 415.57491563 161.19687174 413.84006212 161.19573975 412.10520935 C161.19516637 407.40319329 161.20691832 402.70127945 161.22088766 397.99928713 C161.23339745 393.08255311 161.23456572 388.16581669 161.23693848 383.24906921 C161.24315251 373.94193025 161.25956231 364.63483831 161.27963746 355.32772005 C161.30199883 344.73044934 161.31299049 334.13317638 161.32302833 323.53588796 C161.34392858 301.73962203 161.37950637 279.94340114 161.42367554 258.14717102 C155.81367554 258.14717102 150.20367554 258.14717102 144.42367554 258.14717102 C144.09367554 259.79717102 143.76367554 261.44717102 143.42367554 263.14717102 C140.7921821 265.32672606 139.18076279 266.12569769 135.75367737 266.22290039 C134.79037003 266.08922562 133.82706268 265.95555084 132.83456421 265.81782532 C131.17307846 265.61804581 131.17307846 265.61804581 129.47802734 265.41423035 C128.27802094 265.26809296 127.07801453 265.12195557 125.84164429 264.97138977 C93.19567704 261.68773638 93.19567704 261.68773638 64.30915833 274.6786499 C53.11780234 284.42062124 43.21108277 295.76182875 34.03948975 307.40184021 C28.77399688 314.03965866 24.64384416 318.40143265 15.92367554 319.64717102 C9.93200072 318.79121747 5.82734643 316.87476597 1.98617554 312.14717102 C0.01545572 308.36338898 -0.70361845 305.35372038 -0.68984985 301.11299133 C-0.68977432 300.33248413 -0.68969879 299.55197693 -0.68962097 298.74781799 C-0.68445969 297.91538574 -0.6792984 297.08295349 -0.67398071 296.22529602 C-0.67256577 295.36531006 -0.67115082 294.5053241 -0.66969299 293.61927795 C-0.66410543 290.87853993 -0.65155521 288.13788426 -0.63882446 285.39717102 C-0.63380786 283.53649512 -0.62924523 281.67581793 -0.62515259 279.81513977 C-0.61414007 275.25911856 -0.59688397 270.70315875 -0.57632446 266.14717102 C-1.38674194 266.03325012 -2.19715942 265.91932922 -3.03213501 265.80195618 C-4.63762207 265.55904846 -4.63762207 265.55904846 -6.27554321 265.31123352 C-7.33346069 265.15606262 -8.39137817 265.00089172 -9.48135376 264.84101868 C-17.65198963 263.00928032 -23.90836637 256.84963621 -28.57632446 250.14717102 C-34.03037198 240.33139592 -33.14150196 229.37747833 -33.09390259 218.5202179 C-33.09932962 216.43794263 -33.10645552 214.3556712 -33.11514282 212.27340698 C-33.13330988 206.64323748 -33.12633594 201.01336261 -33.11362648 195.38318825 C-33.10346449 189.47731893 -33.11290103 183.571474 -33.11917114 177.66560364 C-33.12643823 167.74974563 -33.11688443 157.83400698 -33.09780884 147.91816711 C-33.076042 136.47154089 -33.08309403 125.0251997 -33.10511446 113.57858038 C-33.12329516 103.73195893 -33.12581371 93.88542304 -33.11535978 84.03879023 C-33.10913956 78.1660511 -33.10824873 72.29344574 -33.12150574 66.42071533 C-33.13310244 60.89822047 -33.12496864 55.37609135 -33.10192871 49.85363579 C-33.09666202 47.8328811 -33.09812022 45.81209536 -33.10697937 43.79135323 C-33.16468063 29.28719934 -32.49805825 18.20503783 -21.95913696 7.24873352 C-15.37982407 1.44599527 -8.56244796 -0.00189428 0 0 Z " fill="#FEC162" transform="translate(58.576324462890625,-0.1471710205078125)"/>
<path d="M0 0 C0.8864276 -0.00367669 1.77285519 -0.00735338 2.68614423 -0.01114148 C5.66848469 -0.02219013 8.65079032 -0.02602418 11.63314819 -0.02983093 C13.76674511 -0.03609474 15.90034093 -0.04274147 18.03393555 -0.04974365 C23.83995836 -0.06716217 29.64597293 -0.07770799 35.4520154 -0.08594918 C39.07919108 -0.0910981 42.70636419 -0.09717391 46.33353806 -0.10346031 C57.68128551 -0.12251575 69.02902645 -0.1367455 80.37678683 -0.14507228 C93.47706049 -0.15484353 106.57716514 -0.18115879 119.67737925 -0.22157317 C129.80148958 -0.25173453 139.92555147 -0.26654123 150.04970586 -0.26985329 C156.09691001 -0.27220395 162.14393367 -0.28116658 168.19108963 -0.30631447 C173.88250503 -0.32960001 179.57362117 -0.33382629 185.26507187 -0.32355309 C187.35117844 -0.32305772 189.43729976 -0.32937832 191.52336121 -0.34310913 C194.37774749 -0.36084205 197.23106143 -0.35371478 200.08544922 -0.34057617 C200.90541402 -0.35154542 201.72537881 -0.36251466 202.57019103 -0.37381631 C211.04269186 -0.28006216 219.24222845 3.30585141 225.42367554 9.14717102 C233.2869944 18.76795977 233.7260585 27.41133608 233.73007202 39.46430969 C233.73770137 40.91696597 233.74613019 42.36961823 233.7552948 43.82226562 C233.77715758 47.75175436 233.78602641 51.68116533 233.79112124 55.610708 C233.79477153 58.06664619 233.80101475 60.52256418 233.80812263 62.97849464 C233.83257881 71.54831966 233.84566282 80.11808438 233.84921265 88.6879425 C233.8528553 96.67534701 233.88281229 104.66236903 233.92461723 112.64965647 C233.95927853 119.51266174 233.97476028 126.37553979 233.97545868 133.23863202 C233.97625227 137.33565218 233.9850298 141.4322814 234.01345634 145.52921104 C234.03956946 149.37815726 234.0418809 153.2263862 234.0258007 157.07538033 C234.02398136 158.48793473 234.03072083 159.90052981 234.04661942 161.31299591 C234.06699018 163.24009305 234.05357224 165.16745936 234.03840637 167.09460449 C234.0404177 168.17322848 234.04242903 169.25185247 234.0445013 170.36316204 C233.42367554 173.14717102 233.42367554 173.14717102 231.01025486 175.52545643 C228.42367554 177.14717102 228.42367554 177.14717102 226.42367554 177.14717102 C226.4352771 178.29056946 226.44687866 179.4339679 226.45883179 180.61201477 C226.46820841 182.10289856 226.47730875 183.59378411 226.48617554 185.08467102 C226.49455444 185.83941711 226.50293335 186.59416321 226.51156616 187.3717804 C226.52019995 189.29711415 226.47591886 191.22252683 226.42367554 193.14717102 C224.57685669 194.99398987 221.97559501 194.25716682 219.51954651 194.2590332 C218.68740128 194.25692337 217.85525604 194.25481354 216.99789429 194.25263977 C215.23290826 194.26611643 213.46793352 194.28114326 211.70297241 194.29756165 C208.92287593 194.32022349 206.14403555 194.33481995 203.36386108 194.32221985 C191.27041626 194.28199172 180.94327764 194.39068305 171.44857788 202.92182922 C164.08071661 210.65419083 162.32814421 219.37403483 162.10726929 229.72920227 C162.08648819 230.5433812 162.06570709 231.35756012 162.04429626 232.19641113 C161.9791809 234.78408281 161.92009346 237.37185155 161.86117554 239.95967102 C161.81795412 241.71944647 161.77433869 243.4792123 161.73031616 245.2389679 C161.62280096 249.54160446 161.52344564 253.84432005 161.42367554 258.14717102 C155.81367554 258.14717102 150.20367554 258.14717102 144.42367554 258.14717102 C144.09367554 259.79717102 143.76367554 261.44717102 143.42367554 263.14717102 C140.7921821 265.32672606 139.18076279 266.12569769 135.75367737 266.22290039 C134.79037003 266.08922562 133.82706268 265.95555084 132.83456421 265.81782532 C131.17307846 265.61804581 131.17307846 265.61804581 129.47802734 265.41423035 C128.27802094 265.26809296 127.07801453 265.12195557 125.84164429 264.97138977 C93.19567704 261.68773638 93.19567704 261.68773638 64.30915833 274.6786499 C53.11780234 284.42062124 43.21108277 295.76182875 34.03948975 307.40184021 C28.77399688 314.03965866 24.64384416 318.40143265 15.92367554 319.64717102 C9.93200072 318.79121747 5.82734643 316.87476597 1.98617554 312.14717102 C0.01545572 308.36338898 -0.70361845 305.35372038 -0.68984985 301.11299133 C-0.68977432 300.33248413 -0.68969879 299.55197693 -0.68962097 298.74781799 C-0.68445969 297.91538574 -0.6792984 297.08295349 -0.67398071 296.22529602 C-0.67256577 295.36531006 -0.67115082 294.5053241 -0.66969299 293.61927795 C-0.66410543 290.87853993 -0.65155521 288.13788426 -0.63882446 285.39717102 C-0.63380786 283.53649512 -0.62924523 281.67581793 -0.62515259 279.81513977 C-0.61414007 275.25911856 -0.59688397 270.70315875 -0.57632446 266.14717102 C-1.38674194 266.03325012 -2.19715942 265.91932922 -3.03213501 265.80195618 C-4.63762207 265.55904846 -4.63762207 265.55904846 -6.27554321 265.31123352 C-7.33346069 265.15606262 -8.39137817 265.00089172 -9.48135376 264.84101868 C-17.65198963 263.00928032 -23.90836637 256.84963621 -28.57632446 250.14717102 C-34.03037198 240.33139592 -33.14150196 229.37747833 -33.09390259 218.5202179 C-33.09932962 216.43794263 -33.10645552 214.3556712 -33.11514282 212.27340698 C-33.13330988 206.64323748 -33.12633594 201.01336261 -33.11362648 195.38318825 C-33.10346449 189.47731893 -33.11290103 183.571474 -33.11917114 177.66560364 C-33.12643823 167.74974563 -33.11688443 157.83400698 -33.09780884 147.91816711 C-33.076042 136.47154089 -33.08309403 125.0251997 -33.10511446 113.57858038 C-33.12329516 103.73195893 -33.12581371 93.88542304 -33.11535978 84.03879023 C-33.10913956 78.1660511 -33.10824873 72.29344574 -33.12150574 66.42071533 C-33.13310244 60.89822047 -33.12496864 55.37609135 -33.10192871 49.85363579 C-33.09666202 47.8328811 -33.09812022 45.81209536 -33.10697937 43.79135323 C-33.16468063 29.28719934 -32.49805825 18.20503783 -21.95913696 7.24873352 C-15.37982407 1.44599527 -8.56244796 -0.00189428 0 0 Z " fill="#EBE9EB" transform="translate(58.576324462890625,-0.1471710205078125)"/>
<path d="M0 0 C12.07840614 -0.12164441 24.156665 -0.16032008 36.23562098 -0.1726141 C39.04337936 -0.1756066 41.85113421 -0.17971931 44.65889072 -0.18411827 C53.50182181 -0.19763384 62.34474424 -0.20739179 71.18768489 -0.21132016 C81.30027214 -0.21584369 91.41272713 -0.23365375 101.52527416 -0.26232076 C109.43275593 -0.2839456 117.34020029 -0.29402391 125.2477113 -0.29536128 C129.93677264 -0.29640331 134.6257068 -0.30218924 139.31473637 -0.32018089 C143.69666667 -0.33668884 148.0783739 -0.33880408 152.46032429 -0.33004189 C154.05904586 -0.32927457 155.65777974 -0.33357363 157.25647068 -0.34350014 C170.08178069 -0.41844913 180.00017446 0.55342008 189.93601704 9.27757454 C197.12420926 17.38732986 199.6848913 25.15425768 199.63421345 35.85040474 C199.63803899 36.71504316 199.64186454 37.57968157 199.64580601 38.47052115 C199.65608898 41.35524285 199.6521528 44.23976375 199.64817524 47.12449837 C199.65252435 49.19795096 199.65770817 51.27140194 199.66366291 53.34485054 C199.67704369 58.96891318 199.67763252 64.59290858 199.67509961 70.21698403 C199.67402913 74.91615389 199.67891534 79.61531019 199.68370503 84.31447715 C199.69479736 95.40383049 199.69523937 106.49314997 199.68919086 117.58250618 C199.68315255 129.01197846 199.69545916 140.44132759 199.71676093 151.87077886 C199.73439162 161.69265902 199.74037591 171.51450004 199.73712319 181.33639544 C199.7353123 187.19852941 199.7379271 193.06057556 199.75183773 198.92269516 C199.76443501 204.4376767 199.76245387 209.9524667 199.74942684 215.46744537 C199.74706554 217.48701099 199.74977968 219.50659015 199.75804996 221.52614021 C199.85509908 247.07512386 199.85509908 247.07512386 190.37351704 257.02757454 C183.2711095 263.51238142 176.93784863 266.10667021 167.37351704 266.02757454 C167.39708271 267.79016609 167.39708271 267.79016609 167.42112446 269.58836555 C167.4756398 273.96980558 167.50994544 278.35121591 167.53831196 282.7328968 C167.55334949 284.62520079 167.57378489 286.5174702 167.5998354 288.40965462 C167.63644102 291.1378504 167.65329393 293.86558325 167.66648579 296.59398079 C167.68196964 297.43280296 167.6974535 298.27162514 167.71340656 299.13586617 C167.71533754 305.95586526 166.46304817 310.62461374 161.87351704 315.90257454 C158.33946589 318.90651801 155.56508012 319.2217105 151.06101704 319.34007454 C150.13675922 319.37745735 149.21250141 319.41484016 148.26023579 319.45335579 C144.50338541 318.89923307 142.08579824 317.61305562 139.37351704 315.02757454 C137.70575118 312.51459887 136.26433565 309.9169581 134.79671955 307.28222847 C124.86260356 290.10044878 110.84503968 273.23009303 91.37351704 267.02757454 C55.84822524 259.22636902 15.66321854 263.23204596 -20.37941158 265.29287356 C-22.36347279 265.40564453 -24.34804558 265.50929678 -26.33261395 265.61275959 C-28.73496684 265.74081889 -31.13646443 265.88684564 -33.53633404 266.05514431 C-42.31359141 266.51086306 -49.21237846 264.74629423 -55.87648296 258.77757454 C-61.47105288 253.57306428 -66.06247757 246.8903501 -66.81291354 239.08964872 C-66.88649417 236.81996845 -66.89784763 234.55789879 -66.88717937 232.28703499 C-66.89100492 231.41916744 -66.89483047 230.5512999 -66.89877194 229.65713334 C-66.90907232 226.75548663 -66.90511538 223.85403889 -66.90114117 220.95237923 C-66.90548935 218.86922205 -66.91067286 216.78606648 -66.91662884 214.70291328 C-66.93002055 209.0478008 -66.93059716 203.39275514 -66.92806554 197.73762989 C-66.92699566 193.01365695 -66.93187979 188.28969752 -66.93667096 183.56572747 C-66.94776737 172.41742012 -66.9482032 161.26914646 -66.94215679 150.12083626 C-66.93611998 138.62946903 -66.94842034 127.13822433 -66.96972686 115.646878 C-66.98735768 105.77406305 -66.99334176 95.90128704 -66.99008912 86.02845693 C-66.98827803 80.13500911 -66.99089489 74.24164864 -67.00480366 68.3482151 C-67.0174009 62.80287847 -67.01541982 57.25773232 -67.00239277 51.71239853 C-67.00003135 49.68154587 -67.00274604 47.65067973 -67.01101589 45.61984253 C-67.10794848 19.95748775 -67.10794848 19.95748775 -57.62648296 10.02757454 C-50.71703609 3.83435082 -43.98853336 0.59893707 -34.65599346 0.5229969 C-33.51026706 0.49683839 -33.51026706 0.49683839 -32.34139466 0.47015142 C-29.82432733 0.4167485 -27.30748581 0.3843416 -24.79005718 0.35276985 C-22.99792092 0.32038067 -21.20580083 0.28708488 -19.41369724 0.25293541 C-12.94276414 0.13737678 -6.47157344 0.06794282 0 0 Z M-50.60183239 24.8625679 C-51.90951625 28.90182597 -52.04920397 32.44760166 -52.02089214 36.66768074 C-52.02698325 37.52470876 -52.03307435 38.38173678 -52.03935003 39.26473534 C-52.05596735 42.12966502 -52.05120602 44.99414962 -52.04640484 47.85911751 C-52.0537459 49.91596627 -52.06233224 51.97281092 -52.07207012 54.02964973 C-52.09429098 59.61233465 -52.0972165 65.19487198 -52.09532261 70.77759504 C-52.09520293 75.43963117 -52.10376593 80.10163599 -52.11210012 84.76366341 C-52.13133633 95.76327611 -52.13421723 106.76281291 -52.12745953 117.76243782 C-52.12081856 129.10623772 -52.14368505 140.44971247 -52.18077326 151.79344642 C-52.21147049 161.53630602 -52.22283024 171.27906102 -52.21893644 181.02196801 C-52.21686896 186.83940557 -52.22234839 192.65659012 -52.24682903 198.47398186 C-52.26909371 203.94555337 -52.26722026 209.4165963 -52.24690151 214.88817024 C-52.243491 216.89406558 -52.2485823 218.89999649 -52.26288509 220.90584373 C-52.28109272 223.64901076 -52.26831763 226.3903874 -52.24794292 229.13350105 C-52.26046077 229.92320475 -52.27297862 230.71290844 -52.2858758 231.52654254 C-52.19175225 237.45636518 -50.29776579 241.39689208 -46.62648296 246.02757454 C-42.22135241 250.11805291 -39.08389407 251.15449451 -33.15646648 251.13868904 C-32.01957882 251.13836174 -30.88269115 251.13803444 -29.71135235 251.13769722 C-28.4630061 251.13245537 -27.21465984 251.12721352 -25.92848492 251.12181282 C-23.91128853 251.11974899 -21.8940921 251.11769691 -19.87689531 251.11608577 C-17.70698163 251.11373307 -15.53707915 251.10923849 -13.36716938 251.10454369 C-8.8406369 251.09613712 -4.31418923 251.10157512 0.21233845 251.11055183 C1.35873493 251.11275834 1.35873493 251.11275834 2.52829093 251.11500943 C4.09123144 251.11808023 5.65417186 251.12120026 7.21711218 251.12436843 C17.75461308 251.14554203 28.2918377 251.15928766 38.82932758 251.12718391 C45.9378373 251.10562748 53.04586024 251.10884146 60.15433818 251.14059246 C63.91412562 251.15641812 67.67298243 251.15973823 71.43272686 251.13283348 C74.97334029 251.10771981 78.5123985 251.11544199 82.05293941 251.14771271 C83.96224141 251.15665841 85.87160886 251.13108867 87.7807436 251.10428047 C93.54911989 251.18743247 97.42091005 251.42598649 101.89362812 255.27414131 C103.0793387 256.50091221 104.2422019 257.75046746 105.37351704 259.02757454 C106.25253178 259.8691259 107.13154652 260.71067726 108.03719807 261.57773018 C108.81583714 262.36160606 109.5944762 263.14548195 110.3967104 263.95311165 C111.29381229 264.85351677 112.19091419 265.75392189 113.115201 266.68161201 C113.57964556 267.15017553 114.04409012 267.61873905 114.52260876 268.10150146 C115.99549426 269.58733422 117.47164251 271.06985864 118.94860554 272.55163765 C122.07226605 275.68661418 125.19191226 278.8255662 128.31101704 281.96507454 C131.95217804 285.62985058 135.59497337 289.29297209 139.24195766 292.95195389 C140.69817686 294.41466666 142.15136312 295.88034795 143.60445881 297.3461628 C144.91701397 298.66367279 144.91701397 298.66367279 146.2560854 300.00779915 C147.02915531 300.78610588 147.80222523 301.56441261 148.5987215 302.3663044 C150.09003032 304.1414698 150.09003032 304.1414698 151.37351704 304.02757454 C151.37938328 303.43510933 151.38524952 302.84264412 151.39129353 302.23222542 C151.45521076 296.06766444 151.53962606 289.90362634 151.63596821 283.7394886 C151.66922955 281.43877746 151.69725767 279.13798448 151.71995258 276.83714485 C151.75347577 273.53047486 151.80579164 270.22455566 151.86179829 266.91819954 C151.86818821 265.88890327 151.87457813 264.85960701 151.88116169 263.79911995 C151.90095585 262.83842598 151.92075001 261.87773201 151.94114399 260.8879261 C151.95779858 259.62217751 151.95779858 259.62217751 151.97478962 258.33085823 C152.46912312 255.47529769 153.35051419 254.08747465 155.37351704 252.02757454 C158.03724297 251.69868291 160.40115827 251.57155903 163.06101704 251.59007454 C169.65728561 251.41650796 174.45912814 250.65687457 179.37351704 246.02757454 C183.63615174 241.3524268 183.52206274 236.71381998 183.52068806 230.6588459 C183.52436475 229.79480292 183.52804143 228.93075994 183.53182954 228.04053384 C183.54287654 225.13410851 183.54671192 222.22771891 183.55051899 219.32127571 C183.55678279 217.24192376 183.56342952 215.16257294 183.57043171 213.08322334 C183.58784724 207.42615764 183.59839466 201.7691004 183.60663724 196.11201453 C183.61178547 192.57933769 183.61786123 189.04666348 183.62414837 185.51398849 C183.64320068 174.46578537 183.6574326 163.41758894 183.66576034 152.36937255 C183.67553854 139.60695997 183.7018732 126.84472057 183.74226123 114.08236903 C183.77239342 104.2232715 183.7872264 94.36422369 183.79054135 84.505081 C183.79289483 78.61390748 183.8018943 72.72291896 183.82700253 66.83179474 C183.85023796 61.2905882 183.85453464 55.74968908 183.84424114 50.2084465 C183.8437446 48.17429394 183.85009988 46.14012648 183.86379719 44.10601997 C183.88144896 41.3293943 183.87444307 38.55387993 183.86126423 35.7772541 C183.87223347 34.97189647 183.88320272 34.16653884 183.89450437 33.33677644 C183.83459111 28.1100908 182.79075383 25.19576323 179.37351704 21.02757454 C174.0564561 16.22925126 169.95456957 15.87704044 163.01824665 15.86694527 C162.1556148 15.86185745 161.29298295 15.85676963 160.40421075 15.85152763 C157.50246095 15.83578306 154.60073609 15.82727279 151.69895649 15.8188343 C149.62284912 15.80929749 147.54674335 15.7994064 145.47063923 15.78918648 C138.64271148 15.75778244 131.81477147 15.73753302 124.98679829 15.71898079 C123.8255178 15.71568347 122.66423732 15.71238615 121.46776652 15.7089889 C110.51769467 15.67820816 99.5676201 15.65149795 88.61751747 15.63457012 C74.60683606 15.61265773 60.59653761 15.57067535 46.58600932 15.50113255 C36.73707515 15.45390454 26.88824435 15.42963815 17.03920048 15.42237324 C11.15568122 15.41741534 5.27259346 15.40232056 -0.61080265 15.36262894 C-6.1471931 15.32577077 -11.68290545 15.31735056 -17.21939564 15.33063507 C-19.24950021 15.33058111 -21.27963477 15.32027977 -23.30962658 15.29888344 C-26.08599898 15.27118857 -28.85990058 15.28071577 -31.63629436 15.29931831 C-32.43582631 15.28252338 -33.23535826 15.26572846 -34.05911845 15.24842459 C-41.52071592 15.37298635 -46.38235719 18.80683719 -50.60183239 24.8625679 Z " fill="#030201" transform="translate(286.626482963562,192.97242546081543)"/>
<path d="M0 0 C0.8864276 -0.00367669 1.77285519 -0.00735338 2.68614423 -0.01114148 C5.66848469 -0.02219013 8.65079032 -0.02602418 11.63314819 -0.02983093 C13.76674511 -0.03609474 15.90034093 -0.04274147 18.03393555 -0.04974365 C23.83995836 -0.06716217 29.64597293 -0.07770799 35.4520154 -0.08594918 C39.07919108 -0.0910981 42.70636419 -0.09717391 46.33353806 -0.10346031 C57.68128551 -0.12251575 69.02902645 -0.1367455 80.37678683 -0.14507228 C93.47706049 -0.15484353 106.57716514 -0.18115879 119.67737925 -0.22157317 C129.80148958 -0.25173453 139.92555147 -0.26654123 150.04970586 -0.26985329 C156.09691001 -0.27220395 162.14393367 -0.28116658 168.19108963 -0.30631447 C173.88250503 -0.32960001 179.57362117 -0.33382629 185.26507187 -0.32355309 C187.35117844 -0.32305772 189.43729976 -0.32937832 191.52336121 -0.34310913 C194.37774749 -0.36084205 197.23106143 -0.35371478 200.08544922 -0.34057617 C200.90541402 -0.35154542 201.72537881 -0.36251466 202.57019103 -0.37381631 C211.04269186 -0.28006216 219.24222845 3.30585141 225.42367554 9.14717102 C233.2869944 18.76795977 233.7260585 27.41133608 233.73007202 39.46430969 C233.73770137 40.91696597 233.74613019 42.36961823 233.7552948 43.82226562 C233.77715758 47.75175436 233.78602641 51.68116533 233.79112124 55.610708 C233.79477153 58.06664619 233.80101475 60.52256418 233.80812263 62.97849464 C233.83257881 71.54831966 233.84566282 80.11808438 233.84921265 88.6879425 C233.8528553 96.67534701 233.88281229 104.66236903 233.92461723 112.64965647 C233.95927853 119.51266174 233.97476028 126.37553979 233.97545868 133.23863202 C233.97625227 137.33565218 233.9850298 141.4322814 234.01345634 145.52921104 C234.03956946 149.37815726 234.0418809 153.2263862 234.0258007 157.07538033 C234.02398136 158.48793473 234.03072083 159.90052981 234.04661942 161.31299591 C234.06699018 163.24009305 234.05357224 165.16745936 234.03840637 167.09460449 C234.0404177 168.17322848 234.04242903 169.25185247 234.0445013 170.36316204 C233.42367554 173.14717102 233.42367554 173.14717102 231.07666111 175.52545643 C228.42367554 177.14717102 228.42367554 177.14717102 225.36117554 177.14717102 C221.96267413 175.99023437 220.65708158 174.93559085 218.42367554 172.14717102 C217.92424679 169.42283821 217.92424679 169.42283821 217.92488098 166.23973083 C217.91530365 165.03126495 217.90572632 163.82279907 217.89585876 162.57771301 C217.90535609 161.24165095 217.91520998 159.90559138 217.92538452 158.5695343 C217.92156078 157.15997239 217.91594126 155.75041438 217.90866089 154.34086609 C217.89670958 151.30694058 217.89720001 148.27336112 217.90725517 145.23942947 C217.92281545 140.44022926 217.90913796 135.64138449 217.89122009 130.84220886 C217.86039293 121.51859342 217.8588989 112.19508643 217.86087036 102.87142944 C217.8622629 91.01082659 217.8518962 79.15030743 217.81229264 67.28976619 C217.79736902 62.52113692 217.79762179 57.75282233 217.80977046 52.98418832 C217.81448723 50.01422953 217.80695247 47.04439072 217.7962265 44.07445145 C217.79268026 42.04552212 217.80408675 40.01658382 217.81596375 37.98768616 C217.80920624 36.77358063 217.80244873 35.5594751 217.79548645 34.30857849 C217.79607276 33.25739901 217.79665907 32.20621952 217.79726315 31.12318611 C217.19609751 26.3342746 215.2595848 22.32148578 211.42367554 19.33467102 C206.6878806 15.88148722 202.73601037 15.99871266 197.09291077 16 C195.80297163 15.99448497 195.80297163 15.99448497 194.48697311 15.98885852 C191.59436728 15.97781177 188.70179736 15.97397618 185.80917358 15.97016907 C183.73967372 15.96390525 181.67017499 15.95725852 179.60067749 15.95025635 C173.97047046 15.93284099 168.34027192 15.92229345 162.71004462 15.91405082 C159.19411874 15.90890255 155.67819551 15.90282678 152.1622715 15.89653969 C141.16639411 15.87748742 130.17052345 15.8632555 119.17463273 15.85492772 C106.47278032 15.84514956 93.77110192 15.81881497 81.06931084 15.77842683 C71.25692205 15.74829434 61.44458322 15.73346163 51.63214904 15.73014671 C45.76892082 15.72779326 39.90587849 15.71879421 34.04269981 15.69368553 C28.52775767 15.67044959 23.01312441 15.66615362 17.49814606 15.67644691 C15.47366879 15.67694345 13.44917655 15.67058852 11.42474556 15.65689087 C8.66125535 15.63923824 5.89888162 15.64624538 3.13539124 15.65942383 C2.33392455 15.64845458 1.53245787 15.63748534 0.70670432 15.62618369 C-4.49911062 15.68613669 -7.50896817 16.6225292 -11.57632446 20.14717102 C-15.78419541 25.00270611 -16.15085953 28.74376679 -16.07752991 34.87666321 C-16.0830643 35.74326946 -16.0885987 36.60987572 -16.09430081 37.50274277 C-16.10788985 40.40013753 -16.09294756 43.29666828 -16.07803345 46.19404602 C-16.08181725 48.27384303 -16.0873178 50.35363753 -16.09440613 52.4334259 C-16.10836987 58.07802868 -16.09718433 63.72232696 -16.08069491 69.36691284 C-16.06684617 75.27381124 -16.0733043 81.18069193 -16.076828 87.08760071 C-16.07953026 97.00724699 -16.06605313 106.92677228 -16.0428772 116.84638977 C-16.01626744 128.31512796 -16.01452035 139.78366385 -16.02626556 151.25242233 C-16.03704448 162.28462564 -16.03085535 173.31675575 -16.01671028 184.34895325 C-16.01095149 189.04420196 -16.01103234 193.7393971 -16.01577568 198.43464661 C-16.0205477 203.9635787 -16.01043421 209.49228925 -15.98882103 215.0211792 C-15.9832561 217.05047865 -15.98278516 219.0797994 -15.9877739 221.10910034 C-15.99372909 223.87887242 -15.98121693 226.64796771 -15.96400452 229.41767883 C-15.97001456 230.2209901 -15.97602461 231.02430138 -15.98221678 231.85195541 C-15.92768414 236.67674461 -15.2148188 239.95548868 -12.57632446 244.14717102 C-6.99493575 249.18403401 -2.84408094 249.38797599 4.39437866 249.40107727 C7.9738009 249.5269034 10.16436311 249.96772457 13.12435913 252.0160675 C16.45628761 256.55333473 16.15228225 260.41805255 16.13070679 265.91670227 C16.14582809 266.95284164 16.1609494 267.98898102 16.17652893 269.05651855 C16.21943088 272.35779033 16.22824669 275.65814816 16.23617554 278.95967102 C16.25931778 281.20123182 16.28468254 283.44277085 16.31234741 285.6842804 C16.37522421 291.17191925 16.41013869 296.65920059 16.42367554 302.14717102 C17.04341751 301.52520844 17.66315948 300.90324585 18.30168152 300.26243591 C24.14055489 294.40353147 29.98182674 288.54703127 35.82581043 282.69322395 C38.83022263 279.68359158 41.83369683 276.67303537 44.83505249 273.66035461 C47.73116005 270.75338751 50.62969838 267.84886481 53.52994347 264.94602585 C54.63641093 263.83770968 55.74199737 262.72851325 56.84668922 261.61842728 C58.3932266 260.06463884 59.94285724 258.5140001 61.49325562 256.96406555 C62.37483841 256.08026215 63.2564212 255.19645874 64.16471863 254.28587341 C68.26528846 250.4035955 70.56422806 249.88907478 76.11068726 249.84077454 C76.78584381 249.83245102 77.46100037 249.8241275 78.15661621 249.81555176 C80.3889238 249.79145345 82.62093916 249.78267997 84.85336304 249.77607727 C86.40651538 249.76711062 87.95966683 249.75798877 89.51281738 249.74871826 C92.76942036 249.73222608 96.0259205 249.72452779 99.28256226 249.72163391 C103.45140749 249.71625043 107.61928356 249.67857425 111.78785515 249.63288975 C114.99639394 249.60311589 118.20469948 249.5959103 121.41336441 249.59490776 C122.9499569 249.59070586 124.48655011 249.57827257 126.02300644 249.55739021 C128.17534946 249.53046653 130.32544813 249.53530115 132.47787476 249.54780579 C133.70126556 249.54273514 134.92465637 249.53766449 136.18511963 249.53244019 C140.35705932 250.32434252 141.84247132 251.83736323 144.42367554 255.14717102 C145.2302599 260.99490765 145.2302599 260.99490765 143.11117554 264.02217102 C139.60268414 266.36116529 137.07381699 266.12656568 133.06161499 265.59077454 C97.91675761 261.00411861 97.91675761 261.00411861 66.07066822 273.23090458 C54.05130317 283.12030965 43.65040654 295.20429054 34.03945923 307.40187073 C28.77398555 314.03968319 24.64382364 318.40143558 15.92367554 319.64717102 C9.93200072 318.79121747 5.82734643 316.87476597 1.98617554 312.14717102 C0.01545572 308.36338898 -0.70361845 305.35372038 -0.68984985 301.11299133 C-0.68977432 300.33248413 -0.68969879 299.55197693 -0.68962097 298.74781799 C-0.68445969 297.91538574 -0.6792984 297.08295349 -0.67398071 296.22529602 C-0.67256577 295.36531006 -0.67115082 294.5053241 -0.66969299 293.61927795 C-0.66410543 290.87853993 -0.65155521 288.13788426 -0.63882446 285.39717102 C-0.63380786 283.53649512 -0.62924523 281.67581793 -0.62515259 279.81513977 C-0.61414007 275.25911856 -0.59688397 270.70315875 -0.57632446 266.14717102 C-1.38674194 266.03325012 -2.19715942 265.91932922 -3.03213501 265.80195618 C-4.63762207 265.55904846 -4.63762207 265.55904846 -6.27554321 265.31123352 C-7.33346069 265.15606262 -8.39137817 265.00089172 -9.48135376 264.84101868 C-17.65198963 263.00928032 -23.90836637 256.84963621 -28.57632446 250.14717102 C-34.03037198 240.33139592 -33.14150196 229.37747833 -33.09390259 218.5202179 C-33.09932962 216.43794263 -33.10645552 214.3556712 -33.11514282 212.27340698 C-33.13330988 206.64323748 -33.12633594 201.01336261 -33.11362648 195.38318825 C-33.10346449 189.47731893 -33.11290103 183.571474 -33.11917114 177.66560364 C-33.12643823 167.74974563 -33.11688443 157.83400698 -33.09780884 147.91816711 C-33.076042 136.47154089 -33.08309403 125.0251997 -33.10511446 113.57858038 C-33.12329516 103.73195893 -33.12581371 93.88542304 -33.11535978 84.03879023 C-33.10913956 78.1660511 -33.10824873 72.29344574 -33.12150574 66.42071533 C-33.13310244 60.89822047 -33.12496864 55.37609135 -33.10192871 49.85363579 C-33.09666202 47.8328811 -33.09812022 45.81209536 -33.10697937 43.79135323 C-33.16468063 29.28719934 -32.49805825 18.20503783 -21.95913696 7.24873352 C-15.37982407 1.44599527 -8.56244796 -0.00189428 0 0 Z " fill="#020202" transform="translate(58.576324462890625,-0.1471710205078125)"/>
<path d="M0 0 C0.00146656 0.98029867 0.00293312 1.96059734 0.00444412 2.97060204 C0.04106574 26.84147093 0.10055031 50.71219981 0.18390274 74.5829525 C0.22368429 86.12675581 0.25608132 97.67049104 0.27099609 109.21435547 C0.28401714 119.27791096 0.31099353 129.34131658 0.35461307 139.40478766 C0.37721752 144.73159671 0.39291128 150.05822098 0.39188385 155.38508224 C0.39113665 160.40350817 0.40911184 165.42152579 0.44116783 170.43984604 C0.44965507 172.27716712 0.45142478 174.11453406 0.44580269 175.95186615 C0.4112124 188.99851443 1.47374967 200.1897101 11 210 C17.7616717 215.31467395 24.47126621 217.30109774 33.04855347 217.2784729 C34.2384317 217.2871615 34.2384317 217.2871615 35.45234787 217.29602563 C38.10092328 217.31298265 40.74932398 217.31589842 43.39794922 217.31884766 C45.30029221 217.3281488 47.20263112 217.33831775 49.10496521 217.34928894 C54.26352766 217.37658199 59.42206281 217.39173634 64.58067846 217.40471697 C69.97391229 217.4203505 75.36709039 217.44714003 80.76028442 217.4727478 C90.97048702 217.5195316 101.1807001 217.55627768 111.39095509 217.58942068 C123.01605866 217.62764484 134.64110625 217.67705426 146.26616263 217.72740483 C170.17740027 217.83071878 194.08867386 217.91998097 218 218 C217.39063996 224.36224295 216.86091115 227.35512935 212 232 C206.62902084 235.30764112 201.75655268 235.43392425 195.65820312 235.43945312 C191.54620912 235.47269509 191.54620912 235.47269509 188.30314636 237.72772217 C186.80749351 240.33567083 186.60694959 241.87183107 186.56762695 244.86035156 C186.54783279 245.82104553 186.52803864 246.7817395 186.50764465 247.77154541 C186.50125473 248.80084167 186.49486481 249.83013794 186.48828125 250.890625 C186.47033005 251.95037537 186.45237885 253.01012573 186.43388367 254.10198975 C186.3797298 257.48461944 186.34586801 260.8671076 186.3125 264.25 C186.27933148 266.54429055 186.24484227 268.83856241 186.20898438 271.1328125 C186.12400045 276.75508143 186.05567198 282.37736856 186 288 C180.33855756 283.32526749 175.15423979 278.27514263 169.9872036 273.06236839 C168.51410885 271.57635577 167.03777733 270.0936254 165.56062317 268.61164856 C162.43340264 265.4730911 159.31017617 262.33057798 156.1875 259.1875 C152.54928241 255.52565762 148.90943337 251.86546732 145.26537514 248.20943642 C143.81086005 246.74843978 142.35938594 245.28446727 140.90800476 243.82035828 C140.02981583 242.93886612 139.15162689 242.05737396 138.24682617 241.14916992 C137.47296066 240.3700676 136.69909515 239.59096527 135.90177917 238.78825378 C132.78043869 235.85323956 130.82726717 235.87275281 126.63677979 235.86196899 C125.49837646 235.85651566 124.35997314 235.85106232 123.18707275 235.84544373 C121.93198914 235.8444014 120.67690552 235.84335907 119.38378906 235.84228516 C117.36191395 235.834486 115.34003885 235.82668279 113.31816435 235.81872725 C111.14053953 235.81100542 108.96291893 235.80562732 106.78528595 235.80076981 C102.24677148 235.79009632 97.70833174 235.7698524 93.16986084 235.74765015 C80.26268951 235.68570666 67.35552205 235.6317358 54.44824219 235.59863281 C47.32264675 235.5802776 40.19717598 235.55132894 33.0716722 235.5106281 C29.30104819 235.48957023 25.53058123 235.47410261 21.75989532 235.47182083 C18.21067332 235.46967063 14.66177807 235.45376373 11.11265564 235.42743111 C9.19348009 235.41683352 7.27424073 235.42098675 5.3550415 235.4256134 C-1.29383412 235.36146014 -6.45780336 235.22408675 -11.609375 230.53515625 C-16.17157083 224.64492396 -17.2966325 221.04613295 -17.27415466 213.60040283 C-17.27939134 212.74508366 -17.28462802 211.88976449 -17.29002339 211.00852656 C-17.305046 208.13747324 -17.30572904 205.26659777 -17.30639648 202.39550781 C-17.31401651 200.33895567 -17.32244374 198.28240639 -17.33161926 196.2258606 C-17.35358816 190.63482405 -17.36236653 185.04384221 -17.36744571 179.45276737 C-17.37108683 175.95976422 -17.37732566 172.46677545 -17.3844471 168.97377777 C-17.4089511 156.78785064 -17.42199529 144.60196613 -17.42553711 132.41601562 C-17.42917183 121.05750122 -17.45906042 109.69925712 -17.50094169 98.34082532 C-17.53563642 88.58952318 -17.55108542 78.83831065 -17.55178314 69.0869472 C-17.55257631 63.26275955 -17.56133339 57.43884708 -17.58978081 51.61472321 C-17.61594674 46.13498927 -17.61817457 40.65575892 -17.60212517 35.17599106 C-17.60030945 33.16686531 -17.60701241 31.15771071 -17.62294388 29.14864731 C-17.6434003 26.401014 -17.63285539 23.65514331 -17.61473083 20.90753174 C-17.6279308 20.11646381 -17.64113077 19.32539587 -17.65473074 18.51035619 C-17.56591118 12.59647217 -15.71275014 8.59239259 -12 4 C-7.7944365 0.42079702 -5.40769743 -0.18050729 0 0 Z " fill="#FCA859" transform="translate(252,209)"/>
<path d="M0 0 C0.00238835 0.96999121 0.00477671 1.93998241 0.00723743 2.93936729 C0.06607626 26.55986595 0.14198625 50.18026297 0.23571491 73.80064964 C0.280648 85.22337292 0.32006846 96.64606519 0.34643555 108.06884766 C0.3694357 118.0269084 0.40285639 127.98487083 0.44870156 137.94285357 C0.47260645 143.21374183 0.49135318 148.48453288 0.49761391 153.75547409 C0.50367707 158.72131265 0.52372157 163.68690255 0.55427551 168.65264893 C0.56303598 170.47062069 0.56678246 172.28862497 0.56500816 174.10661697 C0.55637415 187.04059728 1.0133983 198.84882788 10 209 C16.01390678 213.95325303 21.94468633 217.2353668 29.84028625 217.2784729 C31.59232613 217.29521812 31.59232613 217.29521812 33.37976074 217.31230164 C34.65218628 217.31446182 35.92461182 217.31662201 37.2355957 217.31884766 C38.59592787 217.3281509 39.95625434 217.33832017 41.3165741 217.34928894 C45.00209884 217.37655842 48.68758542 217.39172925 52.37318444 217.40471697 C56.22760911 217.42036089 60.081956 217.44714709 63.93632507 217.4727478 C71.23181854 217.51951327 78.52732668 217.55626817 85.82289332 217.58942068 C94.13003351 217.62765784 102.43709555 217.67706383 110.74416983 217.72740483 C127.82939095 217.83069149 144.91465656 217.91956633 162 218 C162 226.25 162 234.5 162 243 C156.39 243 150.78 243 145 243 C144.01 241.02 143.02 239.04 142 237 C139.15419069 235.57709535 136.68745336 235.80924867 133.50585938 235.74365234 C132.50539078 235.72174835 132.50539078 235.72174835 131.48471069 235.69940186 C125.31499825 235.57310644 119.14399479 235.5045568 112.97325897 235.45155907 C108.83179466 235.41587961 104.69228625 235.36279047 100.55175781 235.26611328 C96.54215003 235.17278402 92.53426836 235.12455817 88.52363586 235.10716629 C87.00215878 235.09315296 85.48073581 235.06369667 83.95988464 235.01786423 C76.54620212 234.80548897 70.45944469 234.76846499 64.63305664 239.91430664 C63.05991532 241.58285652 61.5157223 243.27912283 60 245 C58.31966829 246.66500641 56.63055556 248.32119168 54.93334961 249.96899414 C53.17054613 251.73859289 51.41029474 253.51073687 49.65234375 255.28515625 C48.70525919 256.23666049 47.75787042 257.18786201 46.81019592 258.13877869 C43.84974777 261.11049204 40.89335139 264.08621535 37.9375 267.0625 C34.94950553 270.07091083 31.96088213 273.07867951 28.96839905 276.08262634 C27.11420949 277.94437119 25.26228993 279.80838003 23.41282654 281.67481995 C22.58428665 282.50666306 21.75574677 283.33850616 20.90209961 284.19555664 C19.80483803 285.30067345 19.80483803 285.30067345 18.68540955 286.42811584 C17 288 17 288 16 288 C15.99635437 287.40753479 15.99270874 286.81506958 15.98895264 286.20465088 C15.94715293 280.04000577 15.87782542 273.87610694 15.79248047 267.71191406 C15.76424896 265.41120873 15.74304534 263.11040601 15.72900391 260.80957031 C15.70760514 257.50274721 15.66096892 254.19709774 15.609375 250.890625 C15.60814636 249.86132874 15.60691772 248.83203247 15.60565186 247.77154541 C15.55935784 242.22147152 15.55935784 242.22147152 13.19189453 237.34863281 C9.42768265 235.03258175 5.29721124 235.48790977 1.01953125 235.51171875 C-4.15643275 235.40449539 -6.99055648 234.2372544 -11 231 C-15.80440446 225.67620046 -16.14874766 221.57577433 -16.14717102 214.63127136 C-16.15084771 213.76722838 -16.1545244 212.9031854 -16.1583125 212.0129593 C-16.1693595 209.10653397 -16.17319488 206.20014437 -16.17700195 203.29370117 C-16.18326576 201.21434922 -16.18991248 199.1349984 -16.19691467 197.0556488 C-16.21433021 191.3985831 -16.22487762 185.74152586 -16.2331202 180.08443999 C-16.23826843 176.55176315 -16.2443442 173.01908894 -16.25063133 169.48641396 C-16.26968364 158.43821083 -16.28391556 147.3900144 -16.2922433 136.34179801 C-16.3020215 123.57938543 -16.32835617 110.81714603 -16.36874419 98.05479449 C-16.39887639 88.19569696 -16.41370936 78.33664916 -16.41702431 68.47750646 C-16.41937779 62.58633294 -16.42837726 56.69534442 -16.45348549 50.8042202 C-16.47672092 45.26301366 -16.48101761 39.72211454 -16.47072411 34.18087196 C-16.47022756 32.1467194 -16.47658285 30.11255194 -16.49028015 28.07844543 C-16.50793193 25.30181976 -16.50092604 22.52630539 -16.48774719 19.74967957 C-16.49871644 18.94432193 -16.50968568 18.1389643 -16.52098733 17.3092019 C-16.4610864 12.08359132 -15.42072258 9.1648014 -12 5 C-7.80892803 1.30786517 -5.5688561 -0.14654884 0 0 Z " fill="#DAD7DA" transform="translate(58,15)"/>
<path d="M0 0 C1.13888672 -0.07347656 1.13888672 -0.07347656 2.30078125 -0.1484375 C5.88868776 0.63843561 7.29229914 2.64383212 9.6875 5.375 C11.23524475 8.49838257 11.23524475 8.49838257 12.54711914 12.04833984 C12.91424798 13.0236585 12.91424798 13.0236585 13.28879356 14.01868057 C14.09205962 16.16156603 14.87596347 18.31100703 15.66015625 20.4609375 C16.22702162 21.98343889 16.79524987 23.50543346 17.36476135 25.02694702 C18.55352792 28.20818944 19.73500593 31.39199892 20.91094971 34.57800293 C22.61318156 39.1841584 24.34233428 43.7797664 26.08154297 48.37207031 C26.49744407 49.47050829 26.49744407 49.47050829 26.92174721 50.59113693 C27.4802784 52.06617641 28.03884726 53.54120162 28.59745407 55.01621246 C29.99563867 58.71233818 31.38755789 62.41081839 32.77929688 66.109375 C33.05435751 66.84027973 33.32941814 67.57118446 33.61281395 68.32423782 C34.16957168 69.80373558 34.72630699 71.28324177 35.28302002 72.76275635 C36.42095259 75.78638219 37.55962782 78.8097281 38.69833279 81.83306313 C40.59164993 86.8599601 42.48455497 91.88701229 44.37705994 96.91421509 C44.73877084 97.87429254 44.73877084 97.87429254 45.10778904 98.85376549 C45.58297235 100.11784952 46.05643111 101.3825833 46.52808285 102.64798927 C47.77450655 105.98628154 49.05467745 109.30646501 50.3833313 112.61297607 C50.66195291 113.3197669 50.94057451 114.02655773 51.2276392 114.75476646 C51.7575257 116.09755131 52.29761369 117.43637829 52.85023403 118.76996803 C54.72325665 123.56606971 55.00229824 127.31375445 54.6875 132.375 C53.6875 134.375 53.6875 134.375 51.6875 135.375 C48.95666397 135.77324692 46.39806201 135.93241396 43.6875 135.375 C40.6875 132.375 40.6875 132.375 35.6875 119.375 C11.5975 119.045 -12.4925 118.715 -37.3125 118.375 C-37.6425 120.355 -37.9725 122.335 -38.3125 124.375 C-39.73371806 128.67449827 -41.44641328 132.85762826 -43.125 137.0625 C-43.56392578 138.20267578 -44.00285156 139.34285156 -44.45507812 140.51757812 C-44.88884766 141.60876953 -45.32261719 142.69996094 -45.76953125 143.82421875 C-46.16116455 144.81768311 -46.55279785 145.81114746 -46.95629883 146.8347168 C-48.42698833 149.58944664 -49.65087871 150.78845857 -52.3125 152.375 C-54.75 152.9375 -54.75 152.9375 -57.3125 152.375 C-61.31156015 148.8106203 -61.31156015 148.8106203 -62.3125 146.375 C-61.85438116 140.63732415 -60.15299983 135.77730588 -58.05078125 130.44921875 C-57.71250305 129.57363312 -57.37422485 128.69804749 -57.0256958 127.79592896 C-56.28752514 125.88757845 -55.54600734 123.98052004 -54.80154419 122.07461548 C-53.18378705 117.93293397 -51.58184906 113.78519193 -49.97911072 109.63768005 C-49.11813066 107.40980676 -48.2563464 105.18224411 -47.39381409 102.95497131 C-44.09682441 94.43384463 -40.84254649 85.89704294 -37.609375 77.3515625 C-37.37055792 76.72053682 -37.13174084 76.08951115 -36.88568687 75.43936348 C-34.76142847 69.82587584 -32.63922272 64.21161425 -30.51919556 58.5965271 C-27.91471358 51.70036042 -25.30040383 44.80808991 -22.66827393 37.92242432 C-21.72590035 35.45667477 -20.78554862 32.99022332 -19.84735107 30.52288818 C-18.61436246 27.28336286 -17.37116594 24.04790795 -16.12122917 20.81488609 C-15.42079274 18.99709798 -14.72914208 17.17593218 -14.03773499 15.35469055 C-13.60883469 14.25110703 -13.17993439 13.1475235 -12.73803711 12.01049805 C-12.36537216 11.04065475 -11.99270721 10.07081146 -11.60874939 9.07157898 C-8.89019262 3.41618343 -6.33251049 0.27671474 0 0 Z " fill="#030303" transform="translate(159.3125,56.625)"/>
<path d="M0 0 C4.36356852 2.5706171 8.19413922 5.41893211 11.3671875 9.39453125 C12.1796875 13.14453125 12.1796875 13.14453125 11.3671875 16.39453125 C9.38148333 19.37308751 8.15818857 20.21057751 4.6796875 21.01953125 C0.46202639 20.22374613 -2.15116457 18.3111756 -5.58203125 15.8046875 C-9.6046402 13.03866496 -13.89325139 12.74700108 -18.6328125 13.39453125 C-23.58801771 15.96742626 -27.12398213 19.37687051 -29.6328125 24.39453125 C-30.17381151 30.67011976 -29.38286042 35.22244681 -25.6328125 40.39453125 C-20.28838482 44.6482594 -16.37753448 45.51217854 -9.6640625 45.60546875 C-8.27472757 45.63352589 -6.88540479 45.66219027 -5.49609375 45.69140625 C-3.3103861 45.73272955 -1.12490829 45.76962625 1.06103516 45.79589844 C3.17397525 45.82348127 5.28589125 45.86933328 7.3984375 45.91796875 C8.66236328 45.93778809 9.92628906 45.95760742 11.22851562 45.97802734 C14.3671875 46.39453125 14.3671875 46.39453125 16.27148438 47.67822266 C17.82081348 50.10509066 17.83041822 52.53689558 17.9609375 55.359375 C17.02197619 58.57778843 15.12658175 59.58885003 12.3671875 61.39453125 C9.03662109 61.87695312 9.03662109 61.87695312 5.265625 61.86328125 C4.58851471 61.87033081 3.91140442 61.87738037 3.21377563 61.88464355 C0.34038926 61.91387409 -2.53230294 61.89766484 -5.40576172 61.88525391 C-19.74910202 61.86880889 -30.69843376 64.5144783 -41.6328125 74.39453125 C-51.25897184 85.48515268 -54.46850941 96.98550332 -53.81201172 111.35986328 C-52.71566994 123.80797282 -45.31819212 133.43189537 -36.3203125 141.45703125 C-25.28909705 149.40976797 -13.86769542 150.54589123 -0.6328125 149.39453125 C6.41073039 147.94293459 12.16505549 144.56118899 18.078125 140.56640625 C20.77116759 139.18771551 22.37970033 139.0186546 25.3671875 139.39453125 C28.2421875 141.45703125 28.2421875 141.45703125 30.3671875 144.39453125 C30.7421875 147.76953125 30.7421875 147.76953125 29.3671875 151.39453125 C21.93641066 159.73371601 9.01114445 164.8215018 -1.93823242 165.54736328 C-21.74515192 166.46584805 -35.90141197 162.53106103 -51.3828125 149.58203125 C-59.69916968 141.82999831 -64.08465399 133.09444676 -67.6328125 122.39453125 C-67.8803125 121.70875 -68.1278125 121.02296875 -68.3828125 120.31640625 C-72.46398979 107.27931214 -69.64042352 91.65954032 -64.23828125 79.4453125 C-58.16877574 67.91177527 -49.26104555 58.33235238 -37.6328125 52.39453125 C-38.62640684 50.40290687 -39.62326866 48.4132834 -40.6328125 46.4296875 C-40.9628125 45.77871094 -41.2928125 45.12773437 -41.6328125 44.45703125 C-41.9628125 43.80863281 -42.2928125 43.16023438 -42.6328125 42.4921875 C-46.21879845 34.97002166 -46.90821656 27.86556862 -44.5078125 19.76953125 C-41.02238541 10.74937504 -36.0732832 5.05546374 -27.6328125 0.39453125 C-26.5603125 -0.22421875 -25.4878125 -0.84296875 -24.3828125 -1.48046875 C-16.23309399 -3.9253843 -7.75030252 -3.59563215 0 0 Z " fill="#040301" transform="translate(370.6328125,244.60546875)"/>
<path d="M0 0 C1.63805906 2.4570886 2.59786004 4.30307331 3.61303711 7.01123047 C3.91809174 7.81929138 4.22314636 8.62735229 4.53744507 9.4598999 C5.02744492 10.77525726 5.02744492 10.77525726 5.52734375 12.1171875 C5.87254059 13.03437561 6.21773743 13.95156372 6.57339478 14.89654541 C7.69839731 17.88801298 8.81807895 20.88143982 9.9375 23.875 C11.09110799 26.94967685 12.24574549 30.02396579 13.4004364 33.09823608 C14.17020663 35.14804633 14.93950362 37.19803436 15.70832825 39.24819946 C17.97304929 45.28365804 20.25787457 51.31079506 22.5703125 57.328125 C23.0886236 58.67985005 23.60693417 60.0315753 24.12524414 61.38330078 C25.06239931 63.82628296 26.00515475 66.26685777 26.95092773 68.70654297 C27.36028564 69.77533691 27.76964355 70.84413086 28.19140625 71.9453125 C28.54404541 72.85812988 28.89668457 73.77094727 29.26000977 74.71142578 C30 77 30 77 30 80 C10.2 80 -9.6 80 -30 80 C-29.16064313 74.96385879 -27.92591034 70.76314895 -26.078125 66.078125 C-25.7815097 65.31221039 -25.48489441 64.54629578 -25.17929077 63.75717163 C-24.20813518 61.25269523 -23.22912318 58.75137094 -22.25 56.25 C-21.57540678 54.51504528 -20.9014226 52.77985364 -20.22802734 51.04443359 C-19.19161673 48.37355883 -18.15483104 45.70283809 -17.11593628 43.03292847 C-14.76856861 36.99743553 -12.44831646 30.95217649 -10.1484375 24.8984375 C-9.84776367 24.10767822 -9.54708984 23.31691895 -9.23730469 22.50219727 C-8.08188793 19.46257702 -6.92690503 16.42280194 -5.77600098 13.38146973 C-4.99104533 11.30809611 -4.20288294 9.23596817 -3.4140625 7.1640625 C-2.74818115 5.40763428 -2.74818115 5.40763428 -2.06884766 3.61572266 C-1 1 -1 1 0 0 Z " fill="#E9E7E9" transform="translate(159,80)"/>
</svg>
