<?xml version="1.0" encoding="UTF-8"?>
<svg version="1.1" xmlns="http://www.w3.org/2000/svg" width="512" height="512">
<path d="M0 0 C1.67373449 -0.00599729 3.34746625 -0.01280556 5.02119446 -0.02035522 C9.53616058 -0.03790498 14.05105072 -0.04270605 18.56604767 -0.0439868 C21.39786044 -0.04541578 24.22965435 -0.04969952 27.0614624 -0.05498123 C36.9724651 -0.07344844 46.88341426 -0.08165642 56.79443359 -0.08007812 C65.98068263 -0.07887918 75.1666958 -0.09994159 84.35288525 -0.13156545 C92.28119842 -0.15787 100.20943526 -0.16843945 108.13779163 -0.16716731 C112.85444773 -0.16666161 117.57089413 -0.17212367 122.2875061 -0.19352341 C167.65445746 -0.38521666 167.65445746 -0.38521666 185.88671875 7.91552734 C186.65894775 8.25543701 187.43117676 8.59534668 188.22680664 8.94555664 C209.54373686 18.68535886 226.55435051 35.00502131 238.07421875 55.29052734 C238.62207031 56.24830078 239.16992188 57.20607422 239.734375 58.19287109 C242.78437344 63.87944107 244.98125624 69.62762774 246.82421875 75.79052734 C247.02297607 76.45407227 247.2217334 77.11761719 247.42651367 77.80126953 C250.57575632 88.97277923 251.3696956 99.90156184 251.3046875 111.47021484 C251.30349157 112.89600584 251.30304341 114.32179764 251.30329895 115.74758911 C251.30174832 118.71084649 251.29356465 121.67398062 251.2800293 124.63720703 C251.26294784 128.42305192 251.2592185 132.20876333 251.25997448 135.99464226 C251.25970201 138.92867287 251.25420995 141.8626747 251.24697304 144.79669571 C251.24380803 146.19285999 251.24182407 147.58902749 251.24107933 148.98519516 C251.23889789 150.93447812 251.22933534 152.88374854 251.21948242 154.83300781 C251.21567062 155.9382077 251.21185883 157.04340759 251.20793152 158.18209839 C251.0741112 161.29302765 250.65221746 164.23358195 250.07421875 167.29052734 C251.29713623 167.27481689 252.52005371 167.25910645 253.7800293 167.24291992 C258.42644351 167.18758868 263.07283044 167.15381226 267.71948242 167.12573242 C269.71009252 167.11087593 271.70067132 167.09058519 273.69116211 167.06420898 C309.66845154 166.60027934 339.29865482 174.56661788 365.82421875 199.60302734 C390.97471391 225.92005753 396.26215647 258.19072172 396.25952148 293.2175293 C396.26170228 296.45358557 396.27989842 299.68929693 396.29882812 302.92529297 C396.39574521 338.40526149 389.28183333 369.01599744 363.88671875 395.04052734 C350.18341235 408.56568903 328.05709227 423.29052734 308.07421875 423.29052734 C308.0899292 424.54188477 308.10563965 425.79324219 308.12182617 427.08251953 C308.1761398 431.72665974 308.21057414 436.37077189 308.23901367 441.01513672 C308.25409701 443.02495037 308.27456647 445.03473114 308.30053711 447.04443359 C308.33694019 449.9338391 308.35394963 452.8228093 308.3671875 455.71240234 C308.38267136 456.61045593 308.39815521 457.50850952 308.41410828 458.43377686 C308.41578018 464.6358887 308.41578018 464.6358887 306.73632812 467.85473633 C305.07421875 469.29052734 305.07421875 469.29052734 302.1875 469.84130859 C298.07847263 469.11436649 296.9311874 467.6433177 294.26171875 464.47802734 C293.83286377 463.97883789 293.40400879 463.47964844 292.9621582 462.96533203 C291.64611582 461.42263656 290.3571971 459.86077694 289.07421875 458.29052734 C288.35234375 457.41525391 287.63046875 456.53998047 286.88671875 455.63818359 C285.4420259 453.87215282 284.00343302 452.10111811 282.5703125 450.32568359 C279.02114125 446.01002465 275.35232247 441.80187738 271.6784668 437.59228516 C271.15422119 436.99125977 270.62997559 436.39023437 270.08984375 435.77099609 C269.62868164 435.24401123 269.16751953 434.71702637 268.69238281 434.17407227 C267.07421875 432.29052734 267.07421875 432.29052734 265.24803162 429.21813965 C263.40264529 427.03055087 262.38752067 426.35955237 259.561903 425.73702717 C256.25313421 425.53066009 252.99008214 425.51793391 249.67504883 425.56518555 C248.41576065 425.55937469 247.15647247 425.55356384 245.85902405 425.5475769 C243.12231778 425.535181 240.38653296 425.54159688 237.64988136 425.56264687 C233.30508187 425.59583798 228.96099663 425.58637225 224.61613464 425.57133484 C217.72441957 425.55244841 210.83307259 425.56147368 203.94137448 425.58265609 C191.65317492 425.62021704 179.36503636 425.62427116 167.07681006 425.59780377 C162.77666033 425.58980726 158.47696304 425.59849688 154.17686534 425.61998206 C136.56294121 425.69671406 119.02778775 425.7107194 102.38671875 419.16552734 C101.6069165 418.86767334 100.82711426 418.56981934 100.02368164 418.26293945 C73.08643674 407.54461273 52.78702075 386.49602988 40.94238281 360.31347656 C34.63330532 345.61240342 32.76455315 331.42474111 32.84375 315.57177734 C32.84494476 313.98042844 32.84539434 312.38907882 32.84513855 310.79772949 C32.84669189 307.48636367 32.85489828 304.17510774 32.8684082 300.86376953 C32.88550806 296.61911366 32.88921872 292.37457674 32.88846302 288.12989044 C32.88873458 284.85456202 32.89421169 281.5792596 32.90146446 278.30393982 C32.90464399 276.73783057 32.90661687 275.17171838 32.90735817 273.60560608 C32.90952303 271.42565855 32.91826715 269.24583821 32.92895508 267.06591797 C32.93276688 265.82668579 32.93657867 264.58745361 32.94050598 263.31066895 C33.07421875 260.29052734 33.07421875 260.29052734 34.07421875 257.29052734 C28.73810538 256.98354282 23.96494485 256.83978153 19.58984375 260.19677734 C17.26537784 262.80149801 15.15705989 265.48920155 13.07421875 268.29052734 C11.66469806 270.02552395 10.24789622 271.7546283 8.82421875 273.47802734 C8.09074219 274.38423828 7.35726562 275.29044922 6.6015625 276.22412109 C2.0556959 281.73958521 -2.65948914 287.11080042 -7.3671875 292.48828125 C-8.44515167 293.73476175 -9.50945974 294.99313555 -10.5625 296.26074219 C-11.35140625 297.20747803 -11.35140625 297.20747803 -12.15625 298.17333984 C-12.86044067 299.03016357 -12.86044067 299.03016357 -13.57885742 299.90429688 C-14.92578125 301.29052734 -14.92578125 301.29052734 -17.55078125 302.41552734 C-20.80857321 302.24406461 -21.72373771 301.73581988 -23.92578125 299.29052734 C-24.56926184 296.07073999 -24.53080662 292.86630973 -24.53515625 289.59130859 C-24.5516925 288.6411235 -24.56822876 287.69093842 -24.58526611 286.71195984 C-24.63387084 283.67558409 -24.65514477 280.63970957 -24.67578125 277.60302734 C-24.70393049 275.54505925 -24.73385643 273.48711463 -24.765625 271.42919922 C-24.83963322 266.38301651 -24.88913165 261.3371141 -24.92578125 256.29052734 C-25.91505615 256.03875732 -26.90433105 255.7869873 -27.92358398 255.52758789 C-49.18314483 250.0418308 -66.38966854 240.80447727 -81.92578125 225.29052734 C-82.71597656 224.51193359 -83.50617188 223.73333984 -84.3203125 222.93115234 C-104.30399475 202.07252778 -112.03526032 174.60597792 -112.12890625 146.32568359 C-112.13314732 145.32593915 -112.13314732 145.32593915 -112.13747406 144.30599785 C-112.1523984 140.7721099 -112.16166797 137.23826199 -112.16601562 133.7043457 C-112.17038398 130.81945026 -112.18422061 127.93485663 -112.20703125 125.05004883 C-112.49179319 88.30696938 -106.14127045 57.47090794 -80.17578125 30.10302734 C-57.97496396 8.76672786 -30.33618013 -0.02189395 0 0 Z " fill="#020202" transform="translate(113.92578125,20.70947265625)"/>
<path d="M0 0 C7.34233542 -0.12851841 14.68437309 -0.21505806 22.02758789 -0.2746582 C24.51695593 -0.29954707 27.00625291 -0.3334708 29.49536133 -0.37719727 C59.67107287 -0.89338472 84.88632842 5.57310872 108 26 C108.93585938 26.81017578 108.93585938 26.81017578 109.890625 27.63671875 C125.17743233 41.81630405 136.10879925 64.28800461 138 85 C138.16899734 89.70663958 138.18788886 94.41173619 138.203125 99.12109375 C138.20595238 99.80078783 138.20877975 100.48048191 138.21169281 101.18077278 C138.22663268 104.78482568 138.23589237 108.38883916 138.24023438 111.99291992 C138.2456816 115.66707546 138.26964426 119.3408534 138.29820633 123.01489162 C138.31708326 125.88156591 138.32205159 128.74815423 138.32357025 131.61488533 C138.3279695 133.61296553 138.34649587 135.61099924 138.36553955 137.60899353 C138.30578562 162.64719196 129.85659246 186.33236868 113 205 C112.25105469 205.84304688 111.50210937 206.68609375 110.73046875 207.5546875 C101.35462478 217.53692934 89.73066658 225.01843482 77 230 C76.10925781 230.36738281 75.21851563 230.73476563 74.30078125 231.11328125 C68.42972076 233.41647902 62.78491664 234.70141864 56.53125 235.5078125 C53.76771803 235.87630141 53.76771803 235.87630141 51 238 C50.66197325 240.54579377 50.5112053 242.86149086 50.48828125 245.4140625 C50.47033005 246.14370209 50.45237885 246.87334167 50.43388367 247.62509155 C50.37964868 249.95833535 50.34584438 252.29137314 50.3125 254.625 C50.27933838 256.20575792 50.2448498 257.78648861 50.20898438 259.3671875 C50.12391533 263.24464326 50.05716822 267.12203655 50 271 C46.20334158 267.88732812 42.98190043 265.01069598 39.9375 261.125 C36.08158492 256.30181612 32.11223872 251.59920671 28.0625 246.9375 C27.4945874 246.28217285 26.9266748 245.6268457 26.34155273 244.95166016 C22.73992653 240.13074497 22.73992653 240.13074497 17.7114563 237.74666691 C16.74851654 237.74503261 15.78557678 237.7433983 14.79345703 237.74171448 C13.68922394 237.73488647 12.58499084 237.72805847 11.44729614 237.72102356 C9.62100174 237.72485298 9.62100174 237.72485298 7.7578125 237.72875977 C5.79516525 237.7207352 3.83251802 237.7127083 1.86987114 237.70459449 C-0.24594315 237.6977269 -2.3617142 237.6957383 -4.47753906 237.69503975 C-8.90176267 237.69309715 -13.32582995 237.67502615 -17.75 237.65428162 C-28.75439148 237.60508709 -39.75882614 237.57437304 -50.76330566 237.55297852 C-59.28805463 237.53636678 -67.81267099 237.51325548 -76.33733177 237.46995777 C-80.00551043 237.45191282 -83.67350899 237.43954365 -87.34173584 237.44125557 C-123.30459642 237.45295921 -151.13112983 232.05915811 -177.75 206.5625 C-196.67467314 187.03277514 -204.37595211 161.71949042 -204.23046875 135.07421875 C-204.22927261 133.67324364 -204.2288247 132.27226771 -204.2290802 130.87129211 C-204.2275297 127.95930844 -204.21934792 125.0474502 -204.20581055 122.13549805 C-204.18874339 118.41925325 -204.18499939 114.70314447 -204.18575573 110.98686504 C-204.18548293 108.103406 -204.17998537 105.21997616 -204.17275429 102.33652687 C-204.16959388 100.96630892 -204.16760643 99.59608771 -204.16686058 98.22586632 C-204.16467332 96.31031462 -204.15510274 94.39477573 -204.14526367 92.47924805 C-204.14145187 91.39403366 -204.13764008 90.30881927 -204.13371277 89.1907196 C-203.98915494 85.74120985 -203.54056949 82.40805937 -203 79 C-202.17672242 78.99503478 -202.17672242 78.99503478 -201.33681297 78.98996925 C-187.92107639 78.90839924 -174.50544983 78.81607903 -161.08986473 78.71247292 C-154.60192344 78.66268627 -148.11399706 78.61635554 -141.62597656 78.578125 C-135.35594348 78.54104842 -129.08604074 78.49462973 -122.81612015 78.44193649 C-120.43296233 78.42351076 -118.0497767 78.40836 -115.66657639 78.39665604 C-82.06061201 78.22582112 -52.43505759 71.43006366 -27.75 47.25 C-15.65825201 34.88578993 -8.24285787 20.68068452 -1.88818359 4.73730469 C-1.53307709 3.84710632 -1.17797058 2.95690796 -0.81210327 2.03973389 C-0.54410919 1.3666217 -0.27611511 0.69350952 0 0 Z " fill="#CBCBC4" transform="translate(361,199)"/>
<path d="M0 0 C35.31 0 70.62 0 107 0 C107 78.21 107 156.42 107 237 C71.69 237.33 36.38 237.66 0 238 C0 159.46 0 80.92 0 0 Z " fill="#FEFEFE" transform="translate(130,31)"/>
<path d="M0 0 C1.44656982 0.00888245 1.44656982 0.00888245 2.92236328 0.01794434 C5.27648265 0.03325924 7.63036916 0.05474417 9.984375 0.08203125 C10.25850055 31.69205825 10.47068207 63.30174521 10.59715895 94.91268421 C10.6121663 98.649962 10.62769827 102.38723744 10.64355469 106.12451172 C10.64670241 106.86849307 10.64985014 107.61247441 10.65309325 108.37900065 C10.70521985 120.40411614 10.79978353 132.42853878 10.91020855 144.4532441 C11.02267922 156.80430399 11.08913292 169.15500262 11.11343694 181.50655353 C11.12985176 189.12024333 11.18156587 196.73197456 11.2793726 204.34506093 C11.35068593 210.19627597 11.35777509 216.04650206 11.34166718 221.89816284 C11.34495427 224.28866461 11.36863653 226.67924414 11.4148407 229.06930161 C11.7978175 249.91163062 11.7978175 249.91163062 4.12579346 258.31100464 C2.12973404 260.29843241 0.06595032 262.18170482 -2.015625 264.08203125 C-3.26777636 265.67351214 -4.4859414 267.29348076 -5.640625 268.95703125 C-6.424375 269.98828125 -7.208125 271.01953125 -8.015625 272.08203125 C-8.675625 272.08203125 -9.335625 272.08203125 -10.015625 272.08203125 C-10.04068115 271.05730713 -10.0657373 270.03258301 -10.09155273 268.97680664 C-10.18546984 265.18793449 -10.28572817 261.39925244 -10.38793945 257.6105957 C-10.43134797 255.96838822 -10.47301858 254.32613386 -10.51293945 252.68383789 C-10.5704994 250.3281438 -10.63423392 247.97268697 -10.69921875 245.6171875 C-10.71593124 244.87864029 -10.73264374 244.14009308 -10.74986267 243.37916565 C-10.55110513 239.93902498 -10.55110513 239.93902498 -12.015625 237.08203125 C-14.2603623 236.63788537 -16.5118196 236.2275971 -18.765625 235.83203125 C-37.8472159 232.18955344 -53.8876029 223.12480026 -68.015625 210.08203125 C-68.69109375 209.48777344 -69.3665625 208.89351562 -70.0625 208.28125 C-86.31099549 193.26257183 -96.66345168 168.96505773 -97.54614258 147.07373047 C-97.80527234 138.75827682 -97.71088202 130.44059999 -97.60247803 122.12335205 C-97.56993958 118.9783761 -97.57107652 115.83379304 -97.57289219 112.68867779 C-97.57206729 109.60404403 -97.55547286 106.51965109 -97.53388786 103.43509865 C-97.52451805 101.98860286 -97.51847172 100.54208062 -97.51620674 99.09555626 C-97.42324897 70.80854078 -87.75731015 47.71140978 -68.328125 27.01953125 C-57.07908951 16.16366594 -41.26871943 6.87633335 -26.015625 3.08203125 C-24.98050781 2.80617187 -23.94539063 2.5303125 -22.87890625 2.24609375 C-15.12306581 0.41823081 -7.94093945 -0.09365286 0 0 Z " fill="#67BFDF" transform="translate(110.015625,30.91796875)"/>
<path d="M0 0 C12.76479575 0 22.96569687 0.32014478 35 3 C35.89847656 3.19335938 36.79695313 3.38671875 37.72265625 3.5859375 C60.30360064 9.39138898 81.42946205 26.33182625 93.48828125 45.9375 C97.84913736 53.33283646 101.49871931 60.75966974 104 69 C104.391875 70.19625 104.78375 71.3925 105.1875 72.625 C107.38183314 81.73992227 107.16317663 91.01771532 107.16796875 100.33203125 C107.1711902 101.81499767 107.17455491 103.29796378 107.17805481 104.78092957 C107.18401376 107.87813045 107.18589805 110.97530356 107.18530273 114.07250977 C107.18520128 118.00922637 107.19885134 121.94576198 107.21607494 125.8824358 C107.22728245 128.94281303 107.22921928 132.00314769 107.22869301 135.06354332 C107.22986007 136.51336986 107.23420868 137.96319798 107.24202538 139.41300392 C107.30046102 151.369382 106.45230037 162.64065285 101.9375 173.8125 C101.47960083 174.95561646 101.47960083 174.95561646 101.01245117 176.12182617 C95.33162877 189.81877771 87.51503438 200.61531729 77 211 C76.31164062 211.68707031 75.62328125 212.37414062 74.9140625 213.08203125 C53.81168708 232.80429351 27.73732974 237 0 237 C0 158.79 0 80.58 0 0 Z " fill="#E05E4E" transform="translate(247,31)"/>
<path d="M0 0 C-1.52367188 0.72703125 -1.52367188 0.72703125 -3.078125 1.46875 C-30.89024179 14.92348927 -50.24263666 33.69201355 -60.75439453 63.11132812 C-63.42728672 71.25538981 -65.10445665 79.18188516 -65.17700195 87.76123047 C-65.18357315 88.40940231 -65.19014435 89.05757416 -65.19691467 89.72538757 C-65.21650786 91.85598914 -65.2282851 93.98652033 -65.23828125 96.1171875 C-65.24235678 96.85296146 -65.2464323 97.58873543 -65.25063133 98.34680557 C-65.27144288 102.24910442 -65.28576005 106.15136873 -65.29516602 110.05371094 C-65.30615952 114.0385043 -65.34049039 118.02272832 -65.38033772 122.00732231 C-65.4067894 125.1099026 -65.41488324 128.21235372 -65.41844749 131.31503677 C-65.42324822 132.78112717 -65.43466978 134.24721447 -65.45348549 135.71319199 C-65.75997863 161.19715913 -56.02933941 185.11031258 -39 204 C-38.26394531 204.83015625 -37.52789062 205.6603125 -36.76953125 206.515625 C-20.96750265 223.34994692 0.74042009 233.86317387 23 239 C23.44045754 242.83198058 23.83336506 246.43892443 21.97167969 249.92626953 C20.52230147 251.73977977 18.99873111 253.40346002 17.375 255.0625 C16.26894773 256.2625878 15.16476359 257.46440017 14.0625 258.66796875 C13.26585938 259.52140869 13.26585938 259.52140869 12.453125 260.39208984 C10.59881488 262.44391888 8.97584343 264.62181287 7.375 266.875 C6.59125 267.90625 5.8075 268.9375 5 270 C4.34 270 3.68 270 3 270 C2.97494385 268.97527588 2.9498877 267.95055176 2.92407227 266.89477539 C2.83015516 263.10590324 2.72989683 259.31722119 2.62768555 255.52856445 C2.58427703 253.88635697 2.54260642 252.24410261 2.50268555 250.60180664 C2.4451256 248.24611255 2.38139108 245.89065572 2.31640625 243.53515625 C2.29969376 242.79660904 2.28298126 242.05806183 2.26576233 241.2971344 C2.46451987 237.85699373 2.46451987 237.85699373 1 235 C-1.2447373 234.55585412 -3.4961946 234.14556585 -5.75 233.75 C-24.8315909 230.10752219 -40.8719779 221.04276901 -55 208 C-55.67546875 207.40574219 -56.3509375 206.81148437 -57.046875 206.19921875 C-73.29537049 191.18054058 -83.64782668 166.88302648 -84.53051758 144.99169922 C-84.78964734 136.67624557 -84.69525702 128.35856874 -84.58685303 120.0413208 C-84.55431458 116.89634485 -84.55545152 113.75176179 -84.55726719 110.60664654 C-84.55644229 107.52201278 -84.53984786 104.43761984 -84.51826286 101.3530674 C-84.50889305 99.90657161 -84.50284672 98.46004937 -84.50058174 97.01352501 C-84.40762397 68.72650953 -74.74168515 45.62937853 -55.3125 24.9375 C-44.3120528 14.32153445 -16.34994228 -5.44998076 0 0 Z " fill="#31809F" transform="translate(97,33)"/>
<path d="M0 0 C6.27 0 12.54 0 19 0 C18.67 2.64 18.34 5.28 18 8 C17.9077082 10.08328392 17.85285876 12.16862595 17.83886719 14.25390625 C17.82925964 15.4229248 17.8196521 16.59194336 17.80975342 17.79638672 C17.80550354 19.0392041 17.80125366 20.28202148 17.796875 21.5625 C17.78832489 23.51953857 17.78832489 23.51953857 17.77960205 25.51611328 C17.76914488 28.27295311 17.76326893 31.02976427 17.75976562 33.78662109 C17.75539469 36.58135127 17.74154732 39.37577034 17.71875 42.17041016 C17.42173474 63.77562763 17.42173474 63.77562763 21 85 C21.19352051 85.81098145 21.38704102 86.62196289 21.58642578 87.45751953 C25.69051385 103.88545437 34.09961144 117.24984854 45 130 C45.58265625 130.68578125 46.1653125 131.3715625 46.765625 132.078125 C55.55825373 141.58126918 67.54605447 148.25400075 79 154 C79 154.66 79 155.32 79 156 C73.47360336 155.46696618 68.5733701 154.43968524 63.375 152.4375 C62.68768799 152.17428955 62.00037598 151.9110791 61.29223633 151.63989258 C36.0136428 141.60805906 17.24383997 122.58522927 6 98 C0.3183813 84.29808178 -1.3111578 70.85241602 -1.23046875 56.07421875 C-1.22927261 54.67324364 -1.2288247 53.27226771 -1.2290802 51.87129211 C-1.2275297 48.95930844 -1.21934792 46.0474502 -1.20581055 43.13549805 C-1.18874339 39.41925325 -1.18499939 35.70314447 -1.18575573 31.98686504 C-1.18548293 29.103406 -1.17998537 26.21997616 -1.17275429 23.33652687 C-1.16959388 21.96630892 -1.16760643 20.59608771 -1.16686058 19.22586632 C-1.16467332 17.31031462 -1.15510274 15.39477573 -1.14526367 13.47924805 C-1.14145187 12.39403366 -1.13764008 11.30881927 -1.13371277 10.1907196 C-0.99060677 6.77585412 -0.48335878 3.38351148 0 0 Z " fill="#969696" transform="translate(158,278)"/>
<path d="M0 0 C1.33129676 -0.00782324 1.33129676 -0.00782324 2.68948841 -0.01580453 C4.16115483 -0.00911236 4.16115483 -0.00911236 5.66255188 -0.002285 C6.7000719 -0.00540498 7.73759192 -0.00852497 8.80655193 -0.01173949 C12.3058905 -0.0197585 15.80505753 -0.01338067 19.30439758 -0.00710678 C21.80387982 -0.00981491 24.30336127 -0.01337483 26.80284119 -0.0177269 C32.90067717 -0.02592303 38.99844506 -0.02469141 45.09627843 -0.01890162 C50.05045174 -0.01439175 55.00461124 -0.01376929 59.95878601 -0.01594925 C60.66287934 -0.01625572 61.36697267 -0.01656218 62.09240216 -0.01687793 C63.52258563 -0.01751736 64.9527691 -0.01816579 66.38295257 -0.01882312 C79.80566308 -0.02453135 93.22834632 -0.01796079 106.65105236 -0.00722238 C118.17776704 0.00171358 129.70444144 0.00016167 141.2311554 -0.00905991 C154.60460098 -0.01975384 167.97802264 -0.02398199 181.3514719 -0.01783538 C182.77650515 -0.01719825 184.2015384 -0.01656951 185.62657166 -0.01594925 C186.67839057 -0.01548642 186.67839057 -0.01548642 187.75145835 -0.01501425 C192.70183967 -0.01328467 197.65220586 -0.01620805 202.60258484 -0.02090836 C209.26077371 -0.027091 215.91889804 -0.022713 222.57708359 -0.01111984 C225.02733101 -0.00846506 227.47758482 -0.00925218 229.92782974 -0.01364517 C233.25957658 -0.01906988 236.59107499 -0.01230403 239.92280579 -0.002285 C240.90391673 -0.00674645 241.88502768 -0.01120789 242.89586926 -0.01580453 C243.78340043 -0.01058903 244.67093161 -0.00537354 245.58535767 0 C246.73997985 0.00048706 246.73997985 0.00048706 247.91792774 0.00098395 C249.79267883 0.25168228 249.79267883 0.25168228 251.79267883 2.25168228 C252.10517883 5.25168228 252.10517883 5.25168228 251.79267883 8.25168228 C248.68243505 10.32517813 248.02026351 10.50215334 244.49633789 10.50615788 C243.61439916 10.51199007 242.73246042 10.51782226 241.82379627 10.52383119 C240.85406219 10.52005186 239.8843281 10.51627254 238.88520813 10.51237869 C237.85570636 10.51620424 236.82620459 10.52002979 235.76550579 10.52397126 C232.29925183 10.53432966 228.83316264 10.53030372 225.36689758 10.52634048 C222.88859401 10.53068535 220.41029179 10.53586774 217.93199158 10.54182816 C211.88944055 10.55385711 205.84695483 10.55636676 199.80439782 10.55402789 C194.89459249 10.55224666 189.98480066 10.55399018 185.07499695 10.55825233 C184.02781936 10.55914512 184.02781936 10.55914512 182.95948666 10.56005594 C181.54138446 10.56126765 180.12328225 10.56248179 178.70518005 10.56369831 C165.39975311 10.57458025 152.09435151 10.57240814 138.78892314 10.56631347 C126.60817281 10.56114247 114.4275024 10.5724034 102.24676788 10.59141169 C89.74758367 10.61076783 77.24843732 10.61905008 64.74923801 10.61528844 C57.72864718 10.61337316 50.70812441 10.61589564 43.68754578 10.63000298 C37.08841726 10.64312897 30.48942281 10.64068709 23.89028549 10.62759209 C21.46303123 10.62521539 19.03576584 10.62799978 16.60852432 10.63621521 C13.3055432 10.64659195 10.00311023 10.63865521 6.70014954 10.62590408 C5.73041545 10.63327837 4.76068136 10.64065265 3.76156139 10.6482504 C2.43865329 10.63744059 2.43865329 10.63744059 1.08901978 10.62641239 C0.32626897 10.62646741 -0.43648184 10.62652242 -1.22234631 10.62657911 C-3.76179996 10.14695937 -4.65378545 9.28422188 -6.20732117 7.25168228 C-6.51982117 4.68918228 -6.51982117 4.68918228 -6.20732117 2.25168228 C-3.80215006 -0.15348883 -3.28027865 0.00138373 0 0 Z " fill="#010101" transform="translate(207.2073211669922,373.74831771850586)"/>
<path d="M0 0 C1.33129676 -0.00782324 1.33129676 -0.00782324 2.68948841 -0.01580453 C4.16115483 -0.00911236 4.16115483 -0.00911236 5.66255188 -0.002285 C6.7000719 -0.00540498 7.73759192 -0.00852497 8.80655193 -0.01173949 C12.3058905 -0.0197585 15.80505753 -0.01338067 19.30439758 -0.00710678 C21.80387982 -0.00981491 24.30336127 -0.01337483 26.80284119 -0.0177269 C32.90067717 -0.02592303 38.99844506 -0.02469141 45.09627843 -0.01890162 C50.05045174 -0.01439175 55.00461124 -0.01376929 59.95878601 -0.01594925 C60.66287934 -0.01625572 61.36697267 -0.01656218 62.09240216 -0.01687793 C63.52258563 -0.01751736 64.9527691 -0.01816579 66.38295257 -0.01882312 C79.80566308 -0.02453135 93.22834632 -0.01796079 106.65105236 -0.00722238 C118.17776704 0.00171358 129.70444144 0.00016167 141.2311554 -0.00905991 C154.60460098 -0.01975384 167.97802264 -0.02398199 181.3514719 -0.01783538 C182.77650515 -0.01719825 184.2015384 -0.01656951 185.62657166 -0.01594925 C186.67839057 -0.01548642 186.67839057 -0.01548642 187.75145835 -0.01501425 C192.70183967 -0.01328467 197.65220586 -0.01620805 202.60258484 -0.02090836 C209.26077371 -0.027091 215.91889804 -0.022713 222.57708359 -0.01111984 C225.02733101 -0.00846506 227.47758482 -0.00925218 229.92782974 -0.01364517 C233.25957658 -0.01906988 236.59107499 -0.01230403 239.92280579 -0.002285 C240.90391673 -0.00674645 241.88502768 -0.01120789 242.89586926 -0.01580453 C243.78340043 -0.01058903 244.67093161 -0.00537354 245.58535767 0 C246.73997985 0.00048706 246.73997985 0.00048706 247.91792774 0.00098395 C249.79267883 0.25168228 249.79267883 0.25168228 251.79267883 2.25168228 C251.54267883 5.81418228 251.54267883 5.81418228 250.79267883 9.25168228 C248.48654447 10.40474946 247.18492896 10.37891949 244.61938572 10.38311005 C243.29946419 10.38887176 243.29946419 10.38887176 241.95287758 10.39474988 C240.98023065 10.3938834 240.00758372 10.39301692 239.00546265 10.39212418 C237.46249163 10.39658086 237.46249163 10.39658086 235.88834947 10.40112758 C232.41903255 10.40984443 228.94975 10.41132533 225.48042297 10.41281509 C223.00226772 10.41744109 220.52411318 10.42246545 218.04595947 10.42786026 C211.29815647 10.44100577 204.550367 10.44746956 197.80255437 10.45187092 C193.59165969 10.45463137 189.38076731 10.45886832 185.16987419 10.46337509 C173.51781515 10.47556824 161.86575795 10.48586795 150.21369267 10.48925018 C149.46767956 10.48946975 148.72166645 10.48968932 147.95304688 10.48991553 C147.20522257 10.49013381 146.45739825 10.49035209 145.6869126 10.49057698 C144.17146814 10.49102045 142.65602368 10.49146702 141.14057922 10.49191666 C140.38886224 10.49213809 139.63714525 10.49235952 138.86264896 10.49258766 C126.67537283 10.49653777 114.48815643 10.51399806 102.30090339 10.53727618 C89.79723598 10.56096652 77.29359857 10.57345095 64.78990835 10.5746181 C57.76594284 10.57553609 50.74205516 10.58131957 43.71811104 10.59943771 C37.11490116 10.61641027 30.51181331 10.61810873 23.90857887 10.60929871 C21.47970942 10.60852454 19.05083223 10.61292055 16.62198257 10.62275696 C13.31676838 10.63536169 10.01208816 10.62966236 6.70687866 10.61917496 C5.25125435 10.63125956 5.25125435 10.63125956 3.76622349 10.6435883 C2.88366806 10.63699846 2.00111262 10.63040862 1.09181309 10.62361908 C0.32852021 10.62421617 -0.43477267 10.62481326 -1.22119564 10.62542844 C-3.76210873 10.14728318 -4.65336218 9.28527631 -6.20732117 7.25168228 C-6.51982117 4.68918228 -6.51982117 4.68918228 -6.20732117 2.25168228 C-3.80215006 -0.15348883 -3.28027865 0.00138373 0 0 Z " fill="#050505" transform="translate(207.2073211669922,332.74831771850586)"/>
<path d="M0 0 C1.33129676 -0.00782324 1.33129676 -0.00782324 2.68948841 -0.01580453 C4.16115483 -0.00911236 4.16115483 -0.00911236 5.66255188 -0.002285 C6.7000719 -0.00540498 7.73759192 -0.00852497 8.80655193 -0.01173949 C12.3058905 -0.0197585 15.80505753 -0.01338067 19.30439758 -0.00710678 C21.80387982 -0.00981491 24.30336127 -0.01337483 26.80284119 -0.0177269 C32.90067717 -0.02592303 38.99844506 -0.02469141 45.09627843 -0.01890162 C50.05045174 -0.01439175 55.00461124 -0.01376929 59.95878601 -0.01594925 C60.66287934 -0.01625572 61.36697267 -0.01656218 62.09240216 -0.01687793 C63.52258563 -0.01751736 64.9527691 -0.01816579 66.38295257 -0.01882312 C79.80566308 -0.02453135 93.22834632 -0.01796079 106.65105236 -0.00722238 C118.17776704 0.00171358 129.70444144 0.00016167 141.2311554 -0.00905991 C154.60460098 -0.01975384 167.97802264 -0.02398199 181.3514719 -0.01783538 C182.77650515 -0.01719825 184.2015384 -0.01656951 185.62657166 -0.01594925 C186.67839057 -0.01548642 186.67839057 -0.01548642 187.75145835 -0.01501425 C192.70183967 -0.01328467 197.65220586 -0.01620805 202.60258484 -0.02090836 C209.26077371 -0.027091 215.91889804 -0.022713 222.57708359 -0.01111984 C225.02733101 -0.00846506 227.47758482 -0.00925218 229.92782974 -0.01364517 C233.25957658 -0.01906988 236.59107499 -0.01230403 239.92280579 -0.002285 C240.90391673 -0.00674645 241.88502768 -0.01120789 242.89586926 -0.01580453 C243.78340043 -0.01058903 244.67093161 -0.00537354 245.58535767 0 C246.73997985 0.00048706 246.73997985 0.00048706 247.91792774 0.00098395 C249.79267883 0.25168228 249.79267883 0.25168228 251.79267883 2.25168228 C252.15319848 5.06373556 252.29455077 6.59513749 250.54166889 8.88824332 C248.35920901 10.58959709 247.24227256 10.62745228 244.49633789 10.6292057 C243.61439916 10.63702895 242.73246042 10.64485219 241.82379627 10.6529125 C240.85406219 10.64622033 239.8843281 10.63952817 238.88520813 10.63263321 C237.85570636 10.63731318 236.82620459 10.64199315 235.76550579 10.64681494 C232.29917387 10.65882701 228.83323278 10.64928332 225.36689758 10.63986588 C222.88859322 10.64392881 220.41029067 10.64926911 217.93199158 10.65579605 C211.88940678 10.66808294 205.84697666 10.66624672 199.80439782 10.65755813 C194.89458819 10.65078991 189.9848099 10.64986112 185.07499695 10.65312958 C184.02781936 10.65381913 184.02781936 10.65381913 182.95948666 10.65452261 C181.54138445 10.65548176 180.12328224 10.6564544 178.70518005 10.65744038 C165.39973704 10.66600019 152.09435599 10.6561509 138.78892314 10.64003928 C127.36599036 10.62663555 115.94314903 10.62896348 104.5202179 10.64279556 C91.26320927 10.65884097 78.00625499 10.66517616 64.74923801 10.65595877 C63.33627892 10.6550031 61.92331982 10.65405999 60.51036072 10.65312958 C59.81511203 10.65266675 59.11986334 10.65220392 58.40354651 10.65172707 C53.49819969 10.64913406 48.59288727 10.65351487 43.68754578 10.66056824 C37.0884077 10.66984829 30.48941604 10.66326517 23.89028549 10.64588547 C21.4630347 10.64190623 19.03576942 10.64307905 16.60852432 10.64967346 C13.30553333 10.65782224 10.00310433 10.64764798 6.70014954 10.63263321 C5.73041545 10.63932537 4.76068136 10.64601754 3.76156139 10.6529125 C2.87962266 10.64508926 1.99768393 10.63726601 1.08901978 10.6292057 C0.32626897 10.62871865 -0.43648184 10.62823159 -1.22234631 10.62772977 C-3.7611755 10.14675625 -4.65385616 9.28391257 -6.20732117 7.25168228 C-6.51982117 4.68918228 -6.51982117 4.68918228 -6.20732117 2.25168228 C-3.80215006 -0.15348883 -3.28027865 0.00138373 0 0 Z " fill="#080807" transform="translate(207.2073211669922,291.74831771850586)"/>
<path d="M0 0 C0.9169313 -0.00845947 1.83386261 -0.01691895 2.77857971 -0.02563477 C4.28417702 -0.01652573 4.28417702 -0.01652573 5.82019043 -0.00723267 C6.87894882 -0.01248962 7.93770721 -0.01774658 9.02854919 -0.02316284 C12.53671924 -0.03639266 16.04443745 -0.02761394 19.5526123 -0.01748657 C21.98494555 -0.01950644 24.41727821 -0.02241715 26.84960938 -0.02618408 C31.95070148 -0.03061149 37.05163614 -0.02416282 42.15270996 -0.01016235 C48.70023378 0.00692956 55.24738871 -0.00290937 61.79489899 -0.02087975 C66.8185302 -0.03170622 71.84207357 -0.02827643 76.8657074 -0.02049637 C79.28030948 -0.01849122 81.69491947 -0.0209646 84.10951233 -0.02793503 C87.48073538 -0.03553063 90.85135613 -0.02397127 94.22253418 -0.00723267 C95.22626572 -0.01330536 96.22999725 -0.01937805 97.2641449 -0.02563477 C98.1810762 -0.01717529 99.09800751 -0.00871582 100.04272461 0 C100.83986626 0.00113108 101.6370079 0.00226215 102.45830536 0.00342751 C105.05278835 0.47819777 105.94415234 1.29896611 107.5213623 3.38095093 C107.8338623 5.94345093 107.8338623 5.94345093 107.5213623 8.38095093 C105.07281149 10.82950174 104.44027093 10.63180614 101.08032227 10.63491821 C100.14649216 10.64055786 99.21266205 10.64619751 98.25053406 10.65200806 C97.22293472 10.64795959 96.19533539 10.64391113 95.13659668 10.63973999 C94.05687088 10.64324463 92.97714508 10.64674927 91.86470032 10.65036011 C88.28143968 10.65919131 84.69837509 10.6533233 81.1151123 10.64657593 C78.6341142 10.64792218 76.15311634 10.64986237 73.67211914 10.65237427 C67.79903202 10.65570622 61.92601652 10.64868773 56.05293989 10.63807273 C51.36416235 10.63056319 46.67546876 10.63321862 41.98669434 10.64169312 C35.53291888 10.65325898 29.07922478 10.65511662 22.6254425 10.64858246 C20.15977459 10.64724453 17.69410324 10.64889866 15.22843933 10.65354156 C11.78757459 10.65859826 8.34697298 10.65090849 4.90612793 10.63973999 C3.36472893 10.64581268 3.36472893 10.64581268 1.79219055 10.65200806 C0.85836044 10.64636841 -0.07546967 10.64072876 -1.03759766 10.63491821 C-1.8517086 10.63416416 -2.66581955 10.63341011 -3.50460052 10.63263321 C-5.4786377 10.38095093 -5.4786377 10.38095093 -7.4786377 8.38095093 C-7.83826818 5.57583316 -7.97725432 4.03914626 -6.2390213 1.74460411 C-4.00663151 0.01531884 -2.80477932 0.00397975 0 0 Z " fill="#080808" transform="translate(351.4786376953125,249.61904907226563)"/>
</svg>
