<?xml version="1.0" encoding="UTF-8"?>
<svg version="1.1" xmlns="http://www.w3.org/2000/svg" width="512" height="512">
<path d="M0 0 C14.45790495 14.0354337 23.96107653 31.02010682 29.40625 50.3359375 C30.24357666 50.35052002 31.08090332 50.36510254 31.94360352 50.38012695 C56.39755183 50.85055503 80.95387934 51.6556662 105.03125 56.3359375 C105.82442627 56.48973877 106.61760254 56.64354004 107.43481445 56.80200195 C111.58985717 57.69319239 115.12301783 58.5860824 118.40625 61.3359375 C118.83035156 62.47804688 119.25445312 63.62015625 119.69140625 64.796875 C121.76678892 69.080011 123.19932717 69.70195097 127.51757812 71.23046875 C128.28521484 71.47152344 129.05285156 71.71257812 129.84375 71.9609375 C130.60751953 72.24066406 131.37128906 72.52039063 132.15820312 72.80859375 C134.2676555 73.51725225 136.19370739 74.09393152 138.40625 74.3359375 C140.5422638 73.02950287 140.5422638 73.02950287 142.40625 71.3359375 C151.54041534 70.21965877 159.06788115 76.21792557 166.18359375 81.33203125 C168.65258393 83.27055908 171.03528378 85.27900654 173.40625 87.3359375 C174.22609375 88.01140625 175.0459375 88.686875 175.890625 89.3828125 C197.39236086 107.67932066 207.94385072 133.84861883 211.40625 161.3359375 C211.51826868 163.99824805 211.59316578 166.6346831 211.609375 169.296875 C211.61507507 170.04570953 211.62077515 170.79454407 211.62664795 171.56607056 C211.63604745 173.14771131 211.6426117 174.72937121 211.64648438 176.31103516 C211.6560833 178.66997014 211.68710914 181.02799153 211.71875 183.38671875 C211.94552551 215.85939909 200.72077503 243.80501919 178.40625 267.3359375 C177.63796875 267.88378906 176.8696875 268.43164062 176.078125 268.99609375 C173.70276254 272.32049121 174.24686507 274.64906189 174.82373047 278.59326172 C175.80022793 283.19090315 177.30073886 287.51071472 178.96875 291.8984375 C179.3201001 292.85008789 179.6714502 293.80173828 180.03344727 294.78222656 C182.33321364 300.88429378 184.95374431 306.74425322 187.84375 312.5859375 C191.62150601 320.30371195 193.65871074 326.49627611 191.40625 334.9609375 C188.6838609 341.85847043 184.33852164 346.81871757 177.53125 349.8359375 C172.63356612 351.49542259 168.52490827 351.84548719 163.40625 351.3359375 C161.73755859 351.17738281 161.73755859 351.17738281 160.03515625 351.015625 C126.2608157 347.14967551 99.03083854 330.96052604 75.40625 307.3359375 C73.50828262 307.04490041 73.50828262 307.04490041 71.32373047 307.10888672 C70.48300995 307.10903778 69.64228943 307.10918884 68.77609253 307.10934448 C67.41352829 307.12482834 67.41352829 307.12482834 66.0234375 307.140625 C65.09403351 307.1434549 64.16462952 307.14628479 63.20706177 307.14920044 C60.2316615 307.16041681 57.25655965 307.1855239 54.28125 307.2109375 C52.26693142 307.22096542 50.25260814 307.2300916 48.23828125 307.23828125 C43.29415544 307.26036089 38.35025335 307.29490057 33.40625 307.3359375 C33.28725342 308.52364746 33.16825684 309.71135742 33.0456543 310.93505859 C31.34275885 327.40880846 31.34275885 327.40880846 29.21875 334.9609375 C29.00516846 335.73961182 28.79158691 336.51828613 28.5715332 337.32055664 C23.55491305 354.81737538 15.01540019 369.16057331 2.40625 382.3359375 C1.73207031 383.08488281 1.05789063 383.83382813 0.36328125 384.60546875 C-24.46085047 411.199426 -64.97714077 420.45821196 -99.59375 424.3359375 C-100.79820518 424.47488434 -100.79820518 424.47488434 -102.0269928 424.61663818 C-109.11027495 425.35470066 -116.01896465 425.31966146 -123.12890625 425.08203125 C-125.50840541 425.03044793 -127.88796755 424.98170517 -130.26757812 424.93554688 C-133.97091003 424.86155398 -137.67071751 424.77290427 -141.37231445 424.63647461 C-155.3735476 423.36060018 -155.3735476 423.36060018 -168.26831055 427.40649414 C-170.74787812 429.91082702 -172.65014868 432.40639871 -174.59375 435.3359375 C-176.38452148 437.04516602 -176.38452148 437.04516602 -178.10546875 438.40234375 C-178.62737793 438.82032227 -179.14928711 439.23830078 -179.68701172 439.66894531 C-180.21311035 440.07467773 -180.73920898 440.48041016 -181.28125 440.8984375 C-181.86664551 441.35186523 -182.45204102 441.80529297 -183.05517578 442.27246094 C-203.19216583 457.55027287 -227.2554083 467.63320094 -252.59375 469.3359375 C-253.36847656 469.39007813 -254.14320313 469.44421875 -254.94140625 469.5 C-262.99345429 469.80385087 -269.27768086 467.49883177 -275.23828125 462.015625 C-277.50351328 459.20856513 -277.72437977 456.8629414 -277.59375 453.3359375 C-276.60814389 451.99192917 -275.60616685 450.65986722 -274.59375 449.3359375 C-274.23904027 447.08655872 -274.08553898 444.8522308 -273.9140625 442.58203125 C-273.47354232 439.49301781 -272.00396047 437.09225796 -270.59375 434.3359375 C-270.86221389 431.91976249 -271.51154745 430.5003426 -272.59375 428.3359375 C-273.38468962 420.77695762 -270.28515069 414.59990917 -267.52539062 407.69335938 C-265.24518123 401.77303193 -262.95051899 395.77917447 -263.59375 389.3359375 C-265.44837707 386.30468906 -265.44837707 386.30468906 -268.40625 384.0859375 C-269.43742371 383.16615243 -270.46065392 382.2373994 -271.4765625 381.30078125 C-271.99895508 380.82108887 -272.52134766 380.34139648 -273.05957031 379.84716797 C-291.68282339 361.50249315 -300.5553387 331.88928685 -300.9921875 306.3984375 C-301.00723605 304.13394516 -301.00387188 301.87090579 -300.98486328 299.60644531 C-300.96875029 297.33597816 -300.98484767 295.0672898 -301.00390625 292.796875 C-301.02588157 278.67130943 -299.0348856 265.04570644 -294.40625 251.6484375 C-294.10654297 250.76833008 -293.80683594 249.88822266 -293.49804688 248.98144531 C-289.44805951 237.55380055 -283.48922045 227.55851894 -275.59375 218.3359375 C-274.90539062 217.51480469 -274.21703125 216.69367188 -273.5078125 215.84765625 C-265.1447372 206.17876744 -255.24992901 199.22034181 -244.59375 192.3359375 C-245.26019531 191.93503906 -245.92664063 191.53414062 -246.61328125 191.12109375 C-271.62652632 175.69334399 -289.60828454 153.44742854 -297.0078125 124.82641602 C-299.74477999 113.19316377 -301.08164611 102.2122811 -300.98486328 90.25463867 C-300.96878046 87.90289143 -300.98482059 85.55286772 -301.00390625 83.20117188 C-301.02383742 69.54342995 -299.42686546 56.09215197 -294.84375 43.1484375 C-294.58698486 42.40706543 -294.33021973 41.66569336 -294.06567383 40.90185547 C-289.73337308 28.77141337 -283.76058433 18.33031518 -275.59375 8.3359375 C-274.98015625 7.55734375 -274.3665625 6.77875 -273.734375 5.9765625 C-248.66117771 -24.23985474 -204.8204188 -35.71412664 -167.453125 -39.328125 C-166.17953125 -39.43898437 -164.9059375 -39.54984375 -163.59375 -39.6640625 C-162.40265625 -39.77492187 -161.2115625 -39.88578125 -159.984375 -40 C-105.56788647 -44.24770058 -41.88139607 -38.83306661 0 0 Z " fill="#010202" transform="translate(300.59375,41.6640625)"/>
<path d="M0 0 C3.24221591 0.0107052 6.48387514 0.00004802 9.72607422 -0.01269531 C22.7262165 -0.02171461 35.48202339 0.6067081 48.37841797 2.26074219 C49.44366699 2.39609375 50.50891602 2.53144531 51.60644531 2.67089844 C78.86253414 6.50463506 105.39679043 16.1087746 126.37841797 34.26074219 C127.12220703 34.90398437 127.86599609 35.54722656 128.63232422 36.20996094 C145.10175838 51.58358148 155.62180214 75.41782907 156.52368164 97.87841797 C156.54403897 101.31026938 156.56410118 104.74191645 156.5637207 108.17382812 C156.56589165 110.35925239 156.58404373 112.54415793 156.60302734 114.72949219 C156.65084802 126.33855879 155.55444002 137.53051504 152.19091797 148.69824219 C151.97661133 149.41069092 151.76230469 150.12313965 151.54150391 150.85717773 C143.93350162 175.01823449 126.98359909 193.41565008 104.93432617 205.32739258 C85.91546358 215.13621045 65.49361321 220.37462275 44.37841797 223.26074219 C43.3492778 223.40346558 43.3492778 223.40346558 42.29934692 223.54907227 C31.74528031 224.95866733 21.35572356 225.38823177 10.71044922 225.24511719 C9.52761856 225.22953766 8.3447879 225.21395813 7.12611389 225.19790649 C2.235908 225.1244192 -2.65345582 225.03945715 -7.54272461 224.91796875 C-11.16677849 224.83315097 -14.78977535 224.78644596 -18.41455078 224.74511719 C-19.50841599 224.70787537 -20.60228119 224.67063354 -21.72929382 224.63226318 C-29.27066162 224.58196907 -33.93468722 226.25336935 -39.62158203 231.26074219 C-41.84895151 233.77602764 -41.84895151 233.77602764 -43.62158203 236.26074219 C-47.14245974 239.44415558 -50.87458316 242.34864508 -54.62158203 245.26074219 C-55.40662109 245.87304688 -56.19166016 246.48535156 -57.00048828 247.11621094 C-74.62625689 260.14913967 -100.36453564 271.22834837 -122.62158203 268.26074219 C-125.43408203 266.26074219 -125.43408203 266.26074219 -127.62158203 264.26074219 C-131.33098978 263.9260833 -131.33098978 263.9260833 -134.62158203 264.26074219 C-135.09133024 258.62376374 -134.85403933 253.87481883 -132.09814453 248.83886719 C-129.72910277 246.30687547 -127.09794698 246.14857304 -123.74267578 245.90527344 C-121.46388914 245.43104189 -121.46388914 245.43104189 -120.09814453 243.35839844 C-118.00020888 238.95717364 -116.26756813 234.45015774 -114.55908203 229.88574219 C-114.2078125 228.96535156 -113.85654297 228.04496094 -113.49462891 227.09667969 C-108.07520684 213.41814155 -108.07520684 213.41814155 -109.39111328 199.12792969 C-111.76304977 194.98751759 -114.96206306 191.87654562 -118.37158203 188.57324219 C-137.96392919 169.50491026 -146.36201145 143.06282787 -146.90478516 116.28393555 C-147.14136288 89.85228956 -141.98604188 62.3922291 -123.62158203 42.26074219 C-122.74759766 41.29394531 -121.87361328 40.32714844 -120.97314453 39.33105469 C-90.44200734 6.65939659 -42.53230802 -0.16651709 0 0 Z " fill="#FAF0CE" transform="translate(161.62158203125,226.7392578125)"/>
<path d="M0 0 C3.39963588 0.03688041 6.79818096 0.04101432 10.19799805 0.04052734 C26.32567354 0.09207093 42.1797435 1.03676355 58.06323242 3.97412109 C60.85148805 4.47662557 63.64127166 4.95995606 66.43823242 5.41162109 C67.23511475 5.54286377 68.03199707 5.67410645 68.85302734 5.80932617 C69.65071533 5.92300537 70.44840332 6.03668457 71.27026367 6.15380859 C71.9944751 6.26192871 72.71868652 6.37004883 73.46484375 6.48144531 C75.83267841 6.59350148 75.83267841 6.59350148 78.50073242 3.97412109 C79.45979492 2.70568359 79.45979492 2.70568359 80.43823242 1.41162109 C87.44720932 3.14093876 93.94111434 5.25129452 100.43823242 8.41162109 C100.28354492 9.74193359 100.28354492 9.74193359 100.12573242 11.09912109 C100.54505683 15.54395984 102.12844137 16.48990528 105.43823242 19.41162109 C107.65060995 20.89194207 109.84845173 22.29343886 112.12573242 23.66162109 C118.5313702 27.64815306 124.01473288 32.14930947 129.43823242 37.41162109 C130.48237305 38.34554687 130.48237305 38.34554687 131.54760742 39.29833984 C137.53270484 44.83107525 141.45694196 51.34804124 145.43823242 58.41162109 C145.92420898 59.25853516 146.41018555 60.10544922 146.91088867 60.97802734 C150.57447517 67.77862981 152.54673705 74.95072268 154.43823242 82.41162109 C154.65479492 83.26240234 154.87135742 84.11318359 155.09448242 84.98974609 C161.80469492 113.21211041 157.71418811 145.33084365 143.63354492 170.65771484 C139.25269383 177.647081 133.86035881 183.5741006 128.17260742 189.50146484 C122.01300759 196.05703895 118.944385 200.26094851 119.1262207 209.32568359 C119.68035453 214.80631866 121.48663775 219.76425367 123.37573242 224.91162109 C123.77526123 226.03858398 124.17479004 227.16554688 124.58642578 228.32666016 C127.47265443 236.27802 130.78100003 243.94810501 134.69384766 251.44873047 C136.81675776 255.59868039 138.08415509 258.62336826 137.43823242 263.41162109 C135.62573242 266.28662109 135.62573242 266.28662109 132.43823242 268.41162109 C112.1190694 271.67479794 88.31622872 261.26574331 71.75073242 250.16162109 C63.70468445 244.33203162 55.74826123 237.96109595 48.90698242 230.73974609 C42.91407951 225.08821107 37.40281025 224.99703371 29.57104492 225.11865234 C28.5363205 225.12289719 27.50159607 225.12714203 26.43551636 225.1315155 C23.14448562 225.14825114 19.85407676 225.1858946 16.56323242 225.22412109 C14.32626213 225.23917451 12.08928219 225.25286177 9.85229492 225.26513672 C4.38073009 225.29813787 -1.0904743 225.34828641 -6.56176758 225.41162109 C-6.61155258 224.79590744 -6.66133759 224.18019379 -6.71263123 223.54582214 C-6.94625975 220.70234012 -7.1895101 217.85975565 -7.43286133 215.01708984 C-7.51097046 214.04896362 -7.58907959 213.0808374 -7.66955566 212.08337402 C-9.28774983 193.47219145 -15.23571297 174.70210053 -26.68676758 159.72412109 C-28.84684476 156.82230047 -30.04551434 155.07496525 -29.74926758 151.41162109 C-26.97759419 139.82744771 -26.97759419 139.82744771 -23.56176758 136.41162109 C-21.72058728 136.31780807 -19.87579116 136.29418155 -18.03222656 136.2980957 C-16.85107773 136.29817123 -15.66992889 136.29824677 -14.45298767 136.29832458 C-13.16759598 136.30348587 -11.88220428 136.30864716 -10.55786133 136.31396484 C-8.59563377 136.31608727 -8.59563377 136.31608727 -6.59376526 136.31825256 C-3.11013899 136.322077 0.37344582 136.33190663 3.85705566 136.34295654 C7.4094995 136.35317227 10.96195002 136.35775053 14.5144043 136.36279297 C21.48903074 136.37352897 28.46362959 136.3906045 35.43823242 136.41162109 C35.73592529 137.1637085 36.03361816 137.9157959 36.34033203 138.69067383 C37.68279248 142.07788951 39.02920716 145.46351937 40.37573242 148.84912109 C41.07859375 150.62512695 41.07859375 150.62512695 41.7956543 152.43701172 C42.24360352 153.56171875 42.69155273 154.68642578 43.15307617 155.84521484 C43.56678467 156.88734131 43.98049316 157.92946777 44.40673828 159.00317383 C45.22225265 161.31951395 45.22225265 161.31951395 46.43823242 162.41162109 C51.85150928 163.03887271 51.85150928 163.03887271 56.50073242 160.84912109 C59.16097153 153.93249942 54.44652355 145.57131689 51.97729492 139.14208984 C51.51915405 137.93211838 51.06101318 136.72214691 50.58898926 135.47550964 C49.34620002 132.19363122 48.0946395 128.91516288 46.84140778 125.63726044 C45.53883707 122.22566356 44.24455954 118.81092386 42.94946289 115.39648438 C40.56492302 109.11333185 38.17348627 102.83283133 35.77908134 96.55343246 C33.08661274 89.49148694 30.40252623 82.42637124 27.71948242 75.36083984 C25.18757381 68.6934882 22.65523761 62.02631009 20.11645508 55.36157227 C19.73783325 54.36716629 19.35921143 53.37276031 18.96911621 52.34822083 C18.26691242 50.50426471 17.56422677 48.660492 16.86096191 46.81694031 C16.55404419 46.01077774 16.24712646 45.20461517 15.9309082 44.37402344 C15.66496857 43.67642914 15.39902893 42.97883484 15.12503052 42.26010132 C14.52905523 40.6560658 13.97935316 39.03498329 13.43823242 37.41162109 C10.90524266 36.2971056 8.17812486 36.25218771 5.43823242 36.09912109 C4.77823242 36.06173828 4.11823242 36.02435547 3.43823242 35.98583984 C0.43417693 36.62537509 -0.5824506 38.07344513 -2.56176758 40.41162109 C-3.74860819 42.95441359 -4.77639901 45.40933877 -5.74145508 48.03271484 C-6.03068344 48.79216904 -6.3199118 49.55162323 -6.61790466 50.33409119 C-7.56769607 52.83538489 -8.50214547 55.34212429 -9.43676758 57.84912109 C-10.10006202 59.60357311 -10.76438362 61.35763712 -11.4296875 63.11132812 C-13.14857991 67.64943315 -14.85513993 72.19206581 -16.5581665 76.73614502 C-19.02632931 83.31596114 -21.51251039 89.88900676 -23.99658203 96.46282959 C-24.58040626 98.0085834 -25.16374184 99.55452186 -25.74658203 101.10064697 C-30.83977488 114.61113615 -36.11360678 128.0397317 -41.56176758 141.41162109 C-42.0406543 141.04157959 -42.51954102 140.67153809 -43.01293945 140.2902832 C-73.41314882 117.10386989 -108.04069531 108.2392741 -145.56176758 104.41162109 C-146.99419767 82.3415871 -137.93132681 59.12620421 -123.56738281 42.55639648 C-92.56925611 8.43379016 -44.19691432 -0.49389194 0 0 Z " fill="#8CADE0" transform="translate(339.561767578125,108.58837890625)"/>
<path d="M0 0 C3.18955955 0.00315342 6.3781814 -0.02038602 9.56762695 -0.0456543 C51.28666537 -0.17255677 97.3801154 8.02354703 128.36645508 38.07348633 C137.43849816 47.6647126 150.52270508 64.31622837 150.52270508 78.31567383 C149.25716797 78.48788452 149.25716797 78.48788452 147.96606445 78.66357422 C106.68764087 84.39451108 66.35450068 95.3175191 38.53051758 128.70629883 C24.01731461 148.36934801 17.69262784 171.24347206 15.52270508 195.31567383 C14.33829834 195.34072998 13.1538916 195.36578613 11.93359375 195.39160156 C7.49226113 195.48657059 3.05105278 195.58656371 -1.39013672 195.68798828 C-3.30351837 195.73100191 -5.21693019 195.77269666 -7.13037109 195.81298828 C-32.43523892 196.34801681 -59.75508878 198.3102288 -83.22338867 208.71411133 C-88.81712571 210.20706714 -93.27476874 207.62234302 -98.03979492 204.87817383 C-119.17460138 192.56224812 -133.85170349 176.28849901 -142.47729492 153.31567383 C-142.78151367 152.56415039 -143.08573242 151.81262695 -143.39916992 151.03833008 C-150.79836882 131.37005137 -150.93447357 106.62913745 -146.47729492 86.31567383 C-146.23237305 85.13875977 -145.98745117 83.9618457 -145.73510742 82.74926758 C-139.88545159 57.92705544 -125.082469 36.89049501 -103.27661133 23.37866211 C-86.97373452 13.74735606 -69.89250515 8.30668355 -51.47729492 4.31567383 C-50.44604492 4.08879883 -49.41479492 3.86192383 -48.35229492 3.62817383 C-32.40685269 0.43908538 -16.204877 -0.03332051 0 0 Z " fill="#AFD986" transform="translate(163.477294921875,16.684326171875)"/>
<path d="M0 0 C-0.33773437 1.08796875 -0.67546875 2.1759375 -1.0234375 3.296875 C-15.88357505 51.93106209 -7.27193503 107.25070801 16 152 C21.68200325 162.3311232 28.4645534 171.94366395 36 181 C36.42361816 181.51014648 36.84723633 182.02029297 37.28369141 182.54589844 C47.85714089 195.0877035 66.10711185 213.03525363 83.125 214.5625 C84.03507813 214.64628906 84.94515625 214.73007812 85.8828125 214.81640625 C86.58148438 214.87699219 87.28015625 214.93757812 88 215 C88 215.33 88 215.66 88 216 C87.33094131 215.98667633 86.66188263 215.97335266 85.97254944 215.95962524 C78.98051261 215.82641818 71.98883883 215.73619557 64.99584961 215.67041016 C62.38958076 215.64032102 59.78341248 215.59943915 57.17749023 215.54736328 C53.42145924 215.47420782 49.66677211 215.44046252 45.91015625 215.4140625 C44.75354996 215.38309479 43.59694366 215.35212708 42.4052887 215.32022095 C34.67219476 215.31703635 29.81861009 216.81190277 24 222 C21.77263052 224.51528545 21.77263052 224.51528545 20 227 C16.47912229 230.1834134 12.74699887 233.08790289 9 236 C8.21496094 236.61230469 7.42992188 237.22460938 6.62109375 237.85546875 C-11.00467486 250.88839749 -36.74295361 261.96760619 -59 259 C-61.8125 257 -61.8125 257 -64 255 C-67.70940775 254.66534111 -67.70940775 254.66534111 -71 255 C-71.4697482 249.36302155 -71.2324573 244.61407664 -68.4765625 239.578125 C-66.10752074 237.04613328 -63.47636495 236.88783085 -60.12109375 236.64453125 C-57.84230711 236.1702997 -57.84230711 236.1702997 -56.4765625 234.09765625 C-54.37862685 229.69643145 -52.6459861 225.18941556 -50.9375 220.625 C-50.58623047 219.70460938 -50.23496094 218.78421875 -49.87304688 217.8359375 C-44.45362481 204.15739937 -44.45362481 204.15739937 -45.76953125 189.8671875 C-48.14146774 185.7267754 -51.34048103 182.61580343 -54.75 179.3125 C-74.34234716 160.24416807 -82.74042942 133.80208568 -83.28320312 107.02319336 C-83.51978085 80.59154737 -78.36445985 53.13148691 -60 33 C-59.12601563 32.03320312 -58.25203125 31.06640625 -57.3515625 30.0703125 C-46.76192713 18.73824373 -16.57115708 -5.83273827 0 0 Z " fill="#F9DFBC" transform="translate(98,236)"/>
<path d="M0 0 C3.33423875 0.98792259 4.38176395 1.30103555 6.375 4 C6.71557617 6.4519043 6.71557617 6.4519043 6.66796875 9.32421875 C6.65830078 10.35224609 6.64863281 11.38027344 6.63867188 12.43945312 C6.61353516 13.51130859 6.58839844 14.58316406 6.5625 15.6875 C6.54219727 17.31268555 6.54219727 17.31268555 6.52148438 18.97070312 C6.48610643 21.64763405 6.43674189 24.32356838 6.375 27 C6.94240906 26.99333817 7.50981812 26.98667633 8.09442139 26.97981262 C13.99908788 26.91345104 19.90364846 26.86819606 25.80859375 26.83520508 C28.01241356 26.82011709 30.21620335 26.79964424 32.41992188 26.77368164 C35.58731497 26.73729942 38.75431111 26.72027368 41.921875 26.70703125 C43.40019806 26.68380547 43.40019806 26.68380547 44.90838623 26.66011047 C45.8290387 26.65988388 46.74969116 26.65965729 47.69824219 26.65942383 C48.91069611 26.64943108 48.91069611 26.64943108 50.14764404 26.63923645 C52.93419531 27.09057254 54.31453514 28.10414015 56.375 30 C57.06792993 32.70624604 56.86140192 35.25898213 56.375 38 C54.83161909 40.17476401 53.73834727 40.81832637 51.375 42 C48.49129667 42.07194869 45.63260336 42.09291708 42.75 42.0625 C41.54730469 42.05573242 41.54730469 42.05573242 40.3203125 42.04882812 C38.33850994 42.03703168 36.35674567 42.01909605 34.375 42 C34.38402344 42.77859375 34.39304687 43.5571875 34.40234375 44.359375 C33.86892458 64.49015082 24.04560559 85.6515839 11.61157227 101.26464844 C10.18145238 103.09230349 10.18145238 103.09230349 9.375 106 C10.5196875 106.37125 10.5196875 106.37125 11.6875 106.75 C15.68574075 108.10533585 19.65189583 109.53301415 23.61328125 110.9921875 C25.33327897 111.61985286 27.05908856 112.23208174 28.79296875 112.8203125 C34.16022099 114.67783149 34.16022099 114.67783149 36.375 118 C36.82685216 121.53950857 36.79609443 123.33326715 34.875 126.375 C31.2998559 128.69884366 28.44613718 128.63328801 24.375 128 C16.41049497 126.16836964 9.61148624 123.35307848 2.71484375 118.9765625 C0.47744299 117.76846866 0.47744299 117.76846866 -1.5625 118.48828125 C-4.45866463 120.61103828 -6.99240882 123.06666879 -9.5625 125.5625 C-26.24654921 141.40239436 -26.24654921 141.40239436 -35 142.375 C-38.625 142 -38.625 142 -41.125 139.875 C-43.00590646 136.26992928 -42.72779008 134.86468844 -41.625 131 C-39.65625 128.91015625 -39.65625 128.91015625 -37.125 127.0625 C-36.22007812 126.38445312 -35.31515625 125.70640625 -34.3828125 125.0078125 C-33.47273438 124.34523438 -32.56265625 123.68265625 -31.625 123 C-30.07860902 121.81865869 -28.53665105 120.63148322 -27 119.4375 C-26.27683594 118.87804687 -25.55367187 118.31859375 -24.80859375 117.7421875 C-21.30782551 114.94908797 -17.95901872 111.98880698 -14.625 109 C-15.17302978 105.14666559 -16.77127322 103.6715548 -19.625 101.125 C-23.53920787 97.33016605 -26.69498956 93.40352123 -29.6875 88.875 C-30.08130859 88.30152832 -30.47511719 87.72805664 -30.88085938 87.13720703 C-33.5411129 82.97669425 -34.19915619 79.88920628 -33.625 75 C-31.10174482 72.03146449 -29.62375581 71.10856041 -25.75 70.6875 C-20.83334236 72.75249621 -18.63144158 76.72941197 -15.625 81 C-11.8795619 85.97253025 -8.16787117 90.73245435 -3.625 95 C8.97938528 79.62646947 16.63207782 61.62921733 19.375 42 C18.4715535 42.01110306 17.56810699 42.02220612 16.63728333 42.03364563 C8.11827642 42.13387948 -0.40053212 42.20998112 -8.9199934 42.25906086 C-13.29986436 42.28514188 -17.67924762 42.3205118 -22.05883789 42.37719727 C-26.28638302 42.43157163 -30.51345943 42.46143179 -34.74132729 42.47438622 C-36.35330903 42.48361648 -37.96526545 42.50164159 -39.57704735 42.52865028 C-41.83732664 42.56501547 -44.09567585 42.56994264 -46.35620117 42.56762695 C-47.64193527 42.57873001 -48.92766937 42.58983307 -50.25236511 42.60127258 C-54.52770391 41.83906615 -56.02498735 40.42027517 -58.625 37 C-58.625 33.49337485 -58.49647866 31.15282044 -56.34770203 28.31034851 C-54.11747241 26.61395644 -52.84626175 26.63653757 -50.06176758 26.65942383 C-49.14103958 26.65965042 -48.22031158 26.65987701 -47.27168274 26.66011047 C-46.28097275 26.67559433 -45.29026276 26.69107819 -44.26953125 26.70703125 C-43.25275803 26.71127609 -42.2359848 26.71552094 -41.18840027 26.71989441 C-37.93783188 26.73670003 -34.6878813 26.77435618 -31.4375 26.8125 C-29.23503499 26.82754438 -27.03256027 26.84123321 -24.83007812 26.85351562 C-19.42817428 26.88660964 -14.02663128 26.93682777 -8.625 27 C-8.65118408 26.35973877 -8.67736816 25.71947754 -8.7043457 25.05981445 C-8.80861281 22.14429498 -8.87341753 19.22916802 -8.9375 16.3125 C-8.97939453 15.30509766 -9.02128906 14.29769531 -9.06445312 13.25976562 C-9.18776439 5.78710317 -9.18776439 5.78710317 -6.33203125 1.79296875 C-3.625 0 -3.625 0 0 0 Z " fill="#030302" transform="translate(167.625,261)"/>
<path d="M0 0 C0.33 1.32 0.66 2.64 1 4 C1.73573242 3.98187256 2.47146484 3.96374512 3.22949219 3.94506836 C10.4018912 3.84516627 17.18594677 4.34484879 24.25 5.5625 C25.27287109 5.73668457 26.29574219 5.91086914 27.34960938 6.09033203 C38.82963429 8.16438051 49.92093412 11.3833901 61 15 C61.75748535 15.24476074 62.5149707 15.48952148 63.29541016 15.74169922 C79.08832987 20.94722777 93.92020528 28.73739183 107 39 C108.485 39.99 108.485 39.99 110 41 C105.545 51.89 105.545 51.89 101 63 C98.36 61.02 95.72 59.04 93 57 C63.49704805 37.50697818 31.91604553 29.56190532 -3 26 C-3.58051881 17.05571013 -1.81374025 8.70163476 0 0 Z " fill="#6993D4" transform="translate(197,187)"/>
<path d="M0 0 C0.33 0.99 0.66 1.98 1 3 C2.45792884 3.05399736 3.91642712 3.09279177 5.375 3.125 C6.59316406 3.15980469 6.59316406 3.15980469 7.8359375 3.1953125 C10.21342243 3.21370051 10.21342243 3.21370051 12 1 C18.43452531 1 22.42459765 3.60646511 27 8 C31.29484513 12.8446683 32.71606153 17.14938555 32.359375 23.609375 C31.49243619 29.37640275 28.90213791 33.68746483 25 38 C22.125 39.765625 22.125 39.765625 19 41.25 C17.96875 41.75015625 16.9375 42.2503125 15.875 42.765625 C8.00739144 46.14356563 -1.24120871 46.3656894 -9.3125 43.4375 C-16.89658714 39.91059118 -22.37767986 35.0995143 -25.375 27.19140625 C-27.01197293 21.45176991 -26.20738637 17.09126796 -23.38671875 11.984375 C-18.69614158 5.27222513 -8.69436415 -3.36556032 0 0 Z " fill="#FDFEFD" transform="translate(58,87)"/>
<path d="M0 0 C2.67944317 0.05721231 4.00575701 0.29076274 6.1796875 1.890625 C26.23282837 23.88439241 37.52679099 59.17050041 36.375 88.5625 C37.365 88.8925 38.355 89.2225 39.375 89.5625 C30.795 89.5625 22.215 89.5625 13.375 89.5625 C13.148125 86.324375 12.92125 83.08625 12.6875 79.75 C10.97830633 59.82915529 5.57536688 39.99657988 -6.75 23.875 C-8.91007718 20.97317938 -10.10874677 19.22584416 -9.8125 15.5625 C-6.32373943 0.98126991 -6.32373943 0.98126991 0 0 Z " fill="#6893D3" transform="translate(319.625,244.4375)"/>
<path d="M0 0 C8.96664542 1.7189942 15.74264897 5.65046356 20.98046875 13.12890625 C23.29849077 17.08610099 23.1588149 20.51249777 23.07421875 24.99609375 C21.58535156 25.79660156 21.58535156 25.79660156 20.06640625 26.61328125 C5.18475472 34.52952493 5.18475472 34.52952493 -7.92578125 44.99609375 C-14.96987017 45.74546491 -21.39029528 43.72535675 -27.015625 39.3828125 C-31.95297467 34.675107 -34.99028082 30.18562151 -35.48828125 23.24609375 C-35.26642778 17.10814785 -32.84761225 12.63679398 -28.92578125 7.99609375 C-25.09765294 4.73656481 -21.01092542 1.72097391 -15.92578125 0.99609375 C-15.49265625 1.47046875 -15.05953125 1.94484375 -14.61328125 2.43359375 C-12.88223862 4.34008464 -12.88223862 4.34008464 -9.48828125 4.43359375 C-5.85276789 4.38708246 -5.85276789 4.38708246 -4.05078125 1.87109375 C-1.92578125 -0.00390625 -1.92578125 -0.00390625 0 0 Z " fill="#FDFDFD" transform="translate(223.92578125,86.00390625)"/>
<path d="M0 0 C2.90350697 2.90350697 3.84374051 6.5241064 5.23046875 10.3125 C5.54397781 11.15482178 5.85748688 11.99714355 6.18049622 12.86499023 C7.18800691 15.57477235 8.1880481 18.28723641 9.1875 21 C10.49132056 24.52163967 11.79834701 28.0420846 13.10546875 31.5625 C13.42611298 32.42891113 13.7467572 33.29532227 14.07711792 34.18798828 C16.60183818 40.99017569 19.21825667 47.75397102 21.90849304 54.49243164 C24 59.78570217 24 59.78570217 24 62 C8.49 62 -7.02 62 -23 62 C-22.30175852 58.50879259 -21.63654912 55.74471936 -20.40527344 52.49194336 C-20.08113464 51.63011948 -19.75699585 50.76829559 -19.42303467 49.88035583 C-19.07202698 48.95948685 -18.72101929 48.03861786 -18.359375 47.08984375 C-17.99531555 46.12655655 -17.6312561 45.16326935 -17.25616455 44.17079163 C-16.48463387 42.13179777 -15.71121139 40.09351889 -14.93603516 38.0559082 C-13.76407124 34.97449712 -12.59832764 31.89079078 -11.43359375 28.80664062 C-7.77395583 19.13906771 -4.10244834 9.49041543 0 0 Z " fill="#88A9DA" transform="translate(345,168)"/>
<path d="M0 0 C5.14090699 3.12402361 9.18829722 7.21717102 11.27734375 12.921875 C12.0690398 17.61550156 12.18340625 21.39969001 9.71484375 25.546875 C6.28698745 27.48053753 4.14750798 27.54386568 0.27734375 26.921875 C-3.7327775 23.43940128 -4.31704335 20.09343944 -4.72265625 14.921875 C-8.73274965 14.74322869 -8.73274965 14.74322869 -12.72265625 14.921875 C-15.01853077 16.88699023 -15.01853077 16.88699023 -15.66015625 20.359375 C-17.1713366 25.42627383 -17.1713366 25.42627383 -19.72265625 26.921875 C-23.54805859 27.40874439 -25.80742948 27.46162412 -29.16015625 25.484375 C-31.53218535 21.59424728 -31.51846958 18.35569213 -30.72265625 13.921875 C-28.62138236 7.77968978 -25.02368772 3.28951813 -19.4453125 -0.03515625 C-13.15501435 -2.44478266 -6.2711831 -2.48328054 0 0 Z " fill="#040503" transform="translate(87.72265625,64.078125)"/>
<path d="M0 0 C4.89782578 3.81139897 8.44686956 7.85019098 9.5 14.09375 C9.68723693 18.0725347 9.55706154 20.66913661 7.5 24.125 C4.0721437 26.05866253 1.93266423 26.12199068 -1.9375 25.5 C-5.94762125 22.01752628 -6.5318871 18.67156444 -6.9375 13.5 C-10.9475934 13.32135369 -10.9475934 13.32135369 -14.9375 13.5 C-17.23337452 15.46511523 -17.23337452 15.46511523 -17.875 18.9375 C-19.38618035 24.00439883 -19.38618035 24.00439883 -21.9375 25.5 C-25.76290234 25.98686939 -28.02227323 26.03974912 -31.375 24.0625 C-33.75848222 20.15358916 -33.85145838 16.95208514 -32.9375 12.5 C-30.27036556 6.26146295 -27.04720509 1.55485254 -20.9375 -1.5 C-13.97786852 -3.64601056 -6.29844769 -3.89954228 0 0 Z " fill="#030403" transform="translate(212.9375,65.5)"/>
<path d="M0 0 C2.875 1.9375 2.875 1.9375 5 4 C8.10953379 5.5547669 10.56266761 5.28644437 14 5 C16.60847629 3.50254139 18.87028902 2.12971098 21 0 C28.05202312 -0.57803468 28.05202312 -0.57803468 31.5625 1.5625 C33 4 33 4 33.25 7.3125 C31.11317077 13.61614622 26.34224281 16.57628378 20.8125 19.9375 C13.22215298 22.05284261 5.73921908 22.22949614 -1.5 18.875 C-5.71912765 16.42873055 -8.48140961 14.19765065 -11 10 C-11.47732313 6.47974191 -11.64143637 4.24278297 -10 1.0625 C-6.75980198 -0.6588552 -3.52710029 -0.64755357 0 0 Z " fill="#030402" transform="translate(129,93)"/>
</svg>
