<?xml version="1.0" encoding="UTF-8"?>
<svg version="1.1" xmlns="http://www.w3.org/2000/svg" width="512" height="512">
<path d="M0 0 C1.66011511 -0.00678604 3.32022268 -0.01569468 4.98031616 -0.02655029 C9.46391336 -0.04923321 13.9469316 -0.04055317 18.43053818 -0.02465487 C23.13705684 -0.01193851 27.84352808 -0.02375184 32.55004883 -0.03158569 C40.45175008 -0.04066562 48.35321717 -0.02873796 56.25488281 -0.00488281 C65.37208098 0.0223253 74.48871995 0.01350996 83.60590458 -0.01401484 C91.45337977 -0.03675225 99.30068726 -0.0398834 107.14818478 -0.02682149 C111.82655431 -0.01905239 116.50466155 -0.01791509 121.18301392 -0.03450394 C125.58280047 -0.0490171 129.98187066 -0.03880304 134.38158035 -0.01003265 C135.98993367 -0.0034582 137.59834796 -0.00525673 139.20667648 -0.01634598 C148.11521465 -0.07207582 155.99188183 0.14613914 163.41796875 5.64697266 C170.91898715 13.27820136 172.77056265 21.81108026 172.70236206 32.28321838 C172.67900787 33.50677536 172.65565369 34.73033234 172.6315918 35.9909668 C172.61253742 38.00482488 172.59349358 40.0186831 172.574844 42.03254497 C172.55225679 44.18225099 172.52234158 46.33175067 172.49063683 48.48134041 C172.42571035 52.98521747 172.38986343 57.48904602 172.35932922 61.99327087 C172.26872988 74.79649754 172.14988091 87.5991901 171.97924805 100.40161133 C171.88509588 107.48435999 171.82047409 114.56677206 171.7872718 121.6500749 C171.76841781 125.38693175 171.73473539 129.12227685 171.66382408 132.85853767 C171.36870764 148.79168069 171.27070588 162.03899073 180.41796875 175.64697266 C192.93914698 201.83553792 200.39128241 232.15071214 200.65625 261.20166016 C200.66599854 262.09281525 200.67574707 262.98397034 200.68579102 263.90213013 C200.85889286 283.83459123 200.59255099 303.06725581 196.41796875 322.64697266 C196.2360498 323.530625 196.05413086 324.41427734 195.86669922 325.32470703 C189.84805304 353.83125284 177.88575442 393.51283314 155.41796875 413.64697266 C151.73046875 414.52197266 151.73046875 414.52197266 148.41796875 414.64697266 C144.53299231 415.9419648 143.30342505 417.86481854 140.73046875 421.02197266 C139.51810547 422.48763672 139.51810547 422.48763672 138.28125 423.98291016 C135.81628074 427.50724776 136.33986132 429.07315977 136.9140625 433.29150391 C136.89458719 438.31040502 134.31078194 440.6841197 130.88208008 444.09033203 C130.08954834 444.83089844 129.2970166 445.57146484 128.48046875 446.33447266 C127.66795654 447.11757813 126.85544434 447.90068359 126.01831055 448.70751953 C118.29967642 456.01747175 110.10592563 462.53556032 101.41796875 468.64697266 C100.77762695 469.10007812 100.13728516 469.55318359 99.47753906 470.02001953 C59.0059427 498.41894496 11.73007444 513.16124829 -37.64453125 512.95947266 C-38.59390564 512.9573175 -39.54328003 512.95516235 -40.52142334 512.95294189 C-54.72978411 512.90120771 -68.61806397 512.49971505 -82.58203125 509.64697266 C-83.55591797 509.45361328 -84.52980469 509.26025391 -85.53320312 509.06103516 C-122.67604077 501.46842986 -158.27505075 485.91148432 -187.58203125 461.64697266 C-188.11779785 461.21126953 -188.65356445 460.77556641 -189.20556641 460.32666016 C-203.7002564 448.51148345 -217.22518069 435.43839419 -228.31689453 420.34765625 C-229.58211105 418.64686538 -230.88651427 416.98397107 -232.203125 415.32275391 C-260.4463558 379.11599314 -279.18867318 327.97181492 -277.58203125 281.64697266 C-278.34386719 281.68177734 -279.10570312 281.71658203 -279.890625 281.75244141 C-289.42476339 282.00240009 -297.16836931 280.80746652 -304.66951942 274.5521698 C-310.81029988 268.43487566 -312.157858 261.13631271 -312.25967407 252.75619507 C-312.24449234 250.89808701 -312.24449234 250.89808701 -312.22900391 249.00244141 C-312.23579422 247.65759097 -312.24470523 246.31274985 -312.2555542 244.96792603 C-312.27818719 241.34375973 -312.26957864 237.7203117 -312.25365877 234.09613419 C-312.24091589 230.28648325 -312.252763 226.47688993 -312.2605896 222.66723633 C-312.26966195 216.27202419 -312.25776211 209.87710166 -312.23388672 203.48193359 C-312.20667979 196.1097006 -312.21549569 188.73815921 -312.24301875 181.36594296 C-312.26577811 175.01313619 -312.26887675 168.66053647 -312.2558254 162.30770206 C-312.24806816 158.52357221 -312.24688545 154.73976642 -312.26350784 150.95565796 C-312.2780536 147.39628431 -312.26775 143.83779402 -312.23903656 140.27851486 C-312.22937469 138.36493868 -312.24403946 136.45128694 -312.25967407 134.53775024 C-312.15788376 126.1597528 -310.81686665 118.83471366 -304.65096474 112.73738098 C-297.08099885 106.37859217 -288.435484 105.14867583 -278.83203125 105.27197266 C-277.91292969 105.26037109 -276.99382812 105.24876953 -276.046875 105.23681641 C-267.204102 105.27520761 -267.204102 105.27520761 -263.58203125 108.64697266 C-263.25203125 110.29697266 -262.92203125 111.94697266 -262.58203125 113.64697266 C-256.31203125 113.64697266 -250.04203125 113.64697266 -243.58203125 113.64697266 C-243.25203125 111.99697266 -242.92203125 110.34697266 -242.58203125 108.64697266 C-238.83744009 105.51912771 -235.83624643 105.32056087 -231.06640625 105.45166016 C-229.81472656 105.45681641 -228.56304687 105.46197266 -227.2734375 105.46728516 C-224.66102314 105.50353273 -222.04882111 105.56315894 -219.4375 105.64697266 C-212.22230339 105.70311845 -212.22230339 105.70311845 -205.83886719 102.74145508 C-203.59305136 100.47534574 -201.58155312 98.13047583 -199.58203125 95.64697266 C-196.0240812 92.50673774 -192.30852665 89.58450298 -188.58203125 86.64697266 C-187.58300781 85.84259766 -186.58398438 85.03822266 -185.5546875 84.20947266 C-151.44951915 57.03308342 -110.47296706 41.61605889 -67.58203125 35.64697266 C-66.83203857 35.54022217 -66.0820459 35.43347168 -65.30932617 35.32348633 C-59.04548104 34.52176483 -52.82669629 34.53274197 -46.51953125 34.58447266 C-45.46314453 34.58898438 -44.40675781 34.59349609 -43.31835938 34.59814453 C-40.73952217 34.60981348 -38.16080831 34.6261838 -35.58203125 34.64697266 C-35.62880005 33.40403442 -35.62880005 33.40403442 -35.67651367 32.13598633 C-35.97637711 22.70170009 -34.68678918 14.95219771 -28.47575378 7.55948448 C-20.58151612 -0.41307888 -10.48102076 -0.07226546 0 0 Z " fill="#020201" transform="translate(311.58203125,-0.64697265625)"/>
<path d="M0 0 C0.65563295 -0.00297112 1.3112659 -0.00594224 1.98676652 -0.0090034 C4.19384243 -0.01770696 6.4008642 -0.01920004 8.60795593 -0.02069092 C10.18632626 -0.02531795 11.76469546 -0.03034245 13.34306335 -0.03573608 C17.63859776 -0.04887378 21.93411653 -0.05530778 26.2296679 -0.05974674 C28.9122204 -0.06267545 31.59476861 -0.06677988 34.27731895 -0.07125092 C42.66705821 -0.08492986 51.05678768 -0.0945944 59.44653732 -0.09845281 C69.13734557 -0.10293377 78.82801278 -0.12048178 88.51877815 -0.1494534 C96.00503718 -0.17105884 103.49125651 -0.18115649 110.97754639 -0.18249393 C115.45071623 -0.18354283 119.92375357 -0.18946871 124.39689064 -0.20731354 C128.60512097 -0.22377444 132.81311892 -0.22595942 137.02136993 -0.21717453 C138.56572021 -0.21640307 140.11008287 -0.22076121 141.65440178 -0.23063278 C143.76353099 -0.24332367 145.87183365 -0.23749187 147.98095703 -0.22705078 C149.16101979 -0.22851734 150.34108255 -0.2299839 151.55690479 -0.2314949 C155.78456089 0.27183292 158.15043629 1.97996849 161.46964455 4.49666786 C163.19650184 6.84005188 163.05848486 8.54780189 163.06190491 11.44082642 C163.07036438 12.53997879 163.07882385 13.63913116 163.08753967 14.77159119 C163.07843063 16.58104973 163.07843063 16.58104973 163.06913757 18.42706299 C163.07702301 20.33224953 163.07702301 20.33224953 163.08506775 22.27592468 C163.09875804 25.76159589 163.09343508 29.24700105 163.08393049 32.73267698 C163.07633941 36.38053833 163.08337827 40.02837678 163.08808899 43.67623901 C163.09354955 49.80464773 163.08634856 55.93294806 163.07206726 62.06134033 C163.05575465 69.14311215 163.06101781 76.22462468 163.07754648 83.30639017 C163.09117023 89.38718042 163.09307624 95.46789271 163.08523047 101.5486933 C163.08055694 105.18011257 163.07991992 108.81141009 163.08983994 112.4428215 C163.1001323 116.49371378 163.08585772 120.54416095 163.06913757 124.59503174 C163.07521027 125.79728897 163.08128296 126.9995462 163.08753967 128.23823547 C163.0790802 129.3430275 163.07062073 130.44781952 163.06190491 131.58609009 C163.06077383 132.54362371 163.05964275 133.50115734 163.0584774 134.48770714 C162.60318598 137.68689244 161.57879787 139.5419963 159.68095398 142.14044189 C156.01477532 144.584561 154.25976378 144.38612599 149.88969421 144.37994385 C149.20306198 144.38195801 148.51642975 144.38397217 147.80899048 144.38604736 C146.31776774 144.38959205 144.82652997 144.38882677 143.33530998 144.38427162 C140.96720028 144.37867029 138.59957902 144.38785272 136.23150635 144.401474 C129.49840754 144.43855063 122.76547039 144.45720126 116.03227234 144.44586182 C111.91124637 144.43997413 107.79090227 144.45845367 103.67001534 144.49175072 C102.10691803 144.49965373 100.54374538 144.49849759 98.98066521 144.48772621 C89.85301204 144.42758039 82.51976146 144.90864868 74.68095398 150.14044189 C73.80406921 150.69949219 72.92718445 151.25854248 72.02372742 151.83453369 C71.36920593 152.33122559 70.71468445 152.82791748 70.04032898 153.33966064 C69.28679138 153.90418945 68.53325378 154.46871826 67.75688171 155.050354 C66.98932556 155.63695801 66.22176941 156.22356201 65.43095398 156.82794189 C63.77140494 158.07354298 62.11124388 159.31832904 60.45048523 160.56231689 C59.64304871 161.17010986 58.83561218 161.77790283 58.00370789 162.40411377 C54.74178083 164.84250195 51.43821638 167.21915113 48.11845398 169.57794189 C47.55972595 169.97505371 47.00099792 170.37216553 46.42533875 170.78131104 C44.84492109 171.9024943 43.2629645 173.02150732 41.68095398 174.14044189 C40.67548523 174.85587158 39.67001648 175.57130127 38.63407898 176.30841064 C37.72142273 176.95423096 36.80876648 177.60005127 35.86845398 178.26544189 C35.07825867 178.82489502 34.28806335 179.38434814 33.47392273 179.96075439 C31.68095398 181.14044189 31.68095398 181.14044189 30.68095398 181.14044189 C30.68208191 180.49083496 30.68320984 179.84122803 30.68437195 179.17193604 C30.67214232 176.18126137 30.6143333 173.19305786 30.55595398 170.20294189 C30.5585321 169.18135986 30.56111023 168.15977783 30.56376648 167.10723877 C30.37546149 159.73980595 29.02126647 154.43656741 23.68095398 149.14044189 C17.46333815 144.7223432 10.81917793 144.61040846 3.43095398 144.64044189 C-6.40944469 144.67980349 -6.40944469 144.67980349 -10.42842102 142.29669189 C-13.83249239 138.41436257 -13.48024516 134.4121659 -13.52998352 129.51544189 C-13.55804082 127.98938929 -13.5867052 126.46334776 -13.61592102 124.93731689 C-13.65725014 122.53432392 -13.69414333 120.1315401 -13.72041321 117.72833252 C-13.74798096 115.40693765 -13.7938351 113.08647776 -13.84248352 110.76544189 C-13.84573639 110.04662842 -13.84898926 109.32781494 -13.8523407 108.58721924 C-13.92378669 105.69428627 -13.99228914 103.62723055 -15.63008118 101.18731689 C-18.5090968 99.40280996 -21.04327689 99.78946663 -24.31904602 100.14044189 C-26.16534424 101.09200035 -26.16534424 101.09200035 -27.31904602 103.14044189 C-27.6422737 105.89483031 -27.78706769 108.4184503 -27.78779602 111.17559814 C-27.79540955 111.96889023 -27.80302307 112.76218231 -27.81086731 113.57951355 C-27.82167508 115.26149352 -27.82451864 116.94354063 -27.82002258 118.62554932 C-27.81905846 121.17010595 -27.86049303 123.71156166 -27.90498352 126.25567627 C-28.00452239 138.97436728 -28.00452239 138.97436728 -22.31904602 150.14044189 C-21.22096685 150.98897203 -20.09612727 151.80432051 -18.94404602 152.57794189 C-16.31904602 155.14044189 -16.31904602 155.14044189 -15.98701477 157.46075439 C-16.66550409 170.33371383 -23.30995116 182.70109434 -32.63154602 191.39044189 C-43.05183607 200.14070216 -54.14572605 203.83052262 -67.76826477 203.48809814 C-77.86566469 202.49946383 -86.7891651 198.4805176 -95.31904602 193.14044189 C-96.36542236 192.5561718 -96.36542236 192.5561718 -97.43293762 191.96009827 C-99.31904602 190.14044189 -99.31904602 190.14044189 -99.82698059 187.20054626 C-99.83016296 185.99952774 -99.83334534 184.79850922 -99.83662415 183.56109619 C-99.84713806 182.56540115 -99.84713806 182.56540115 -99.85786438 181.54959106 C-99.87547485 179.35418903 -99.86380847 177.16007592 -99.85029602 174.96466064 C-99.85299106 173.43632256 -99.85687358 171.90798615 -99.8618927 170.37965393 C-99.86779262 167.1741811 -99.85921305 163.96915393 -99.8405304 160.76373291 C-99.81779769 156.6645394 -99.83082361 152.56639674 -99.85482025 148.46724224 C-99.86931475 145.30923126 -99.86465468 142.1514669 -99.85430908 138.99344826 C-99.85164883 137.48284594 -99.85488682 135.97222091 -99.86422729 134.46164513 C-99.87444745 132.34315658 -99.858817 130.22633629 -99.83662415 128.10797119 C-99.83344177 126.90456589 -99.8302594 125.70116058 -99.82698059 124.46128845 C-99.21883291 120.48525444 -97.717702 118.32364956 -95.31904602 115.14044189 C-94.29737674 113.11889983 -94.29737674 113.11889983 -93.63154602 111.20294189 C-93.28543274 110.29221924 -93.28543274 110.29221924 -92.93232727 109.36309814 C-87.91523815 91.18014457 -92.28066843 73.27561597 -101.31904602 57.34747314 C-103.22870805 54.11484423 -103.22870805 54.11484423 -105.63154602 51.40216064 C-106.18842102 50.65579346 -106.74529602 49.90942627 -107.31904602 49.14044189 C-106.98904602 48.15044189 -106.65904602 47.16044189 -106.31904602 46.14044189 C-102.15264936 44.34116058 -97.69274278 43.33163372 -93.31904602 42.14044189 C-92.21947571 41.80915283 -91.1199054 41.47786377 -89.98701477 41.13653564 C-80.7722304 38.54583 -71.41749672 37.16183883 -61.94404602 35.89044189 C-60.67963684 35.71512939 -59.41522766 35.53981689 -58.11250305 35.35919189 C-48.13774333 34.09336592 -38.35913168 33.95813165 -28.31904602 34.14044189 C-28.3044635 35.3364502 -28.28988098 36.5324585 -28.27485657 37.76470947 C-28.21692016 42.19860865 -28.13968728 46.63199747 -28.05659485 51.06549072 C-28.02332352 52.98500287 -27.99529848 54.90461338 -27.97261047 56.82427979 C-27.93910481 59.58243762 -27.88679199 62.33969232 -27.83076477 65.09747314 C-27.82437485 65.95694046 -27.81798492 66.81640778 -27.81140137 67.70191956 C-27.79160721 68.50252304 -27.77181305 69.30312653 -27.75141907 70.12799072 C-27.74031601 70.83192459 -27.72921295 71.53585846 -27.71777344 72.26112366 C-27.19290442 74.73498395 -26.32226937 75.62882306 -24.31904602 77.14044189 C-20.81904602 77.72377523 -20.81904602 77.72377523 -17.31904602 77.14044189 C-14.92316499 74.85352331 -14.35722533 73.45322791 -13.95396423 70.14949036 C-13.9579422 68.98320602 -13.96192017 67.81692169 -13.96601868 66.61529541 C-13.96385849 65.96925354 -13.9616983 65.32321167 -13.95947266 64.65759277 C-13.9563921 63.25913497 -13.95997265 61.86064998 -13.96948624 60.46222115 C-13.98325043 58.24650449 -13.97677301 56.0316809 -13.96464539 53.81596375 C-13.93371712 47.51838267 -13.93855628 41.22101069 -13.95869446 34.92340088 C-13.96962322 31.06710168 -13.9563997 27.21147439 -13.92879868 23.35526848 C-13.92336517 21.88850255 -13.92740423 20.42166911 -13.94119644 18.95495796 C-13.96028815 16.90088989 -13.9488245 14.8490143 -13.93086243 12.79498291 C-13.9344426 11.04436302 -13.9344426 11.04436302 -13.93809509 9.25837708 C-13.13498296 5.21338018 -11.44543151 3.73483323 -8.31904602 1.14044189 C-5.50080242 -0.26867991 -3.15333024 0.00795644 0 0 Z " fill="#D72E3B" transform="translate(305.3190460205078,14.85955810546875)"/>
<path d="M0 0 C1.88332031 -0.03867188 1.88332031 -0.03867188 3.8046875 -0.078125 C7.125 0.25 7.125 0.25 8.80712891 1.42358398 C10.62413464 3.94174255 10.50921386 5.71296701 10.53125 8.80078125 C10.55316406 9.89197266 10.57507813 10.98316406 10.59765625 12.10742188 C10.61119141 13.81768555 10.61119141 13.81768555 10.625 15.5625 C10.40857153 25.39416303 10.40857153 25.39416303 14.125 34.25 C17.30910819 37.20667189 19.86495024 38.6100877 24.1875 38.5625 C30.45113972 37.49081413 35.19701683 33.46414565 40.15039062 29.73291016 C43.19617236 27.44556121 46.2770026 25.20708495 49.35961914 22.96972656 C50.98067144 21.79189419 52.59715381 20.60774357 54.20874023 19.41699219 C54.94809814 18.8759082 55.68745605 18.33482422 56.44921875 17.77734375 C57.11010498 17.28999756 57.77099121 16.80265137 58.4519043 16.30053711 C60.125 15.25 60.125 15.25 62.125 15.25 C61.75459606 30.47023462 54.029286 41.95906977 43.9375 52.8125 C38.61300194 58.69141534 35.571979 64.65743038 34.06201172 72.42797852 C33.79721512 73.78162254 33.79721512 73.78162254 33.52706909 75.16261292 C33.32804489 76.19586952 33.32804489 76.19586952 33.125 77.25 C32.01967926 77.25142502 30.91435852 77.25285004 29.77554321 77.25431824 C19.32999554 77.27102885 8.88483542 77.3139265 -1.56050682 77.38209057 C-6.92987975 77.41629841 -12.29897 77.44146092 -17.66845703 77.44555664 C-22.85586571 77.44985285 -28.0426374 77.47842543 -33.22984695 77.52343178 C-35.20321561 77.53636451 -37.17666065 77.54072953 -39.15006638 77.53615379 C-55.17062505 77.27604782 -55.17062505 77.27604782 -68.75253296 84.9908905 C-73.3686479 89.82640116 -75.92639929 95.02994177 -75.8125 101.75 C-75.984375 104.046875 -75.984375 104.046875 -76.875 106.25 C-80.5884595 109.13312073 -84.69890546 111.11856473 -88.875 113.25 C-100.00439481 120.29245937 -105.96915003 134.68250696 -109.37109375 146.890625 C-110.2754061 151.12476963 -110.95848416 155.32380594 -108.75 159.25 C-105.97684376 160.72901666 -103.96315875 160.63601984 -100.875 160.25 C-98.18644407 158.13316038 -97.26269115 156.08856188 -96.26171875 152.86328125 C-95.98263672 152.00669922 -95.70355469 151.15011719 -95.41601562 150.26757812 C-94.85366858 148.48531117 -94.29625107 146.7014802 -93.74414062 144.91601562 C-91.21447272 137.2002404 -87.43178336 130.92594133 -81.0625 125.75 C-80.47855469 125.2653125 -79.89460937 124.780625 -79.29296875 124.28125 C-77.875 123.25 -77.875 123.25 -76.875 123.25 C-76.86953156 125.22744705 -76.86953156 125.22744705 -76.86395264 127.24484253 C-76.82695022 139.69173332 -76.76911981 152.1383779 -76.69109726 164.5850811 C-76.65165261 170.98348871 -76.61944912 177.38175931 -76.60400391 183.78027344 C-76.58881784 189.95961483 -76.55433672 196.13857947 -76.50669098 202.31775284 C-76.49189746 204.67071374 -76.48396016 207.02372843 -76.48311615 209.37673569 C-76.48073874 212.68238862 -76.45359499 215.98700693 -76.42089844 219.29248047 C-76.4259288 220.25705673 -76.43095917 221.221633 -76.43614197 222.21543884 C-76.3170812 230.0376406 -74.20584571 236.36525715 -70.1875 243.0625 C-64.79864075 248.16006956 -58.25599963 251.31511609 -50.83984375 251.4609375 C-49.86595703 251.48929688 -48.89207031 251.51765625 -47.88867188 251.546875 C-45.83416996 251.59905283 -43.77945152 251.64329561 -41.72460938 251.6796875 C-40.75201172 251.710625 -39.77941406 251.7415625 -38.77734375 251.7734375 C-37.88523193 251.79325684 -36.99312012 251.81307617 -36.07397461 251.83349609 C-35.34831299 251.97094238 -34.62265137 252.10838867 -33.875 252.25 C-31.58867827 255.6794826 -31.62479398 256.98510268 -31.6015625 261.01953125 C-31.5809375 262.15583984 -31.5603125 263.29214844 -31.5390625 264.46289062 C-31.51314877 266.85084043 -31.49484324 269.23888566 -31.484375 271.62695312 C-31.33961141 280.23373577 -31.33961141 280.23373577 -26.875 287.25 C-23.45989731 289.84076756 -20.04327596 289.60933413 -15.875 289.25 C-10.5091502 286.97923458 -6.03460803 283.62299485 -1.375 280.1875 C-0.5905249 279.61692871 0.1939502 279.04635742 1.00219727 278.45849609 C4.78689845 275.7056373 8.55523083 272.9321217 12.30859375 270.13671875 C13.55988899 269.21613653 14.81119068 268.29556308 16.0625 267.375 C16.63484375 266.94050537 17.2071875 266.50601074 17.796875 266.05834961 C19.40234375 264.8828125 19.40234375 264.8828125 22.125 263.25 C26.04552304 264.55684101 27.23587649 266.96341499 29.4375 270.25 C34.0229803 276.89846687 39.01578207 283.1211242 44.21411133 289.29882812 C54.125 301.11668996 54.125 301.11668996 54.125 304.25 C50.83567885 305.52696114 47.54313073 306.79539916 44.25 308.0625 C43.3321875 308.41892578 42.414375 308.77535156 41.46875 309.14257812 C35.42334847 311.46282026 29.35673348 313.49151965 23.125 315.25 C21.70767578 315.65025391 21.70767578 315.65025391 20.26171875 316.05859375 C13.82293168 317.71193461 7.33118635 319.07994727 0.8125 320.375 C-0.01612549 320.54572021 -0.84475098 320.71644043 -1.69848633 320.89233398 C-25.89122906 325.56437283 -52.71916078 324.78630783 -76.875 320.25 C-78.81052734 319.92515625 -78.81052734 319.92515625 -80.78515625 319.59375 C-125.09084998 311.63294086 -163.48339908 288.77635424 -195.875 258.25 C-196.6071875 257.56035156 -197.339375 256.87070312 -198.09375 256.16015625 C-203.50465183 250.91029316 -208.20308082 245.15791777 -212.875 239.25 C-214.08349609 237.74953125 -214.08349609 237.74953125 -215.31640625 236.21875 C-220.07311964 230.24301222 -224.41759808 224.08192723 -228.5 217.625 C-228.93820068 216.93768799 -229.37640137 216.25037598 -229.82788086 215.54223633 C-232.875 210.62053391 -232.875 210.62053391 -232.875 207.25 C-230.66577714 205.32749322 -228.50276282 203.62841087 -226.125 201.9375 C-225.4448584 201.44983154 -224.7647168 200.96216309 -224.06396484 200.4597168 C-207.82946301 189.04619744 -207.82946301 189.04619744 -198.953125 189.8125 C-192.3941874 191.19332897 -188.8144537 194.10855538 -184.5 199.1875 C-176.90696877 208.01358758 -166.50336131 211.36659134 -155.08984375 212.53515625 C-141.75387307 212.97649053 -129.69310841 208.30675701 -119.5 199.8125 C-114.45023743 195.08924954 -114.45023743 195.08924954 -110.875 189.25 C-110.68479433 185.48700025 -110.68479433 185.48700025 -111.875 182.25 C-115.36272111 179.92485259 -116.77158625 179.73510301 -120.875 180.25 C-122.99842431 181.97703878 -122.99842431 181.97703878 -124.6875 184.375 C-130.42770054 191.3156227 -137.78120574 196.83958878 -146.875 198.25 C-155.97013687 198.58018649 -164.43777562 197.85103577 -171.875 192.25 C-174.02116162 190.05207567 -175.98570927 187.76724644 -177.9453125 185.40234375 C-183.41239182 179.30444758 -190.26004911 176.76716653 -198.25 176.03125 C-213.22890063 175.46954123 -225.13557133 183.58277792 -236.44140625 192.4921875 C-238.875 194.25 -238.875 194.25 -240.875 194.25 C-249.02211132 175.46919003 -254.85371308 157.34074177 -258.875 137.25 C-259.11347656 136.10402344 -259.35195313 134.95804688 -259.59765625 133.77734375 C-260.75771515 127.66770021 -261.12268884 121.58971558 -261.421875 115.390625 C-261.46618652 114.51035645 -261.51049805 113.63008789 -261.55615234 112.72314453 C-261.66447215 110.565531 -261.77001547 108.40777839 -261.875 106.25 C-218.58405337 103.73706121 -218.58405337 103.73706121 -206.41479492 113.92260742 C-205.11566268 115.10642361 -203.84052669 116.31730927 -202.59521484 117.55761719 C-200.04160766 120.06990856 -197.24736502 122.10897515 -194.375 124.25 C-193.37984375 125.03246094 -192.3846875 125.81492187 -191.359375 126.62109375 C-184.65919197 131.77554698 -177.54000426 136.3890703 -170.52636719 141.10180664 C-168.875 142.25 -168.875 142.25 -167.875 143.25 C-162.79720364 143.76970735 -158.34451286 144.05973158 -153.8125 141.5625 C-150.36050867 137.44238131 -149.63152238 133.69199574 -149.56640625 128.3984375 C-149.54126953 127.30015625 -149.51613281 126.201875 -149.49023438 125.0703125 C-149.45495944 122.76568309 -149.42373635 120.46098824 -149.39648438 118.15625 C-149.37005859 117.06054688 -149.34363281 115.96484375 -149.31640625 114.8359375 C-149.30295166 113.8361084 -149.28949707 112.8362793 -149.27563477 111.80615234 C-148.875 109.25 -148.875 109.25 -147.64453125 107.421875 C-145.33902419 105.89504913 -143.87600954 105.89561734 -141.12109375 105.9140625 C-140.18837646 105.90479736 -139.25565918 105.89553223 -138.29467773 105.88598633 C-137.31055908 105.88236084 -136.32644043 105.87873535 -135.3125 105.875 C-126.28922238 105.64983705 -119.19736119 105.12664622 -112.2890625 98.796875 C-106.78424823 92.75112522 -105.4243266 86.98673758 -105.36328125 79.1328125 C-105.34533005 78.27565643 -105.32737885 77.41850037 -105.30888367 76.53536987 C-105.25498595 73.81529564 -105.22095142 71.0953948 -105.1875 68.375 C-105.15430874 66.52341348 -105.11981741 64.67184978 -105.08398438 62.8203125 C-104.99927148 58.29700052 -104.9323628 53.77373814 -104.875 49.25 C-102.46494711 50.2081958 -100.0638604 51.16655005 -97.69140625 52.21484375 C-82.75853032 58.65901378 -65.33222298 61.35908813 -49.875 55.25 C-33.21552878 48.25982899 -20.16571084 38.02009292 -12.9375 21.01953125 C-10.43307529 14.49145361 -8.75882873 8.17332506 -7.875 1.25 C-5.94345515 -0.68154485 -2.5639823 0.03145991 0 0 Z " fill="#B6E345" transform="translate(310.875,173.75)"/>
<path d="M0 0 C0.65663623 -0.00453111 1.31327247 -0.00906223 1.98980677 -0.01373065 C4.18839543 -0.02638313 6.38673664 -0.02475377 8.58535767 -0.02310181 C10.16240253 -0.02908653 11.73944447 -0.03589195 13.31648254 -0.04345703 C17.59958545 -0.06112983 21.88260846 -0.06581294 26.1657443 -0.0670886 C29.7417754 -0.06898794 33.31778789 -0.07634587 36.89381182 -0.08343279 C45.33120518 -0.09971916 53.76855586 -0.10460152 62.20596313 -0.10317993 C70.90836117 -0.10197836 79.61051125 -0.12308257 88.31284654 -0.15466726 C95.78558245 -0.18082226 103.25823733 -0.19154756 110.73101866 -0.19026911 C115.19360483 -0.18975925 119.65597064 -0.19545548 124.1185112 -0.21662521 C128.31616904 -0.23599464 132.51339604 -0.23614113 136.71106911 -0.22159195 C138.25016344 -0.21950113 139.78928465 -0.22422105 141.3283329 -0.23631287 C143.43285404 -0.25177426 145.53589118 -0.24245378 147.64038086 -0.22705078 C148.81692419 -0.22814032 149.99346752 -0.22922985 151.20566368 -0.2303524 C155.20164218 0.38328436 157.33978256 1.7130988 160.44717407 4.26742554 C162.61273016 7.32114558 162.69982122 9.92206557 162.70787048 13.61213684 C162.71495529 14.69583557 162.7220401 15.7795343 162.7293396 16.89607239 C162.72686218 18.08008133 162.72438477 19.26409027 162.72183228 20.48397827 C162.72694321 21.73474152 162.73205414 22.98550476 162.73731995 24.27416992 C162.74884005 27.70192517 162.75128927 31.12943864 162.74875665 34.55719638 C162.74768657 37.42003296 162.75257124 40.28284725 162.75736207 43.14567906 C162.76845535 49.90022675 162.76889567 56.65471884 162.7628479 63.40927124 C162.75680725 70.37460656 162.76912173 77.33973992 162.79041797 84.30504078 C162.80803779 90.288178 162.81403474 96.27125097 162.81078023 102.25441319 C162.80896783 105.82658541 162.81159905 109.39861355 162.82549477 112.97076225 C162.84041155 116.95441481 162.83109959 120.93781042 162.81948853 124.92147827 C162.82713226 126.10346298 162.834776 127.28544769 162.84265137 128.50325012 C162.83563705 129.58976868 162.82862274 130.67628723 162.82139587 131.79573059 C162.82156362 132.73721671 162.82173136 133.67870283 162.82190418 134.64871883 C162.22545374 138.81686209 160.46375762 141.45563923 157.20504761 144.05786133 C153.73728658 145.57877212 151.10660721 145.63241726 147.32119751 145.62045288 C146.62291336 145.62261307 145.92462921 145.62477325 145.20518494 145.6269989 C143.69489233 145.63007692 142.18457451 145.62650648 140.67430878 145.61698532 C138.27681039 145.60319194 135.88013479 145.60971744 133.4826355 145.62182617 C126.66851339 145.65270445 119.85458423 145.64797986 113.04043579 145.6277771 C108.86527725 145.61680784 104.69073616 145.63016087 100.51566315 145.65767288 C98.93218617 145.66308423 97.3486463 145.65912466 95.76522064 145.64527512 C86.95929729 145.56917259 79.73830349 145.68306586 72.44717407 151.26742554 C71.41592407 152.0112146 70.38467407 152.75500366 69.32217407 153.52133179 C68.37342407 154.28316772 67.42467407 155.04500366 66.44717407 155.82992554 C60.65436617 160.4065059 54.68823115 164.68985931 48.63833618 168.91903687 C43.50824096 172.50665108 38.45677211 176.17929999 33.45108032 179.93930054 C31.44717407 181.26742554 31.44717407 181.26742554 29.44717407 181.26742554 C29.448302 180.58228882 29.44942993 179.8971521 29.45059204 179.19125366 C29.43839224 176.04900922 29.38062451 172.90913648 29.32217407 169.76742554 C29.3247522 168.68976929 29.32733032 167.61211304 29.32998657 166.50180054 C29.17386607 160.10086012 28.50390983 155.68819583 24.17398071 150.80673218 C17.65632952 144.99678014 9.6385387 145.83342578 1.45303345 145.82797241 C-4.34676479 145.71284979 -8.06046285 145.34289733 -12.55282593 141.26742554 C-14.54437664 138.10302611 -14.80703299 135.63589162 -14.82025146 131.92944336 C-14.82878143 130.84718979 -14.8373114 129.76493622 -14.84609985 128.64988708 C-14.84519348 127.46744919 -14.84428711 126.28501129 -14.84335327 125.06674194 C-14.8500705 123.81758499 -14.85678772 122.56842804 -14.8637085 121.28141785 C-14.87945422 117.85773296 -14.88606368 114.43429065 -14.88734007 111.01058626 C-14.88876249 108.87040323 -14.8930338 106.73024555 -14.8983345 104.59006882 C-14.91683348 97.12019997 -14.9250053 89.65040247 -14.9234314 82.18051147 C-14.92223007 75.22309779 -14.94333078 68.26599437 -14.97491872 61.3086592 C-15.00109099 55.33060011 -15.0117983 49.3526423 -15.01052058 43.37452638 C-15.01001121 39.80617956 -15.01567991 36.23810851 -15.03687668 32.66981888 C-15.05988035 28.68872258 -15.05073224 24.7080501 -15.03866577 20.72689819 C-15.04990479 19.54850876 -15.0611438 18.37011932 -15.07272339 17.15602112 C-15.0247825 10.93898571 -14.92202457 6.88592195 -10.55282593 2.26742554 C-7.07852273 -0.00285551 -4.09360221 0.01166916 0 0 Z " fill="#FDBD53" transform="translate(263.5528259277344,265.7325744628906)"/>
<path d="M0 0 C6.93 0 13.86 0 21 0 C21.66 1.65 22.32 3.3 23 5 C25.44408901 7.44408901 26.06854243 7.2515235 29.42085266 7.25828552 C30.8150946 7.26852753 30.8150946 7.26852753 32.23750305 7.27897644 C33.26038925 7.27642349 34.28327545 7.27387054 35.3371582 7.27124023 C36.94951859 7.27908035 36.94951859 7.27908035 38.5944519 7.28707886 C40.93474677 7.29734098 43.27506461 7.30310309 45.61538124 7.30496025 C49.31776809 7.3086105 53.01988383 7.32530081 56.72221375 7.34571838 C65.92071806 7.39424059 75.11926636 7.42577176 84.31787109 7.44702148 C92.08246068 7.46507315 99.84681527 7.49437364 107.61128807 7.54106331 C110.06608235 7.55272714 112.52091082 7.55864378 114.9757328 7.55874443 C118.4089112 7.5589362 121.84156166 7.5771836 125.2746582 7.59936523 C126.29147171 7.59478806 127.30828522 7.59021088 128.35591125 7.585495 C137.09097912 7.67534419 137.09097912 7.67534419 141 11 C143.23151726 14.34727589 143.25383732 15.42953327 143.26742554 19.33834839 C143.28022049 20.99969818 143.28022049 20.99969818 143.29327393 22.6946106 C143.29191437 24.51809525 143.29191437 24.51809525 143.29052734 26.37841797 C143.29724457 27.6582959 143.30396179 28.93817383 143.31088257 30.25683594 C143.32856178 33.76929776 143.33323876 37.28166217 143.33451414 40.79416418 C143.33641304 43.72654123 143.34377052 46.65889558 143.35085833 49.59126389 C143.36714741 56.5102358 143.37202684 63.42915565 143.37060547 70.34814453 C143.36940407 77.48448572 143.39050401 84.62052444 143.4220928 91.75678909 C143.44824928 97.88428001 143.45897303 104.01167212 143.45769465 110.13921845 C143.4571848 113.79864831 143.46288031 117.45780945 143.48405075 121.11718369 C143.50702149 125.19926353 143.49791619 129.28066641 143.48583984 133.36279297 C143.49707886 134.57440094 143.50831787 135.78600891 143.51989746 137.03433228 C143.45838273 145.19725521 143.45838273 145.19725521 141.15713501 149.22732544 C137.90310398 151.90139915 135.24264594 152.12251693 131.17578125 152.17578125 C130.22896484 152.19962891 129.28214844 152.22347656 128.30664062 152.24804688 C126.33028896 152.29059065 124.35366421 152.32206922 122.37695312 152.34179688 C115.22492639 152.54973274 109.39432297 153.64891681 104.16015625 158.81640625 C103.79792969 159.39261719 103.43570313 159.96882812 103.0625 160.5625 C102.68222656 161.14128906 102.30195313 161.72007812 101.91015625 162.31640625 C100.13855423 165.59348981 99.83140161 168.45250316 99.68359375 172.10546875 C99.64169922 173.08837891 99.59980469 174.07128906 99.55664062 175.08398438 C99.51732422 176.10814453 99.47800781 177.13230469 99.4375 178.1875 C99.37272461 179.74114258 99.37272461 179.74114258 99.30664062 181.32617188 C99.20055634 183.8839819 99.09849854 186.44188845 99 189 C93.0858803 185.11165411 87.28479054 181.10228227 81.5625 176.9375 C80.79752197 176.38457275 80.03254395 175.83164551 79.24438477 175.26196289 C75.1950004 172.33306933 71.16222333 169.3837493 67.1484375 166.40625 C66.35880615 165.82496338 65.5691748 165.24367676 64.75561523 164.64477539 C63.25774518 163.54160475 61.76469283 162.43184894 60.27758789 161.31420898 C59.24106079 160.55346069 59.24106079 160.55346069 58.18359375 159.77734375 C57.59118896 159.33640381 56.99878418 158.89546387 56.38842773 158.44116211 C55.60024658 157.96557861 54.81206543 157.48999512 54 157 C53.44339691 156.65433487 52.88679382 156.30866974 52.31332397 155.95252991 C45.4374298 152.25998843 38.45455849 152.47060243 30.86714935 152.54471016 C28.50390875 152.56680801 26.14193281 152.56281462 23.77862549 152.55223083 C17.91737131 152.53068907 12.05640986 152.54796564 6.19519043 152.57373047 C1.223531 152.59514465 -3.74731034 152.59708099 -8.71895599 152.57081413 C-11.04211325 152.56647353 -13.36383375 152.59105716 -15.68682861 152.61634827 C-17.11316565 152.6110773 -18.53949831 152.6043547 -19.96582031 152.59594727 C-21.82705536 152.60405174 -21.82705536 152.60405174 -23.72589111 152.61231995 C-27.91264177 151.82931882 -29.37182538 150.28110006 -32 147 C-33.00876826 143.97369523 -33.13044741 141.94064629 -33.14044189 138.77554321 C-33.14615204 137.69321915 -33.15186218 136.61089508 -33.15774536 135.49577332 C-33.15886322 134.3081691 -33.15998108 133.12056488 -33.16113281 131.89697266 C-33.16609772 130.64635544 -33.17106262 129.39573822 -33.17617798 128.10722351 C-33.18828792 124.6753411 -33.19574497 121.24351963 -33.20018864 117.8116231 C-33.20312061 115.66727339 -33.20722563 113.52292902 -33.21169281 111.378582 C-33.22536467 104.6686088 -33.2350331 97.9586478 -33.2388947 91.24866164 C-33.24337619 83.50427552 -33.26092947 75.76006583 -33.2898953 68.01573336 C-33.31151196 62.02837946 -33.32159895 56.0410752 -33.32293582 50.05368268 C-33.32398378 46.47812897 -33.32988953 42.90274117 -33.34775543 39.32722855 C-33.36729773 35.3386999 -33.36294718 31.35039182 -33.35644531 27.36181641 C-33.3656601 26.17826065 -33.37487488 24.9947049 -33.3843689 23.77528381 C-33.37879974 22.6873201 -33.37323059 21.59935638 -33.36749268 20.47842407 C-33.36895924 19.53563913 -33.3704258 18.59285419 -33.3719368 17.62150002 C-32.92029529 14.43822206 -31.8862532 12.58664866 -30 10 C-26.76141754 7.84094503 -25.78281861 7.74387147 -22.03515625 7.69140625 C-21.07029297 7.66626953 -20.10542969 7.64113281 -19.11132812 7.61523438 C-17.08274504 7.58014678 -15.05409215 7.54888163 -13.02539062 7.52148438 C-12.05923828 7.49505859 -11.09308594 7.46863281 -10.09765625 7.44140625 C-8.77519897 7.42122437 -8.77519897 7.42122437 -7.42602539 7.40063477 C-4.47705658 6.91364092 -3.11950575 6.09339396 -1 4 C-0.67 2.68 -0.34 1.36 0 0 Z " fill="#F9F7F7" transform="translate(48,113)"/>
<path d="M0 0 C1.88332031 -0.03867188 1.88332031 -0.03867188 3.8046875 -0.078125 C7.125 0.25 7.125 0.25 8.80712891 1.42358398 C10.62413464 3.94174255 10.50921386 5.71296701 10.53125 8.80078125 C10.55316406 9.89197266 10.57507813 10.98316406 10.59765625 12.10742188 C10.61119141 13.81768555 10.61119141 13.81768555 10.625 15.5625 C10.40857153 25.39416303 10.40857153 25.39416303 14.125 34.25 C17.30910819 37.20667189 19.86495024 38.6100877 24.1875 38.5625 C30.45113972 37.49081413 35.19701683 33.46414565 40.15039062 29.73291016 C43.19617236 27.44556121 46.2770026 25.20708495 49.35961914 22.96972656 C50.98067144 21.79189419 52.59715381 20.60774357 54.20874023 19.41699219 C54.94809814 18.8759082 55.68745605 18.33482422 56.44921875 17.77734375 C57.11010498 17.28999756 57.77099121 16.80265137 58.4519043 16.30053711 C60.125 15.25 60.125 15.25 62.125 15.25 C61.75459606 30.47023462 54.029286 41.95906977 43.9375 52.8125 C38.61300194 58.69141534 35.571979 64.65743038 34.06201172 72.42797852 C33.79721512 73.78162254 33.79721512 73.78162254 33.52706909 75.16261292 C33.32804489 76.19586952 33.32804489 76.19586952 33.125 77.25 C32.01967926 77.25142502 30.91435852 77.25285004 29.77554321 77.25431824 C19.32999554 77.27102885 8.88483542 77.3139265 -1.56050682 77.38209057 C-6.92987975 77.41629841 -12.29897 77.44146092 -17.66845703 77.44555664 C-22.85586571 77.44985285 -28.0426374 77.47842543 -33.22984695 77.52343178 C-35.20321561 77.53636451 -37.17666065 77.54072953 -39.15006638 77.53615379 C-55.17062505 77.27604782 -55.17062505 77.27604782 -68.75253296 84.9908905 C-73.3686479 89.82640116 -75.92639929 95.02994177 -75.8125 101.75 C-75.984375 104.046875 -75.984375 104.046875 -76.875 106.25 C-80.5884595 109.13312073 -84.69890546 111.11856473 -88.875 113.25 C-99.99457146 120.28624335 -105.99006374 134.68642294 -109.3671875 146.89453125 C-110.16409316 150.5909475 -110.33117061 153.47030065 -109.875 157.25 C-109.17375 157.889375 -108.4725 158.52875 -107.75 159.1875 C-105.875 161.25 -105.875 161.25 -105.87890625 163.13671875 C-107.08016417 169.33780692 -109.86427665 174.74566228 -112.875 180.25 C-114.03 180.064375 -115.185 179.87875 -116.375 179.6875 C-119.45401662 179.67126617 -120.54891187 179.95709501 -122.87109375 182.04296875 C-124.19837666 183.63731059 -125.51161017 185.24342591 -126.8125 186.859375 C-131.86129676 192.71138943 -139.20213263 197.05996887 -146.875 198.25 C-155.97013687 198.58018649 -164.43777562 197.85103577 -171.875 192.25 C-174.02116162 190.05207567 -175.98570927 187.76724644 -177.9453125 185.40234375 C-183.41239182 179.30444758 -190.26004911 176.76716653 -198.25 176.03125 C-213.22890063 175.46954123 -225.13557133 183.58277792 -236.44140625 192.4921875 C-238.875 194.25 -238.875 194.25 -240.875 194.25 C-249.02211132 175.46919003 -254.85371308 157.34074177 -258.875 137.25 C-259.11347656 136.10402344 -259.35195313 134.95804688 -259.59765625 133.77734375 C-260.75771515 127.66770021 -261.12268884 121.58971558 -261.421875 115.390625 C-261.46618652 114.51035645 -261.51049805 113.63008789 -261.55615234 112.72314453 C-261.66447215 110.565531 -261.77001547 108.40777839 -261.875 106.25 C-218.58405337 103.73706121 -218.58405337 103.73706121 -206.41479492 113.92260742 C-205.11566268 115.10642361 -203.84052669 116.31730927 -202.59521484 117.55761719 C-200.04160766 120.06990856 -197.24736502 122.10897515 -194.375 124.25 C-193.37984375 125.03246094 -192.3846875 125.81492187 -191.359375 126.62109375 C-184.65919197 131.77554698 -177.54000426 136.3890703 -170.52636719 141.10180664 C-168.875 142.25 -168.875 142.25 -167.875 143.25 C-162.79720364 143.76970735 -158.34451286 144.05973158 -153.8125 141.5625 C-150.36050867 137.44238131 -149.63152238 133.69199574 -149.56640625 128.3984375 C-149.54126953 127.30015625 -149.51613281 126.201875 -149.49023438 125.0703125 C-149.45495944 122.76568309 -149.42373635 120.46098824 -149.39648438 118.15625 C-149.37005859 117.06054688 -149.34363281 115.96484375 -149.31640625 114.8359375 C-149.30295166 113.8361084 -149.28949707 112.8362793 -149.27563477 111.80615234 C-148.875 109.25 -148.875 109.25 -147.64453125 107.421875 C-145.33902419 105.89504913 -143.87600954 105.89561734 -141.12109375 105.9140625 C-140.18837646 105.90479736 -139.25565918 105.89553223 -138.29467773 105.88598633 C-137.31055908 105.88236084 -136.32644043 105.87873535 -135.3125 105.875 C-126.28922238 105.64983705 -119.19736119 105.12664622 -112.2890625 98.796875 C-106.78424823 92.75112522 -105.4243266 86.98673758 -105.36328125 79.1328125 C-105.34533005 78.27565643 -105.32737885 77.41850037 -105.30888367 76.53536987 C-105.25498595 73.81529564 -105.22095142 71.0953948 -105.1875 68.375 C-105.15430874 66.52341348 -105.11981741 64.67184978 -105.08398438 62.8203125 C-104.99927148 58.29700052 -104.9323628 53.77373814 -104.875 49.25 C-102.46494711 50.2081958 -100.0638604 51.16655005 -97.69140625 52.21484375 C-82.75853032 58.65901378 -65.33222298 61.35908813 -49.875 55.25 C-33.21552878 48.25982899 -20.16571084 38.02009292 -12.9375 21.01953125 C-10.43307529 14.49145361 -8.75882873 8.17332506 -7.875 1.25 C-5.94345515 -0.68154485 -2.5639823 0.03145991 0 0 Z " fill="#92CAD2" transform="translate(310.875,173.75)"/>
<path d="M0 0 C19.34080903 -0.07007057 38.68159232 -0.1229786 58.02250195 -0.15543652 C67.00275604 -0.17090763 75.98293128 -0.19200183 84.96313477 -0.22631836 C92.78997278 -0.25621322 100.61675369 -0.27557322 108.44364721 -0.28226548 C112.58822245 -0.2861776 116.73263431 -0.29537666 120.87715721 -0.31719017 C124.77838116 -0.33755673 128.67937446 -0.34383349 132.58064651 -0.33932304 C134.01212251 -0.34014817 135.44360623 -0.34611295 136.87503624 -0.35761642 C138.83067107 -0.37256131 140.78642973 -0.36716156 142.74211121 -0.36076355 C144.38336361 -0.36491162 144.38336361 -0.36491162 146.05777264 -0.36914349 C150.16417841 0.14606243 152.57652125 1.90236264 155.78995228 4.38022327 C157.46348229 6.62042001 157.36948031 8.13578077 157.36076355 10.91642761 C157.36694954 12.43716133 157.36694954 12.43716133 157.3732605 13.98861694 C157.36247467 15.09991974 157.35168884 16.21122253 157.34057617 17.35620117 C157.34101425 18.52706772 157.34145233 19.69793427 157.34190369 20.90428162 C157.34017069 24.11490185 157.32511638 27.32513076 157.30418181 30.5356729 C157.28543902 33.89089622 157.28366647 37.24612707 157.28010559 40.60139465 C157.27077804 46.95499356 157.24615477 53.30843777 157.21605712 59.66196853 C157.18253511 66.89525227 157.16603266 74.12854336 157.15097082 81.36188543 C157.11960571 96.24135733 157.06458492 111.12062827 157 126 C144.79 126 132.58 126 120 126 C119.01 121.545 119.01 121.545 118 117 C116.16322605 115.09279832 116.16322605 115.09279832 113.703125 114.28515625 C112.83284668 113.91398682 111.96256836 113.54281738 111.06591797 113.16040039 C110.13666504 112.79809326 109.20741211 112.43578613 108.25 112.0625 C101.32631929 109.0866772 94.95000258 106.05088406 88.875 101.5625 C88.31458008 101.14943604 87.75416016 100.73637207 87.17675781 100.31079102 C85.76081839 99.23775364 84.37821167 98.12108263 83 97 C82.36320312 96.49339844 81.72640625 95.98679687 81.0703125 95.46484375 C80 94 80 94 80.0859375 92.171875 C81.2954062 89.29809468 82.91194441 86.85596101 84.625 84.25 C91.33462425 73.69044172 96.27911814 62.23101179 99 50 C100.25296875 49.93941406 101.5059375 49.87882812 102.796875 49.81640625 C104.44792724 49.73197744 106.09896835 49.64733061 107.75 49.5625 C108.575 49.52318359 109.4 49.48386719 110.25 49.44335938 C111.04921875 49.40146484 111.8484375 49.35957031 112.671875 49.31640625 C113.4050293 49.27974854 114.13818359 49.24309082 114.89355469 49.20532227 C117.01177605 48.99885215 118.9519456 48.56867914 121 48 C121.2475 46.7625 121.495 45.525 121.75 44.25 C121.88921875 43.55390625 122.0284375 42.8578125 122.171875 42.140625 C122.16629499 39.87699883 122.16629499 39.87699883 120.58789062 37.90429688 C116.7051449 35.04718209 113.12998526 35.39706622 108.421875 35.390625 C107.03201385 35.36582062 107.03201385 35.36582062 105.61407471 35.34051514 C102.659316 35.29199274 99.70507211 35.27065476 96.75 35.25 C94.74476571 35.22184387 92.73955544 35.19191695 90.734375 35.16015625 C85.82295904 35.08623255 80.91182959 35.03668376 76 35 C75.95101562 33.79601563 75.90203125 32.59203125 75.8515625 31.3515625 C75.77653657 29.77601802 75.70098867 28.20049834 75.625 26.625 C75.5940625 25.8309375 75.563125 25.036875 75.53125 24.21875 C75.48183579 19.63332625 75.48183579 19.63332625 73 16 C71.08993694 15.6823754 71.08993694 15.6823754 69 15.75 C68.29875 15.74484375 67.5975 15.7396875 66.875 15.734375 C64.7564331 15.84294485 64.7564331 15.84294485 63 18 C62.69324768 20.89967757 62.48826629 23.71783178 62.375 26.625 C62.33632813 27.42679688 62.29765625 28.22859375 62.2578125 29.0546875 C62.16346069 31.03607556 62.08063785 33.01800645 62 35 C60.06966919 35.01401855 60.06966919 35.01401855 58.1003418 35.02832031 C53.33094519 35.06815815 48.56219788 35.13389949 43.79321289 35.20751953 C41.7281935 35.23576522 39.66306526 35.25696178 37.59790039 35.27099609 C34.63110485 35.29237584 31.6656229 35.33900009 28.69921875 35.390625 C27.31158577 35.39246796 27.31158577 35.39246796 25.8959198 35.39434814 C20.94693863 35.37313799 20.94693863 35.37313799 16.90942383 37.87792969 C15.32225576 41.58146387 15.74741277 44.24223831 17 48 C19.72501908 48.90833969 21.62233971 49.18359985 24.44921875 49.31640625 C25.29677734 49.35830078 26.14433594 49.40019531 27.01757812 49.44335938 C28.33918945 49.50233398 28.33918945 49.50233398 29.6875 49.5625 C30.58017578 49.60568359 31.47285156 49.64886719 32.39257812 49.69335938 C34.59490108 49.79935353 36.79733473 49.90142051 39 50 C39.268125 50.969375 39.53625 51.93875 39.8125 52.9375 C43.56550913 65.97210931 48.73416585 78.38203357 57.06640625 89.203125 C58 91 58 91 57.921875 92.99609375 C53.8933248 101.7530694 39.48386639 108.22093501 30.97265625 111.67578125 C23.76938556 114.24943957 23.76938556 114.24943957 18.60546875 119.44140625 C18.10934847 121.72213185 17.99667745 123.67995095 18 126 C15.18743719 126.02684312 12.37512759 126.04676188 9.5625 126.0625 C8.76005859 126.07087891 7.95761719 126.07925781 7.13085938 126.08789062 C5.08704779 126.0965143 3.04316098 126.0522815 1 126 C0 125 0 125 -0.12304783 122.92478085 C-0.12212604 122.00390965 -0.12120424 121.08303846 -0.12025452 120.13426208 C-0.12162918 119.08111816 -0.12300385 118.02797424 -0.12442017 116.94291687 C-0.12082489 115.77766983 -0.11722961 114.61242279 -0.11352539 113.41186523 C-0.11367142 112.19252289 -0.11381744 110.97318054 -0.1139679 109.71688843 C-0.11338893 106.36372489 -0.10835968 103.01062226 -0.10139394 99.65746951 C-0.09515983 96.15674438 -0.09455656 92.65601852 -0.09336853 89.1552887 C-0.09025538 82.52190344 -0.08204222 75.88853459 -0.07201904 69.25515658 C-0.06085739 61.70509793 -0.05534732 54.15503851 -0.05032361 46.60497367 C-0.03985959 31.06997294 -0.02226047 15.53498858 0 0 Z " fill="#DA4854" transform="translate(311,15)"/>
<path d="M0 0 C2.23601169 2.05437268 3.59660868 3.86470154 4.83203125 6.6328125 C5.312771 7.70426514 5.312771 7.70426514 5.80322266 8.79736328 C6.30281494 9.94954346 6.30281494 9.94954346 6.8125 11.125 C7.1636084 11.93050293 7.5147168 12.73600586 7.87646484 13.56591797 C31.25364356 67.97079497 32.86986085 130.11286796 10.93359375 185.3203125 C5.71450458 197.99655975 0.03412363 210.85275171 -7.82421875 222.140625 C-8.29093994 222.81109863 -8.75766113 223.48157227 -9.23852539 224.17236328 C-10.135358 225.43541439 -11.05149756 226.68506888 -11.98999023 227.91748047 C-14.2825247 231.09760825 -15.01290039 232.71066262 -14.8359375 236.6796875 C-14.38542736 238.46909695 -13.91374716 240.25641723 -13.32543945 242.00537109 C-13 244 -13 244 -14.95703125 247.234375 C-15.88604775 248.42441123 -16.83933609 249.59578603 -17.8125 250.75 C-18.31370361 251.3476416 -18.81490723 251.9452832 -19.33129883 252.56103516 C-23.18805259 256.81772609 -23.18805259 256.81772609 -26.6796875 257.6015625 C-28.34535126 257.45108197 -30.00785427 257.25983986 -31.6640625 257.02734375 C-34.76070952 256.99109537 -35.76599807 257.90877201 -38.0625 259.9375 C-39.4026007 261.2643586 -40.71471162 262.61997921 -42 264 C-53.96191914 276.67569621 -68.29379135 286.73611219 -83 296 C-83.60811523 296.40718262 -84.21623047 296.81436523 -84.84277344 297.23388672 C-86.6796875 298.40234375 -86.6796875 298.40234375 -90 300 C-93.05467131 298.93887663 -94.783335 297.39694962 -96.77734375 294.90234375 C-97.28467041 294.27376465 -97.79199707 293.64518555 -98.31469727 292.99755859 C-98.85022217 292.31773926 -99.38574707 291.63791992 -99.9375 290.9375 C-100.49945068 290.23447754 -101.06140137 289.53145508 -101.64038086 288.80712891 C-107.87846217 280.96729613 -114.04881781 273.06037981 -120 265 C-120.42651855 264.43313477 -120.85303711 263.86626953 -121.29248047 263.28222656 C-122.43359375 261.6953125 -122.43359375 261.6953125 -124 259 C-123.67 258.01 -123.34 257.02 -123 256 C-121.72119209 255.99453156 -121.72119209 255.99453156 -120.41654968 255.98895264 C-112.34058477 255.95091979 -104.26501744 255.89389524 -96.18933392 255.81609726 C-92.03856119 255.77676514 -87.88799609 255.74450741 -83.73706055 255.72900391 C-79.72322798 255.71374238 -75.70996674 255.67913171 -71.69639015 255.63169098 C-70.173226 255.61697421 -68.64998023 255.60896462 -67.12674522 255.60811615 C-56.82627463 255.5966194 -48.21016226 254.51009171 -39.125 249.375 C-33.60681783 243.20761992 -30.85762911 235.75172353 -30.90234375 227.56399536 C-30.90556137 226.45964645 -30.90877899 225.35529755 -30.91209412 224.21748352 C-30.92047806 223.01021103 -30.928862 221.80293854 -30.9375 220.55908203 C-30.94449585 218.60124049 -30.95147599 216.64339882 -30.95786953 214.68555522 C-30.96525027 212.58167426 -30.97468447 210.47780816 -30.98416138 208.3739357 C-31.00215696 203.97590563 -31.00407889 199.57796229 -31.00170898 195.17990112 C-31.00115525 194.06442766 -31.00115525 194.06442766 -31.00059032 192.92641938 C-30.99927254 190.63584193 -30.99771516 188.34526475 -30.99609375 186.0546875 C-30.9893982 176.58961213 -30.99403653 167.12508557 -31.05126953 157.66015625 C-31.09293137 150.75185391 -31.10236171 143.84432604 -31.07515907 136.93594062 C-31.06199295 133.28637085 -31.06445029 129.63840616 -31.10620117 125.98901749 C-31.41042457 97.8515429 -31.41042457 97.8515429 -21 86 C-18.31307935 80.98408179 -16.73828801 75.40429286 -15 70 C-14.6596875 69.01773438 -14.319375 68.03546875 -13.96875 67.0234375 C-7.49116663 45.73138106 -13.27385545 23.17306964 -23 4 C-21.84242188 3.96261719 -20.68484375 3.92523438 -19.4921875 3.88671875 C-17.95309439 3.82102575 -16.4140333 3.75457958 -14.875 3.6875 C-13.73417969 3.65366211 -13.73417969 3.65366211 -12.5703125 3.61914062 C-7.69049587 3.38777001 -4.29109862 2.55683672 0 0 Z " fill="#92CAD2" transform="translate(471,170)"/>
<path d="M0 0 C0.01458252 1.1960083 0.02916504 2.3920166 0.04418945 3.62426758 C0.10212586 8.05816675 0.17935874 12.49155558 0.26245117 16.92504883 C0.2957225 18.84456098 0.32374754 20.76417148 0.34643555 22.68383789 C0.37994121 25.44199572 0.43225403 28.19925043 0.48828125 30.95703125 C0.49467117 31.81649857 0.5010611 32.67596588 0.50764465 33.56147766 C0.52743881 34.36208115 0.54723297 35.16268463 0.56762695 35.98754883 C0.57873001 36.6914827 0.58983307 37.39541656 0.60127258 38.12068176 C1.15136374 40.71342129 1.80572197 41.4934219 4 43 C6.31 43.33 8.62 43.66 11 44 C11 50.93 11 57.86 11 65 C6.545 65.99 6.545 65.99 2 67 C-0.39934551 71.79869103 0.68739531 79.07654644 0.64990234 84.40966797 C0.63343714 86.12237221 0.60627349 87.83501046 0.56787109 89.54736328 C0.04072025 103.59768863 0.04072025 103.59768863 6 116 C7.09827438 116.84827745 8.22309992 117.66360889 9.375 118.4375 C12 121 12 121 12.33203125 123.3203125 C11.65354193 136.19327194 5.00909486 148.56065244 -4.3125 157.25 C-14.73279005 166.00026026 -25.82668003 169.69008072 -39.44921875 169.34765625 C-49.54661867 168.35902193 -58.47011908 164.3400757 -67 159 C-68.04637634 158.4157299 -68.04637634 158.4157299 -69.1138916 157.81965637 C-71 156 -71 156 -71.50793457 153.06010437 C-71.51111694 151.85908585 -71.51429932 150.65806732 -71.51757812 149.4206543 C-71.52809204 148.42495926 -71.52809204 148.42495926 -71.53881836 147.40914917 C-71.55642883 145.21374714 -71.54476245 143.01963403 -71.53125 140.82421875 C-71.53394504 139.29588067 -71.53782756 137.76754425 -71.54284668 136.23921204 C-71.5487466 133.03373921 -71.54016703 129.82871204 -71.52148438 126.62329102 C-71.49875167 122.5240975 -71.51177759 118.42595485 -71.53577423 114.32680035 C-71.55026873 111.16878937 -71.54560866 108.01102501 -71.53526306 104.85300636 C-71.53260281 103.34240404 -71.53584079 101.83177902 -71.54518127 100.32120323 C-71.55540143 98.20271468 -71.53977098 96.08589439 -71.51757812 93.9675293 C-71.51439575 92.76412399 -71.51121338 91.56071869 -71.50793457 90.32084656 C-70.89978689 86.34481255 -69.39865598 84.18320766 -67 81 C-65.97833072 78.97845793 -65.97833072 78.97845793 -65.3125 77.0625 C-64.96638672 76.15177734 -64.96638672 76.15177734 -64.61328125 75.22265625 C-59.59619213 57.03970268 -63.96162241 39.13517408 -73 23.20703125 C-74.90966203 19.97440234 -74.90966203 19.97440234 -77.3125 17.26171875 C-77.869375 16.51535156 -78.42625 15.76898438 -79 15 C-78.67 14.01 -78.34 13.02 -78 12 C-73.83360334 10.20071868 -69.37369676 9.19119182 -65 8 C-63.90042969 7.66871094 -62.80085938 7.33742188 -61.66796875 6.99609375 C-52.45318438 4.40538811 -43.0984507 3.02139694 -33.625 1.75 C-32.36059082 1.5746875 -31.09618164 1.399375 -29.79345703 1.21875 C-19.81869731 -0.04707597 -10.04008566 -0.18231025 0 0 Z " fill="#B6E345" transform="translate(277,49)"/>
<path d="M0 0 C5.39867804 2.99203843 9.08757884 7.96580966 13 12.625 C13.66 13.285 14.32 13.945 15 14.625 C15.6689527 15.95718786 16.33524698 17.29071156 17 18.625 C29.05867321 36.86760819 44.76200136 53.25575674 62 66.625 C62.969375 67.41132813 63.93875 68.19765625 64.9375 69.0078125 C73.78990927 76.0676089 83.20063177 81.96883259 93 87.625 C93.69077637 88.02605957 94.38155273 88.42711914 95.09326172 88.84033203 C118.93012211 102.51797188 145.90232759 111.31616605 173 115.625 C174.67255859 115.89642822 174.67255859 115.89642822 176.37890625 116.17333984 C188.09559847 117.86831077 199.68069755 117.85470049 211.5 117.75 C213.49869338 117.73994001 215.49739172 117.73081955 217.49609375 117.72265625 C222.33085455 117.70090525 227.16537045 117.6665456 232 117.625 C221.50310678 124.62292881 205.94324393 126.31117739 193.6875 128.75 C192.85863281 128.92080078 192.02976562 129.09160156 191.17578125 129.26757812 C166.98276857 133.93869057 140.1559962 133.16133731 116 128.625 C114.70964844 128.4084375 113.41929687 128.191875 112.08984375 127.96875 C67.78415002 120.00794086 29.39160092 97.15135424 -3 66.625 C-3.7321875 65.93535156 -4.464375 65.24570312 -5.21875 64.53515625 C-10.62965183 59.28529316 -15.32808082 53.53291777 -20 47.625 C-20.80566406 46.6246875 -21.61132812 45.624375 -22.44140625 44.59375 C-27.19811964 38.61801222 -31.54259808 32.45692723 -35.625 26 C-36.06320068 25.31268799 -36.50140137 24.62537598 -36.95288086 23.91723633 C-40 18.99553391 -40 18.99553391 -40 15.625 C-37.79077714 13.70249322 -35.62776282 12.00341087 -33.25 10.3125 C-32.5698584 9.82483154 -31.8897168 9.33716309 -31.18896484 8.8347168 C-11.76855982 -4.81862292 -11.76855982 -4.81862292 0 0 Z " fill="#A9D440" transform="translate(118,365.375)"/>
<path d="M0 0 C0.99130444 -0.00256327 0.99130444 -0.00256327 2.00263524 -0.00517833 C4.21526667 -0.00847044 6.4275943 0.00252564 8.64019775 0.01345825 C10.22697441 0.01402243 11.8137516 0.01370568 13.40052795 0.01257324 C17.70805063 0.01199897 22.01546213 0.02376528 26.32295895 0.03772116 C30.82463455 0.05021615 35.32631266 0.05139804 39.82800293 0.05377197 C48.35251765 0.05999036 56.87698113 0.07640604 65.40147328 0.09647095 C75.10633188 0.11881878 84.81119292 0.12982058 94.51607084 0.13986182 C114.47967561 0.16077194 134.44323424 0.19595491 154.40679932 0.24050903 C154.40679932 0.57050903 154.40679932 0.90050903 154.40679932 1.24050903 C104.57679932 1.24050903 54.74679932 1.24050903 3.40679932 1.24050903 C3.73679932 42.82050903 4.06679932 84.40050903 4.40679932 127.24050903 C9.35679932 127.57050903 14.30679932 127.90050903 19.40679932 128.24050903 C29.52407988 131.29922176 37.37030674 136.40471244 42.62945557 145.73660278 C42.885979 146.23289185 43.14250244 146.72918091 43.40679932 147.24050903 C49.92641669 146.9360911 53.25344034 144.55091395 58.21929932 140.49050903 C68.68639912 132.29429905 76.80601806 128.0592097 90.33990479 128.12698364 C91.5155836 128.12680284 91.5155836 128.12680284 92.7150135 128.12661839 C95.23470084 128.12736065 97.75431283 128.13495741 100.27398682 128.14285278 C101.83656783 128.14432433 103.39914935 128.14534373 104.96173096 128.14590454 C110.73509463 128.15113276 116.50844772 128.16509402 122.28179932 128.17800903 C141.64867432 128.20894653 141.64867432 128.20894653 161.40679932 128.24050903 C161.40679932 88.64050903 161.40679932 49.04050903 161.40679932 8.24050903 C161.73679932 8.24050903 162.06679932 8.24050903 162.40679932 8.24050903 C162.476887 24.9736456 162.52978627 41.70673453 162.56223583 58.43998241 C162.57770334 66.20956009 162.59879059 73.97904655 162.63311768 81.74856567 C162.66302365 88.52064952 162.68237517 95.2926673 162.6890648 102.06481534 C162.69297505 105.65048832 162.70216209 109.23597231 162.72398949 112.8215847 C162.74816149 116.82483675 162.74876855 120.82776042 162.74737549 124.83108521 C162.75816132 126.0193541 162.76894714 127.20762299 162.78005981 128.43190002 C162.77593582 129.52419922 162.77181183 130.61649841 162.76756287 131.74189758 C162.77032825 132.68857898 162.77309362 133.63526037 162.7759428 134.61062908 C162.18956482 138.78814745 160.42912198 141.42413979 157.16467285 144.03094482 C153.69691183 145.55185562 151.06623245 145.60550076 147.28082275 145.59353638 C146.5825386 145.59569656 145.88425446 145.59785675 145.16481018 145.6000824 C143.65451758 145.60316042 142.14419975 145.59958997 140.63393402 145.59006882 C138.23643563 145.57627544 135.83976003 145.58280093 133.44226074 145.59490967 C126.62813863 145.62578795 119.81420948 145.62106336 113.00006104 145.6008606 C108.82490249 145.58989134 104.6503614 145.60324437 100.47528839 145.63075638 C98.89181141 145.63616773 97.30827155 145.63220815 95.72484589 145.61835861 C86.91892253 145.54225609 79.69792873 145.65614935 72.40679932 151.24050903 C71.37554932 151.9842981 70.34429932 152.72808716 69.28179932 153.49441528 C68.33304932 154.25625122 67.38429932 155.01808716 66.40679932 155.80300903 C60.61399141 160.3795894 54.6478564 164.6629428 48.59796143 168.89212036 C43.4678662 172.47973458 38.41639735 176.15238349 33.41070557 179.91238403 C31.40679932 181.24050903 31.40679932 181.24050903 29.40679932 181.24050903 C29.40792725 180.55537231 29.40905518 179.8702356 29.41021729 179.16433716 C29.39801748 176.02209272 29.34024975 172.88221998 29.28179932 169.74050903 C29.28437744 168.66285278 29.28695557 167.58519653 29.28961182 166.47488403 C29.13349132 160.07394362 28.46353508 155.66127933 24.13360596 150.77981567 C17.61595476 144.96986363 9.59816395 145.80650928 1.41265869 145.80105591 C-4.38713954 145.68593329 -8.1008376 145.31598082 -12.59320068 141.24050903 C-14.58475139 138.0761096 -14.84740774 135.60897512 -14.86062622 131.90252686 C-14.86915619 130.82027328 -14.87768616 129.73801971 -14.88647461 128.62297058 C-14.88556824 127.44053268 -14.88466187 126.25809479 -14.88372803 125.03982544 C-14.89044525 123.79066849 -14.89716248 122.54151154 -14.90408325 121.25450134 C-14.91982898 117.83081645 -14.92643843 114.40737415 -14.92771482 110.98366976 C-14.92913724 108.84348672 -14.93340855 106.70332905 -14.93870926 104.56315231 C-14.95720823 97.09328347 -14.96538005 89.62348596 -14.96380615 82.15359497 C-14.96260482 75.19618129 -14.98370554 68.23907787 -15.01529348 61.28174269 C-15.04146575 55.30368361 -15.05217305 49.3257258 -15.05089533 43.34760988 C-15.05038597 39.77926306 -15.05605467 36.211192 -15.07725143 32.64290237 C-15.10025511 28.66180608 -15.091107 24.6811336 -15.07904053 20.69998169 C-15.09027954 19.52159225 -15.10151855 18.34320282 -15.11309814 17.12910461 C-15.06515726 10.91206921 -14.96239933 6.85900544 -10.59320068 2.24050903 C-7.10586441 -0.04501654 -4.11062957 -0.00640285 0 0 Z " fill="#F79F40" transform="translate(263.59320068359375,265.7594909667969)"/>
<path d="M0 0 C2.08017044 0.00624965 4.15443552 -0.04032467 6.23388672 -0.09130859 C15.33528752 -0.17805858 22.54676165 1.37351915 30.11279297 6.63134766 C36.37337294 12.93872724 39.42243593 20.04403617 39.51123047 28.90869141 C39.11279297 31.63134766 39.11279297 31.63134766 36.11279297 39.63134766 C46.01279297 39.63134766 55.91279297 39.63134766 66.11279297 39.63134766 C66.11279297 31.71134766 66.11279297 23.79134766 66.11279297 15.63134766 C63.01904297 15.75509766 63.01904297 15.75509766 59.86279297 15.88134766 C53.76966219 16.12507289 53.76966219 16.12507289 50.72216797 13.83447266 C48.38181706 10.63069132 48.56044256 8.49780052 49.11279297 4.63134766 C50.75416288 2.19258525 52.04134799 0.84365802 54.98678589 0.26000977 C57.35957437 0.1002974 59.69953894 0.07713701 62.07763672 0.10009766 C62.94796036 0.09627075 63.818284 0.09244385 64.71498108 0.08850098 C66.55324461 0.08578249 68.39154686 0.09313931 70.22973633 0.10986328 C73.03734049 0.131249 75.84237834 0.11007393 78.64990234 0.08447266 C80.43831943 0.08711645 82.22673493 0.0922425 84.01513672 0.10009766 C84.85173325 0.09200073 85.68832977 0.08390381 86.55027771 0.07556152 C90.53449753 0.13934939 92.65322714 0.35610443 96.14233398 2.44580078 C98.11279297 4.63134766 98.11279297 4.63134766 98.73779297 8.13134766 C98.11279297 11.63134766 98.11279297 11.63134766 96.36279297 14.06884766 C92.78145101 15.79064667 90.83211142 15.79508281 86.90966797 15.72900391 C85.28303223 15.70785522 85.28303223 15.70785522 83.62353516 15.6862793 C82.79499023 15.66815186 81.96644531 15.65002441 81.11279297 15.63134766 C81.12389603 16.52226608 81.13499908 17.41318451 81.1464386 18.33110046 C81.24667652 26.73237698 81.32277612 35.13345231 81.37185383 43.53518963 C81.39793379 47.85453006 81.43330167 52.17337588 81.48999023 56.49243164 C81.54436854 60.66162276 81.57422556 64.83033854 81.58717918 68.99985695 C81.59640876 70.58951106 81.61443254 72.17913951 81.64144325 73.76859093 C81.67781392 75.99774491 81.68273541 78.22494214 81.68041992 80.4543457 C81.69152298 81.72231491 81.70262604 82.99028412 81.71406555 84.29667664 C80.94991492 88.5346729 79.45423622 90.00127538 76.11279297 92.63134766 C73.05029297 93.25634766 73.05029297 93.25634766 70.11279297 92.63134766 C67.13058381 89.78975148 66.17914266 88.15690141 65.65869141 84.03442383 C65.65931834 82.66422479 65.68154387 81.29391324 65.72216797 79.92431641 C65.72782776 79.19892166 65.73348755 78.47352692 65.73931885 77.72615051 C65.76160198 75.42302758 65.8117781 73.12149542 65.86279297 70.81884766 C65.88286863 69.25181293 65.90111754 67.68475367 65.91748047 66.11767578 C65.95802968 62.28780297 66.03632052 58.4613427 66.11279297 54.63134766 C56.54279297 54.63134766 46.97279297 54.63134766 37.11279297 54.63134766 C37.77279297 56.94134766 38.43279297 59.25134766 39.11279297 61.63134766 C40.29729091 69.7437812 37.61212447 76.61456488 33.36279297 83.44384766 C25.41601007 91.16988659 17.34205974 93.03607628 6.62670898 92.99707031 C-7.22067995 92.71014599 -19.53499515 87.98173258 -29.88720703 78.63134766 C-31.43307579 75.53961014 -31.18080224 73.03705213 -30.88720703 69.63134766 C-28.88017702 66.62080264 -27.65809491 65.80654945 -24.13720703 65.00634766 C-20.1186307 65.7791508 -18.16679047 67.4946849 -15.03955078 70.03369141 C-8.16223619 75.13863091 -0.85765907 76.78135219 7.55029297 76.88134766 C8.84837891 76.90712891 10.14646484 76.93291016 11.48388672 76.95947266 C15.29497206 76.61487506 17.10059665 75.92347515 20.11279297 73.63134766 C22.24017435 70.91710245 23.04188858 69.10741996 23.55029297 65.69384766 C22.99672974 61.81890506 21.52105766 59.67709418 19.11279297 56.63134766 C16.19059855 55.17025045 13.57214949 55.48462438 10.31201172 55.45556641 C8.92853306 55.43236204 7.54506948 55.40824446 6.16162109 55.38330078 C3.98256433 55.34823775 1.80405994 55.31887091 -0.37524414 55.30541992 C-2.48017233 55.28988804 -4.58348906 55.24964617 -6.68798828 55.20556641 C-7.94780518 55.19098389 -9.20762207 55.17640137 -10.50561523 55.16137695 C-14.42954071 54.5463425 -16.10744242 53.41663993 -18.88720703 50.63134766 C-19.74638158 47.68641383 -19.28576913 45.77002417 -18.88720703 42.63134766 C-17.78491211 40.90844727 -17.78491211 40.90844727 -15.88720703 39.63134766 C-12.79614258 39.26245117 -12.79614258 39.26245117 -9.02392578 39.26025391 C-7.64827235 39.24286414 -6.27262136 39.22527984 -4.89697266 39.20751953 C-2.73782682 39.19747243 -0.57884591 39.19384437 1.58032227 39.19555664 C3.67106556 39.19196553 5.76055577 39.16454173 7.85107422 39.13525391 C9.72339722 39.13247437 9.72339722 39.13247437 11.63354492 39.12963867 C16.27717312 38.46458744 19.62975365 36.58626312 22.48779297 32.81884766 C23.42986692 29.52158883 23.52539953 27.05008776 23.11279297 23.63134766 C21.09567165 20.15569247 18.99918761 17.92681254 15.11279297 16.63134766 C13.02186546 16.53883985 10.92840303 16.49966117 8.83544922 16.49072266 C7.59988281 16.47138672 6.36431641 16.45205078 5.09130859 16.43212891 C2.48469318 16.39832741 -0.12217064 16.38004954 -2.72900391 16.37744141 C-3.96585937 16.35294922 -5.20271484 16.32845703 -6.47705078 16.30322266 C-8.17655884 16.2892041 -8.17655884 16.2892041 -9.91040039 16.27490234 C-12.88720703 15.63134766 -12.88720703 15.63134766 -15.2565918 13.28076172 C-17.25168205 10.03915078 -17.52420193 8.37369271 -16.88720703 4.63134766 C-12.57047677 -1.12472925 -6.54453285 -0.04104585 0 0 Z " fill="#030201" transform="translate(303.88720703125,292.36865234375)"/>
<path d="M0 0 C1.0209375 -0.01160156 1.0209375 -0.01160156 2.0625 -0.0234375 C4.59072413 0.49647956 5.38785762 1.38369571 7 3.375 C7.34057617 5.27612305 7.34057617 5.27612305 7.29296875 7.38671875 C7.2784668 8.52270508 7.2784668 8.52270508 7.26367188 9.68164062 C7.23853516 10.46732422 7.21339844 11.25300781 7.1875 12.0625 C7.16719727 13.25842773 7.16719727 13.25842773 7.14648438 14.47851562 C7.11117089 16.44429967 7.05736447 18.40973582 7 20.375 C8.86918091 20.33572388 8.86918091 20.33572388 10.77612305 20.2956543 C15.40712471 20.2050344 20.0380483 20.14770772 24.66967773 20.1003418 C26.67274156 20.0752245 28.67571398 20.04112405 30.6784668 19.99780273 C33.56061366 19.93702812 36.44154721 19.90876268 39.32421875 19.88671875 C40.21711105 19.86091232 41.11000336 19.8351059 42.029953 19.80851746 C46.53442069 19.80649349 48.39553749 19.90822783 52.06958008 22.74536133 C54 25.375 54 25.375 54.5625 27.9375 C53.82966697 31.11310981 52.48597913 32.32772307 50 34.375 C47.703463 35.5232685 46.41686833 35.49061175 43.8671875 35.47265625 C43.06152344 35.46943359 42.25585938 35.46621094 41.42578125 35.46289062 C40.16314453 35.45032227 40.16314453 35.45032227 38.875 35.4375 C38.02550781 35.43298828 37.17601562 35.42847656 36.30078125 35.42382812 C34.20049091 35.41202874 32.1002367 35.39409306 30 35.375 C29.81824219 36.90253906 29.81824219 36.90253906 29.6328125 38.4609375 C27.62096333 50.90459715 21.63717311 63.46674622 14 73.4375 C11.80192764 76.04734518 11.80192764 76.04734518 12.05859375 78.29296875 C16.11862724 87.27221293 30.80929628 92.51413226 39.20117188 96.50683594 C41.65022108 97.68881463 44.0495085 98.94953329 46.4375 100.25 C47.11683594 100.61867188 47.79617188 100.98734375 48.49609375 101.3671875 C50 102.375 50 102.375 51 104.375 C51.38503376 107.91731061 51.41935959 109.73757342 49.4375 112.75 C46.00431905 115.0387873 44.11597689 114.76314713 40 114.375 C36.50637402 113.1918834 33.24241298 111.63040373 29.9375 110 C29.01590088 109.55317871 28.09430176 109.10635742 27.14477539 108.64599609 C17.54177585 103.85998098 8.44160249 98.19135945 1 90.375 C-2.25496975 91.83310862 -4.67294662 93.68527168 -7.375 96 C-16.81041563 103.64809021 -32.28177728 114.32427613 -44.625 115 C-48 114.375 -48 114.375 -50 112.75 C-51.28292178 109.70306078 -51.40995912 107.65467299 -51 104.375 C-48.59489242 99.65910278 -44.20272879 98.49564574 -39.5625 96.625 C-29.29328472 92.28041102 -20.36799683 86.81321941 -12 79.375 C-12.64339602 75.51462386 -14.49427776 72.86633035 -16.625 69.625 C-19.83181585 64.59404356 -22.49530283 59.47036243 -24.875 54 C-25.16068848 53.34676758 -25.44637695 52.69353516 -25.74072266 52.02050781 C-28.0798371 46.50597887 -30 41.40010851 -30 35.375 C-31.97033203 35.46201172 -31.97033203 35.46201172 -33.98046875 35.55078125 C-35.71611023 35.59769048 -37.45179023 35.64318939 -39.1875 35.6875 C-40.05181641 35.72939453 -40.91613281 35.77128906 -41.80664062 35.81445312 C-46.33997056 35.90129853 -48.35855594 35.8474312 -52.11328125 33.08203125 C-54 30.375 -54 30.375 -54 26.75 C-53.01530577 23.42665696 -52.64533728 22.40744436 -50 20.375 C-48.00679016 20.01423645 -48.00679016 20.01423645 -45.7121582 20.03442383 C-44.85149246 20.03465042 -43.99082672 20.03487701 -43.1040802 20.03511047 C-41.71644722 20.05833626 -41.71644722 20.05833626 -40.30078125 20.08203125 C-38.87550362 20.08839851 -38.87550362 20.08839851 -37.4214325 20.09489441 C-34.38483412 20.11169516 -31.34889798 20.14935008 -28.3125 20.1875 C-26.25456687 20.20254503 -24.19662335 20.21623375 -22.13867188 20.22851562 C-17.09219252 20.26160329 -12.04620856 20.31339538 -7 20.375 C-7.03480469 19.18261719 -7.06960938 17.99023438 -7.10546875 16.76171875 C-7.13360753 15.19532658 -7.1609076 13.62891919 -7.1875 12.0625 C-7.21263672 11.27681641 -7.23777344 10.49113281 -7.26367188 9.68164062 C-7.27333984 8.92431641 -7.28300781 8.16699219 -7.29296875 7.38671875 C-7.3086792 6.69022217 -7.32438965 5.99372559 -7.34057617 5.27612305 C-6.60557686 1.17329893 -3.87365803 -0.04401884 0 0 Z " fill="#030101" transform="translate(380,29.625)"/>
<path d="M0 0 C1.7752738 -0.03307964 3.5502832 -0.08761666 5.32421875 -0.1640625 C20.01535111 -0.79329163 20.01535111 -0.79329163 24.58984375 2.78833008 C26.43035288 5.37386457 27.70314401 7.7763442 28.92285156 10.70019531 C29.40310791 11.64870361 29.88336426 12.59721191 30.37817383 13.57446289 C31.72327988 16.23753444 32.84704961 18.91808476 33.92285156 21.70019531 C34.24382812 22.52777344 34.56480469 23.35535156 34.89550781 24.20800781 C40.55184805 41.41380556 36.56745866 60.82473824 28.92285156 76.70019531 C27.66204425 79.0957292 26.33955238 81.39149769 24.92285156 83.70019531 C24.26285156 83.43207031 23.60285156 83.16394531 22.92285156 82.88769531 C21.93285156 82.49582031 20.94285156 82.10394531 19.92285156 81.70019531 C18.83230469 81.19125732 17.74175781 80.68231934 16.61816406 80.15795898 C10.53133096 77.89537808 4.21277291 78.22017844 -2.20214844 78.18847656 C-3.55836587 78.17160387 -4.91456791 78.15345019 -6.27075195 78.13407898 C-9.81503487 78.08685322 -13.35925537 78.05686771 -16.90374756 78.03063965 C-20.53068362 78.00069443 -24.15740514 77.95421264 -27.78417969 77.90917969 C-34.88171258 77.82345953 -41.97931189 77.75597634 -49.07714844 77.70019531 C-47.90487844 68.58526565 -43.98021303 63.62480249 -37.70214844 57.07519531 C-33.9806555 53.0456734 -31.26422247 48.94804642 -28.70214844 44.13769531 C-28.38068848 43.53683105 -28.05922852 42.9359668 -27.72802734 42.31689453 C-22.58219978 32.25086206 -21.28873793 22.49793669 -20.26074219 11.32324219 C-20.14859375 10.24236328 -20.03644531 9.16148437 -19.92089844 8.04785156 C-19.83001953 7.06824463 -19.73914063 6.0886377 -19.64550781 5.0793457 C-17.97207438 -1.92564088 -5.80514777 0.07922924 0 0 Z " fill="#B6E445" transform="translate(408.0771484375,173.2998046875)"/>
<path d="M0 0 C4.05369729 3.49987606 6.00189685 6.62383572 7.8828125 11.60546875 C8.13512131 12.26228134 8.38743011 12.91909393 8.64738464 13.59580994 C9.4860335 15.78841246 10.30537005 17.98772469 11.125 20.1875 C11.71646266 21.74444545 12.30918882 23.30091141 12.90307617 24.85693359 C14.21344485 28.29775079 15.51516443 31.74168517 16.81103516 35.18798828 C19.22651657 41.60928268 21.66544308 48.0215932 24.10546875 54.43359375 C26.69666218 61.24336101 29.28669938 68.0535324 31.86572266 74.86791992 C32.26600174 75.92475479 32.66628082 76.98158966 33.07868958 78.07044983 C33.83580401 80.0699114 34.5920972 82.06968419 35.34745789 84.06980896 C35.68308243 84.9557222 36.01870697 85.84163544 36.36450195 86.75439453 C36.65758743 87.52961456 36.95067291 88.30483459 37.25263977 89.10354614 C37.98470518 91.04285866 37.98470518 91.04285866 39 93 C39.35519903 96.83614957 39.54724594 99.14629634 37.4375 102.4375 C34.03280512 104.61999672 31.96569988 104.63734462 28 104 C24 99 24 99 18 83 C-3.78 82.505 -3.78 82.505 -26 82 C-26.99 85.3 -27.98 88.6 -29 92 C-29.63363932 93.84500861 -30.29180683 95.68230421 -31 97.5 C-31.309375 98.3146875 -31.61875 99.129375 -31.9375 99.96875 C-33 102 -33 102 -36 104 C-39.4375 104.4375 -39.4375 104.4375 -43 104 C-45.5 101.9375 -45.5 101.9375 -47 99 C-46.61441644 93.39969226 -44.94328129 88.57554769 -42.96484375 83.38671875 C-42.65432571 82.555354 -42.34380768 81.72398926 -42.02388 80.86743164 C-41.00223375 78.13804322 -39.97025134 75.41270391 -38.9375 72.6875 C-38.22124574 70.78442433 -37.50543189 68.88118286 -36.79003906 66.9777832 C-35.29590028 63.00695171 -33.79682293 59.03802931 -32.29443359 55.0703125 C-30.39282792 50.04571591 -28.5060994 45.01569413 -26.62452698 39.98356628 C-25.18516486 36.1378933 -23.73881215 32.29487715 -22.29055786 28.45254517 C-21.6006406 26.61924741 -20.9130122 24.78508656 -20.22775269 22.95004272 C-19.26853034 20.38443767 -18.2995915 17.82270822 -17.328125 15.26171875 C-17.04955154 14.51043701 -16.77097809 13.75915527 -16.48396301 12.98510742 C-13.42853405 4.9967049 -10.02573153 -2.42062707 0 0 Z " fill="#040404" transform="translate(107,141)"/>
<path d="M0 0 C0.00634791 0.97763793 0.00634791 0.97763793 0.01282406 1.97502613 C0.11606671 17.8236578 0.22469486 33.67224197 0.33933926 49.52079487 C0.39464981 57.18499029 0.44812826 64.84919036 0.49731445 72.51342773 C0.54018283 79.19249705 0.58646754 85.8715324 0.63687855 92.55054921 C0.6634581 96.08799779 0.68831064 99.62543973 0.70907402 103.16292763 C0.73229995 107.10907102 0.76315215 111.05513444 0.79467773 115.0012207 C0.8004332 116.17797867 0.80618866 117.35473663 0.81211853 118.56715393 C0.82190735 119.63987549 0.83169617 120.71259705 0.84178162 121.81782532 C0.84823417 122.75160161 0.85468672 123.6853779 0.8613348 124.64745045 C0.90680617 127.15351678 0.90680617 127.15351678 2 130 C4.74848393 131.37424197 6.95884079 131.13228961 10.03515625 131.1418457 C11.30407715 131.14888016 12.57299805 131.15591461 13.88037109 131.16316223 C14.56121765 131.16497812 15.24206421 131.16679401 15.94354248 131.16866493 C18.08046218 131.17584157 20.21715373 131.19152104 22.35400391 131.21000671 C28.43079312 131.26238983 34.50746302 131.3103519 40.58447266 131.32592773 C44.30233708 131.33608109 48.01963488 131.36559771 51.73727417 131.40724754 C53.14683724 131.41946821 54.55648072 131.42469532 55.96609497 131.42244911 C67.58084476 131.40850806 75.85857622 133.31305741 85.3125 140.1875 C85.84738037 140.56825684 86.38226074 140.94901367 86.93334961 141.34130859 C89.23075698 142.97777211 91.50888873 144.63973519 93.78320312 146.30810547 C95.53602636 147.59029853 97.2989027 148.85768887 99.0625 150.125 C100.10535156 150.89070312 101.14820313 151.65640625 102.22265625 152.4453125 C104.79855011 154.19239125 104.79855011 154.19239125 107.26171875 153.96484375 C109.94557756 152.47515133 110.51626363 149.94107102 111.76171875 147.2578125 C116.1007654 139.34623848 123.51903642 134.54112893 132 132 C137.5867578 131.42887804 143.08182303 131.52157747 148.6875 131.6875 C150.17899861 131.71264217 151.67053857 131.7354448 153.16210938 131.75585938 C156.77561505 131.81032249 160.38753329 131.89625769 164 132 C164.2265625 137.6484375 164.2265625 137.6484375 162.1875 140.8125 C159.02125088 143.97874912 156.46141738 144.11965165 152.17578125 144.17578125 C151.22896484 144.19962891 150.28214844 144.22347656 149.30664062 144.24804688 C147.33028896 144.29059065 145.35366421 144.32206922 143.37695312 144.34179688 C136.22492639 144.54973274 130.39432297 145.64891681 125.16015625 150.81640625 C124.79792969 151.39261719 124.43570313 151.96882812 124.0625 152.5625 C123.68222656 153.14128906 123.30195313 153.72007812 122.91015625 154.31640625 C121.13855423 157.59348981 120.83140161 160.45250316 120.68359375 164.10546875 C120.64169922 165.08837891 120.59980469 166.07128906 120.55664062 167.08398438 C120.51732422 168.10814453 120.47800781 169.13230469 120.4375 170.1875 C120.37272461 171.74114258 120.37272461 171.74114258 120.30664062 173.32617188 C120.20055634 175.8839819 120.09849854 178.44188845 120 181 C114.0858803 177.11165411 108.28479054 173.10228227 102.5625 168.9375 C101.79752197 168.38457275 101.03254395 167.83164551 100.24438477 167.26196289 C96.1950004 164.33306933 92.16222333 161.3837493 88.1484375 158.40625 C87.35880615 157.82496338 86.5691748 157.24367676 85.75561523 156.64477539 C84.25774518 155.54160475 82.76469283 154.43184894 81.27758789 153.31420898 C80.24106079 152.55346069 80.24106079 152.55346069 79.18359375 151.77734375 C78.59118896 151.33640381 77.99878418 150.89546387 77.38842773 150.44116211 C76.60024658 149.96557861 75.81206543 149.48999512 75 149 C74.44339691 148.65433487 73.88679382 148.30866974 73.31332397 147.95252991 C66.4374298 144.25998843 59.45455849 144.47060243 51.86714935 144.54471016 C49.50390875 144.56680801 47.14193281 144.56281462 44.77862549 144.55223083 C38.91737131 144.53068907 33.05640986 144.54796564 27.19519043 144.57373047 C22.223531 144.59514465 17.25268966 144.59708099 12.28104401 144.57081413 C9.95788675 144.56647353 7.63616625 144.59105716 5.31317139 144.61634827 C3.88683435 144.6110773 2.46050169 144.6043547 1.03417969 144.59594727 C-0.82705536 144.60405174 -0.82705536 144.60405174 -2.72589111 144.61231995 C-6.91264177 143.82931882 -8.37182538 142.28110006 -11 139 C-12.00876826 135.97369523 -12.13044741 133.94064629 -12.14044189 130.77554321 C-12.14615204 129.69321915 -12.15186218 128.61089508 -12.15774536 127.49577332 C-12.15886322 126.3081691 -12.15998108 125.12056488 -12.16113281 123.89697266 C-12.16609772 122.64635544 -12.17106262 121.39573822 -12.17617798 120.10722351 C-12.18828792 116.6753411 -12.19574497 113.24351963 -12.20018864 109.8116231 C-12.20312061 107.66727339 -12.20722563 105.52292902 -12.21169281 103.378582 C-12.22536467 96.6686088 -12.2350331 89.9586478 -12.2388947 83.24866164 C-12.24337619 75.50427552 -12.26092947 67.76006583 -12.2898953 60.01573336 C-12.31151196 54.02837946 -12.32159895 48.0410752 -12.32293582 42.05368268 C-12.32398378 38.47812897 -12.32988953 34.90274117 -12.34775543 31.32722855 C-12.36729773 27.3386999 -12.36294718 23.35039182 -12.35644531 19.36181641 C-12.3656601 18.17826065 -12.37487488 16.9947049 -12.3843689 15.77528381 C-12.37879974 14.6873201 -12.37323059 13.59935638 -12.36749268 12.47842407 C-12.36895924 11.53563913 -12.3704258 10.59285419 -12.3719368 9.62150002 C-11.92029529 6.43822206 -10.8862532 4.58664866 -9 2 C-5.5647952 -0.29013653 -4.014669 -0.17842973 0 0 Z " fill="#EEE8E5" transform="translate(27,121)"/>
<path d="M0 0 C5.92650126 -0.04939701 11.85288297 -0.08571817 17.77954102 -0.10986328 C19.79616381 -0.11992773 21.81277199 -0.13358047 23.8293457 -0.15087891 C26.72611089 -0.17510769 29.62268331 -0.18647859 32.51953125 -0.1953125 C33.42274612 -0.20563507 34.325961 -0.21595764 35.25654602 -0.22659302 C36.09719101 -0.22674408 36.937836 -0.22689514 37.80395508 -0.22705078 C38.54341873 -0.231492 39.28288239 -0.23593323 40.04475403 -0.24050903 C42 0 42 0 45 2 C45.7043457 4.22045898 45.7043457 4.22045898 46.17578125 6.99609375 C46.36052002 8.02001221 46.54525879 9.04393066 46.7355957 10.09887695 C46.92597412 11.20062256 47.11635254 12.30236816 47.3125 13.4375 C50.63878434 31.20849381 56.31499478 47.46139591 63.24731445 64.125 C63.89062188 65.72753035 64.45392785 67.36178354 65 69 C64.175 69.0515625 63.35 69.103125 62.5 69.15625 C47.91117119 70.5890814 36.51211506 77.23546034 25.2578125 86.3125 C23 88 23 88 21 88 C12.85288868 69.21919003 7.02128692 51.09074177 3 31 C2.76152344 29.85402344 2.52304687 28.70804687 2.27734375 27.52734375 C1.11728485 21.41770021 0.75231116 15.33971558 0.453125 9.140625 C0.40881348 8.26035645 0.36450195 7.38008789 0.31884766 6.47314453 C0.21052785 4.315531 0.10498453 2.15777839 0 0 Z " fill="#6EB9C4" transform="translate(49,280)"/>
<path d="M0 0 C0.31453125 0.58007812 0.6290625 1.16015625 0.953125 1.7578125 C1.38109375 2.53898437 1.8090625 3.32015625 2.25 4.125 C2.66765625 4.89070313 3.0853125 5.65640625 3.515625 6.4453125 C5.01219542 9.10189188 5.01219542 9.10189188 7.0078125 11.87890625 C9.08453033 15.13243084 10.3585244 18.172404 11.625 21.8125 C12.23214844 23.52373047 12.23214844 23.52373047 12.8515625 25.26953125 C18.14890607 42.47688877 18.58636231 62.30114585 10.6796875 78.74609375 C7.33306372 84.75355775 3.03531379 90.30491011 -2 95 C-2.66 95 -3.32 95 -4 95 C-4.07982915 100.42723656 -4.10030783 105.85035153 -4.06713867 111.27807617 C-4.06406703 113.12186959 -4.07687065 114.9657635 -4.10620117 116.80932617 C-4.63960202 127.23138157 -4.63960202 127.23138157 -1.16918945 136.67626953 C1.14331686 138.52009417 3.3143535 139.77562499 6 141 C7.19739586 141.7017937 8.39409827 142.404773 9.58984375 143.109375 C25.48896217 150.90124167 39.26571444 152.9148315 57 151 C53.79663303 153.72858223 50.92976122 155.68313828 47 157.1875 C45.7625 157.67283203 45.7625 157.67283203 44.5 158.16796875 C31.77528968 162.4029114 18.74400312 160.1966832 6.8828125 154.50390625 C4.19678137 153.07539367 1.57836412 151.61416786 -1 150 C-2.04637634 149.4157299 -2.04637634 149.4157299 -3.1138916 148.81965637 C-5 147 -5 147 -5.50793457 144.06010437 C-5.51111694 142.85908585 -5.51429932 141.65806732 -5.51757812 140.4206543 C-5.52809204 139.42495926 -5.52809204 139.42495926 -5.53881836 138.40914917 C-5.55642883 136.21374714 -5.54476245 134.01963403 -5.53125 131.82421875 C-5.53394504 130.29588067 -5.53782756 128.76754425 -5.54284668 127.23921204 C-5.5487466 124.03373921 -5.54016703 120.82871204 -5.52148438 117.62329102 C-5.49875167 113.5240975 -5.51177759 109.42595485 -5.53577423 105.32680035 C-5.55026873 102.16878937 -5.54560866 99.01102501 -5.53526306 95.85300636 C-5.53260281 94.34240404 -5.53584079 92.83177902 -5.54518127 91.32120323 C-5.55540143 89.20271468 -5.53977098 87.08589439 -5.51757812 84.9675293 C-5.51439575 83.76412399 -5.51121338 82.56071869 -5.50793457 81.32084656 C-4.89978689 77.34481255 -3.39865598 75.18320766 -1 72 C0.02166928 69.97845793 0.02166928 69.97845793 0.6875 68.0625 C1.03361328 67.15177734 1.03361328 67.15177734 1.38671875 66.22265625 C6.40380787 48.03970268 2.03837759 30.13517408 -7 14.20703125 C-8.90966203 10.97440234 -8.90966203 10.97440234 -11.3125 8.26171875 C-11.869375 7.51535156 -12.42625 6.76898438 -13 6 C-12.67 5.01 -12.34 4.02 -12 3 C-10.0390625 2.05078125 -10.0390625 2.05078125 -7.625 1.3125 C-6.83351562 1.06113281 -6.04203125 0.80976562 -5.2265625 0.55078125 C-3 0 -3 0 0 0 Z " fill="#A9D340" transform="translate(211,58)"/>
<path d="M0 0 C9.85458545 7.14671675 14.15444199 18.56953817 17 30 C17.1959375 30.65355469 17.391875 31.30710937 17.59375 31.98046875 C18.15250051 34.75810351 18.09325663 37.42039025 18.0625 40.25 C18.05347656 41.32765625 18.04445313 42.4053125 18.03515625 43.515625 C18.02355469 44.33546875 18.01195312 45.1553125 18 46 C16.96939453 45.36771484 16.96939453 45.36771484 15.91796875 44.72265625 C15.01691406 44.17480469 14.11585938 43.62695312 13.1875 43.0625 C12.29417969 42.51722656 11.40085937 41.97195312 10.48046875 41.41015625 C6.50726055 39.15137174 3.46947635 38.85859297 -1.03198242 38.79467773 C-2.27304245 38.77473251 -3.51410248 38.75478729 -4.79277039 38.73423767 C-6.1470019 38.71725473 -7.50123473 38.70037587 -8.85546875 38.68359375 C-10.24124259 38.66301772 -11.62701025 38.64202108 -13.01277161 38.62062073 C-16.65740953 38.56546699 -20.30210346 38.51602826 -23.94683838 38.46777344 C-27.6670835 38.41750944 -31.38724743 38.36184896 -35.10742188 38.30664062 C-42.40487913 38.19914101 -49.70240397 38.09767793 -57 38 C-51.75285056 31.53125645 -51.75285056 31.53125645 -48.64453125 29.17578125 C-48.03158203 28.71010742 -47.41863281 28.24443359 -46.78710938 27.76464844 C-45.80967773 27.04583496 -45.80967773 27.04583496 -44.8125 26.3125 C-44.11833984 25.79848633 -43.42417969 25.28447266 -42.70898438 24.75488281 C-29.90864201 15.43152907 -16.27206159 7.80835591 -2 1 C-1.34 0.67 -0.68 0.34 0 0 Z " fill="#92C9D1" transform="translate(182,68)"/>
<path d="M0 0 C3.45693958 1.51092783 5.87947684 3.56305081 8.6875 6.0625 C15.76269221 11.98412826 23.76941191 15.91847742 32 20 C32 20.66 32 21.32 32 22 C31.33057373 22.0093457 30.66114746 22.01869141 29.97143555 22.02832031 C26.87610201 22.08270392 23.78217188 22.16621253 20.6875 22.25 C19.63498047 22.26417969 18.58246094 22.27835938 17.49804688 22.29296875 C5.48042627 22.66274169 -3.04484265 26.37172861 -12.5 33.625 C-14.05203405 34.78392017 -15.60411536 35.94277705 -17.15625 37.1015625 C-17.82462891 37.61025879 -18.49300781 38.11895508 -19.18164062 38.64306641 C-23.69776476 42.0131816 -23.69776476 42.0131816 -26.5078125 41.890625 C-29.65767598 40.76496846 -30.26159917 39.63311864 -31.875 36.75 C-34.68263866 32.1656525 -37.45459873 29.81814879 -42 27 C-39.75641362 24.49714283 -37.67346804 23.21547643 -34.60546875 21.87109375 C-33.73849365 21.48066895 -32.87151855 21.09024414 -31.97827148 20.68798828 C-31.05731689 20.27532715 -30.1363623 19.86266602 -29.1875 19.4375 C-18.35873455 14.44417919 -8.29474798 8.7124691 0 0 Z " fill="#D94753" transform="translate(379,119)"/>
<path d="M0 0 C0.83920486 0.0028299 1.67840973 0.00565979 2.54304504 0.00857544 C5.22285228 0.01976865 7.90232506 0.04487149 10.58203125 0.0703125 C12.39908371 0.08034342 14.21614142 0.08946907 16.03320312 0.09765625 C20.487108 0.11970516 24.94076292 0.15422899 29.39453125 0.1953125 C29.39453125 0.5253125 29.39453125 0.8553125 29.39453125 1.1953125 C20.15453125 1.1953125 10.91453125 1.1953125 1.39453125 1.1953125 C1.14703125 4.3921875 0.89953125 7.5890625 0.64453125 10.8828125 C-0.12249834 19.4703672 -1.38218117 27.14844315 -4.60546875 35.1953125 C-4.9303125 36.03707031 -5.25515625 36.87882812 -5.58984375 37.74609375 C-8.55661579 44.48582589 -13.16013584 49.59626162 -17.94140625 55.08984375 C-23.17019407 61.12518036 -26.98944149 66.44443398 -28.28125 74.4453125 C-28.60546875 76.1953125 -28.60546875 76.1953125 -29.60546875 77.1953125 C-31.62511074 77.26775303 -33.64713999 77.27908438 -35.66796875 77.2578125 C-36.77269531 77.24878906 -37.87742187 77.23976563 -39.015625 77.23046875 C-39.87027344 77.21886719 -40.72492188 77.20726562 -41.60546875 77.1953125 C-41.22994976 68.37061635 -36.14941179 62.74526519 -30.23046875 56.5703125 C-26.50897581 52.54079059 -23.79254278 48.44316361 -21.23046875 43.6328125 C-20.90900879 43.03194824 -20.58754883 42.43108398 -20.25634766 41.81201172 C-15.11052009 31.74597925 -13.81705825 21.99305387 -12.7890625 10.81835938 C-12.67691406 9.73748047 -12.56476563 8.65660156 -12.44921875 7.54296875 C-12.35833984 6.56336182 -12.26746094 5.58375488 -12.17382812 4.57446289 C-10.7750933 -1.28063626 -4.83176527 -0.06114384 0 0 Z " fill="#A6CF3F" transform="translate(400.60546875,173.8046875)"/>
<path d="M0 0 C0.66 0 1.32 0 2 0 C4.14041008 5.65842453 6.27654705 11.31843615 8.40869141 16.97998047 C9.13504875 18.90685864 9.86258424 20.83329311 10.59130859 22.75927734 C11.63687179 25.52326278 12.67822625 28.28880165 13.71875 31.0546875 C14.04685669 31.9193161 14.37496338 32.7839447 14.7130127 33.67477417 C15.01332397 34.47545319 15.31363525 35.2761322 15.62304688 36.10107422 C15.88952026 36.8072287 16.15599365 37.51338318 16.43054199 38.24093628 C17 40 17 40 17 42 C6.77 42 -3.46 42 -14 42 C-12.875 34.125 -12.875 34.125 -11.69311523 30.99243164 C-11.43292099 30.29223404 -11.17272675 29.59203644 -10.90464783 28.87062073 C-10.62544998 28.14116745 -10.34625214 27.41171417 -10.05859375 26.66015625 C-9.77146011 25.89319931 -9.48432648 25.12624237 -9.18849182 24.33604431 C-8.27811887 21.90897644 -7.35799139 19.48574598 -6.4375 17.0625 C-5.81510474 15.40844774 -5.19335335 13.75415305 -4.57226562 12.09960938 C-3.05560901 8.0635644 -1.53019848 4.03092923 0 0 Z " fill="#F4F2F2" transform="translate(102,166)"/>
<path d="M0 0 C0.33 0 0.66 0 1 0 C0.99254257 0.68602798 0.98508514 1.37205597 0.97740173 2.07887268 C0.90847265 9.23354905 0.90255314 16.38633 0.93286133 23.54125977 C0.94096657 26.2107225 0.92308619 28.87641141 0.89379883 31.54614258 C0.85444772 35.38752606 0.87286827 39.22500921 0.90234375 43.06640625 C0.86547707 44.84961021 0.86547707 44.84961021 0.8278656 46.6688385 C0.87858325 52.98573522 0.87858325 52.98573522 3.95072937 58.28274536 C6.2266637 60.08348748 8.47277871 61.5788417 11 63 C11.61930389 63.37244339 12.23860779 63.74488678 12.87667847 64.12861633 C28.70584462 73.19055101 43.98645407 74.94498419 62 73 C58.79663303 75.72858223 55.92976122 77.68313828 52 79.1875 C51.175 79.51105469 50.35 79.83460938 49.5 80.16796875 C36.77528968 84.4029114 23.74400312 82.1966832 11.8828125 76.50390625 C9.19678137 75.07539367 6.57836412 73.61416786 4 72 C2.95165985 71.41867561 2.95165985 71.41867561 1.88214111 70.8256073 C0 69 0 69 -0.48101807 66.01972961 C-0.47213562 64.80061386 -0.46325317 63.58149811 -0.45410156 62.32543945 C-0.45468567 61.652005 -0.45526978 60.97857056 -0.45587158 60.284729 C-0.45308639 58.06038736 -0.42197713 55.83738853 -0.390625 53.61328125 C-0.38316408 52.07057935 -0.37747044 50.52786797 -0.37347412 48.9851532 C-0.35820584 44.92591152 -0.31891445 40.86724289 -0.2746582 36.80822754 C-0.23373083 32.66585035 -0.21546857 28.5233805 -0.1953125 24.38085938 C-0.15242072 16.25364335 -0.0841557 8.12689297 0 0 Z " fill="#A1CA3D" transform="translate(206,136)"/>
<path d="M0 0 C9.9 0 19.8 0 30 0 C26.61120616 12.42557742 26.61120616 12.42557742 23.5625 18.3125 C22.69818359 20.00826172 22.69818359 20.00826172 21.81640625 21.73828125 C20.00718732 24.98709373 18.20466185 28.00763556 16 31 C15.34 31 14.68 31 14 31 C12.44623856 28.82046038 11.05187447 26.6704319 9.6875 24.375 C9.28668213 23.70509033 8.88586426 23.03518066 8.47290039 22.3449707 C4.7958961 16.00000051 0 7.478128 0 0 Z " fill="#D94854" transform="translate(365,65)"/>
<path d="M0 0 C0.66 0.33 1.32 0.66 2 1 C1.23816406 1.66644531 0.47632813 2.33289063 -0.30859375 3.01953125 C-8.16097741 9.9914884 -15.14203843 17.21305765 -21 26 C-6.81 26 7.38 26 22 26 C22 26.33 22 26.66 22 27 C3.19 27 -15.62 27 -35 27 C-29.36888548 20.24266257 -29.36888548 20.24266257 -26.50390625 18.10546875 C-25.8692041 17.62875732 -25.23450195 17.1520459 -24.58056641 16.66088867 C-23.91460449 16.17467041 -23.24864258 15.68845215 -22.5625 15.1875 C-21.52101807 14.41853394 -21.52101807 14.41853394 -20.45849609 13.6340332 C-15.76007668 10.19958786 -10.99164109 6.87908725 -6.125 3.6875 C-5.53662354 3.29651123 -4.94824707 2.90552246 -4.34204102 2.50268555 C-2.9348107 1.60243369 -1.47135352 0.79111907 0 0 Z " fill="#6DB0BA" transform="translate(160,79)"/>
</svg>
