<?xml version="1.0" encoding="UTF-8"?>
<svg version="1.1" xmlns="http://www.w3.org/2000/svg" width="512" height="512">
<path d="M0 0 C1.43572348 -0.00445668 1.43572348 -0.00445668 2.90045148 -0.0090034 C6.09830086 -0.0176546 9.29611264 -0.01919561 12.49397278 -0.02069092 C14.79077738 -0.02532161 17.08758121 -0.03034661 19.38438416 -0.03573608 C25.61804735 -0.04883752 31.85169979 -0.05530059 38.08537459 -0.05974674 C41.98262091 -0.06268099 45.8798643 -0.06678646 49.77710915 -0.07125092 C60.58181112 -0.08335487 71.38650986 -0.09373866 82.19121838 -0.09712601 C82.88184243 -0.09734557 83.57246648 -0.09756514 84.28401854 -0.09779136 C84.9762291 -0.09800964 85.66843967 -0.09822791 86.38162631 -0.09845281 C87.78414675 -0.09889626 89.18666719 -0.09934282 90.58918762 -0.09979248 C91.63271998 -0.10012463 91.63271998 -0.10012463 92.69733379 -0.10046348 C103.96320078 -0.10440927 115.22900301 -0.12185911 126.494845 -0.145152 C138.08001536 -0.16891048 149.66515008 -0.1810723 161.25034505 -0.18249393 C167.74747254 -0.18354054 174.24450859 -0.18941811 180.74161339 -0.20731354 C186.8557512 -0.22382708 192.96972917 -0.22593369 199.08388138 -0.21717453 C201.3219184 -0.21640593 203.55996414 -0.22072338 205.79797935 -0.23063278 C222.00861149 -0.29817333 236.75179766 -0.21824592 249.54011536 11.10919189 C259.57294286 21.46081953 261.06099562 32.99503607 260.96443176 46.73419189 C260.97122173 48.37165291 260.98013255 50.00910627 260.99098206 51.64654541 C261.0136184 56.0599164 261.00500453 60.47269766 260.98908663 64.88607788 C260.97634578 69.52491741 260.98819031 74.16370956 260.99601746 78.80255127 C261.00509034 86.58975198 260.99318835 94.37671487 260.96931458 102.16387939 C260.94210782 111.14134533 260.95092366 120.11824331 260.9784466 129.0956955 C261.00120423 136.83114195 261.00430535 144.56641836 260.99125326 152.30188751 C260.98349519 156.90986935 260.98231599 161.51758504 260.9989357 166.12554932 C261.01347857 170.45970989 261.00318162 174.79314484 260.97446442 179.12722778 C260.96790561 180.70894166 260.96966105 182.2907176 260.98077774 183.87240601 C261.06834036 197.6068878 258.38290843 207.99336137 248.63386536 218.01544189 C238.82949578 227.00966964 227.61055197 228.61543389 214.64949036 228.43341064 C213.4886644 228.4291658 212.32783844 228.42492096 211.13183594 228.42054749 C207.4642966 228.40390263 203.79732927 228.36627677 200.12995911 228.32794189 C197.6267119 228.31287673 195.12345598 228.29919155 192.62019348 228.28692627 C186.51909049 228.25404575 180.41831569 228.20398998 174.31745911 228.14044189 C174.32022449 229.02189786 174.32298986 229.90335382 174.32583904 230.81152058 C174.39217446 252.28756099 174.44177645 273.76358368 174.47289562 295.23970509 C174.48834571 305.62551878 174.50939966 316.01126397 174.54377747 326.39703369 C174.57373675 335.45227868 174.59304761 344.50747403 174.59972459 353.56276721 C174.60362579 358.3547462 174.61275532 363.14658324 174.63464928 367.93851662 C174.65511768 372.45533281 174.6612721 376.97194951 174.65678215 381.48880768 C174.65760274 383.14029464 174.66350642 384.79178876 174.67507553 386.4432354 C174.76893858 400.54170068 173.36987226 413.2568119 163.50105286 424.14434814 C156.33581119 430.84638227 147.81320089 435.25182766 137.94392395 435.2784729 C136.85351303 435.28392624 135.76310211 435.28937958 134.63964844 435.29499817 C132.85207878 435.29656166 132.85207878 435.29656166 131.02839661 435.29815674 C129.09561613 435.30595635 127.16283566 435.31376 125.23005581 435.32171464 C123.15359062 435.32942291 121.07712982 435.33480901 119.00065613 435.33967209 C114.66196177 435.35038212 110.32334457 435.37063781 105.98469543 435.39279175 C93.64724797 435.45460583 81.30980437 435.50861225 68.97224426 435.54180908 C62.15714054 435.56022676 55.34216568 435.58925532 48.52715683 435.62981379 C44.92628028 435.6507722 41.32556536 435.66632498 37.72462463 435.66862106 C33.69679688 435.67119225 29.66941497 435.69677511 25.64167786 435.72393799 C23.87839897 435.71942879 23.87839897 435.71942879 22.07949829 435.71482849 C4.43653061 435.89067627 -6.34739352 441.99598279 -18.68254089 454.14044189 C-19.92785096 455.42914964 -21.16840984 456.7224588 -22.40519714 458.01934814 C-23.05987976 458.69812012 -23.71456238 459.37689209 -24.38908386 460.07623291 C-25.68743457 461.42914827 -26.97225446 462.79520971 -28.24162292 464.175354 C-31.22052952 467.27642522 -33.09323319 468.95535943 -37.26457214 470.26544189 C-43.65209603 470.03184102 -47.45936228 466.72863457 -51.72941589 462.24591064 C-52.66680117 461.28030447 -53.60430502 460.31481339 -54.54191589 459.34942627 C-55.98418338 457.84543794 -57.422833 456.33815679 -58.85832214 454.82769775 C-69.99570893 443.1553022 -80.46435719 436.28847807 -97.02484131 435.76863098 C-99.31507664 435.75459804 -101.60544765 435.75636417 -103.89567566 435.77154541 C-105.8325161 435.76576394 -107.76935654 435.75997977 -109.70619667 435.754094 C-111.76275946 435.75063657 -113.81919348 435.75443137 -115.87574959 435.76031685 C-120.18546136 435.77201964 -124.49490979 435.75963924 -128.80459595 435.74369812 C-139.50307176 435.70770992 -150.20153922 435.70127072 -160.90007019 435.70379639 C-169.23090493 435.70551259 -177.56152057 435.69826047 -185.89229435 435.66381782 C-190.16620442 435.6471373 -194.4395769 435.64871815 -198.71348393 435.66464055 C-202.00867195 435.67185228 -205.30363856 435.65316516 -208.59880066 435.63873291 C-209.76534683 435.64847641 -210.93189301 435.65821991 -212.13378906 435.66825867 C-223.15358941 435.57231588 -231.96826817 432.66846766 -240.38566589 425.48419189 C-248.2792004 417.42956484 -251.99975759 408.52215728 -251.94996643 397.2734375 C-251.95449754 396.51159346 -251.95902866 395.74974942 -251.96369708 394.96481919 C-251.97629404 392.42791973 -251.97472377 389.89123624 -251.97306824 387.35430908 C-251.97905647 385.52878037 -251.9858627 383.70325419 -251.99342346 381.87773132 C-252.01106168 376.92920437 -252.01577796 371.98074663 -252.01705503 367.03219128 C-252.01847855 363.93698346 -252.02275197 360.84179313 -252.02804947 357.74658966 C-252.0465433 346.93824653 -252.05472098 336.12995267 -252.05314636 325.32159424 C-252.05194549 315.26334209 -252.07303892 305.20530471 -252.10463369 295.14710689 C-252.13082924 286.49802291 -252.14151227 277.84900893 -252.14023554 269.19988561 C-252.13972683 264.0402313 -252.14535976 258.88076788 -252.16659164 253.72115326 C-252.18602901 248.86519693 -252.18606098 244.0096125 -252.17155838 239.15364265 C-252.16947592 237.37798834 -252.17413738 235.60231042 -252.1862793 233.8266964 C-252.27153711 220.48788407 -250.90911193 209.83627168 -241.95207214 199.36700439 C-230.98243118 188.60505026 -218.0719844 187.70010644 -203.59635925 187.79986572 C-201.87091588 187.80071297 -200.14547143 187.80023495 -198.42002869 187.79853821 C-193.75739137 187.79768063 -189.09498754 187.81526781 -184.43240428 187.83626008 C-179.55172977 187.85506659 -174.67104939 187.85678045 -169.79034424 187.8603363 C-160.5576499 187.86964511 -151.32506266 187.89424311 -142.09241539 187.92438477 C-131.57730698 187.95796507 -121.06219335 187.97442391 -110.54704463 187.98947108 C-88.92548371 188.02079371 -67.30401906 188.07353152 -45.68254089 188.14044189 C-45.68622807 187.35875043 -45.68991524 186.57705896 -45.69371414 185.77167988 C-45.78224726 166.70672024 -45.84833882 147.6418019 -45.88978958 128.57668018 C-45.91037028 119.35672919 -45.93840445 110.13691584 -45.98429871 100.91705322 C-46.0243046 92.87625696 -46.05000632 84.83556045 -46.05889487 76.79466742 C-46.06408646 72.54135416 -46.07619361 68.28832614 -46.10546112 64.03510475 C-46.13284826 60.0221862 -46.1409395 56.00966719 -46.13497162 51.99666405 C-46.13606155 50.53306269 -46.14387576 49.06944633 -46.15936279 47.60592651 C-46.3054133 33.07715977 -43.80332861 21.60414195 -33.64738464 11.01934814 C-23.81686249 1.57025719 -13.19692186 -0.01290916 0 0 Z " fill="#67CBD0" transform="translate(251.6825408935547,20.85955810546875)"/>
<path d="M0 0 C1.24289303 -0.00668677 1.24289303 -0.00668677 2.51089501 -0.01350862 C3.41594144 -0.01332426 4.32098786 -0.01313989 5.25345993 -0.01294994 C6.70182255 -0.01846498 6.70182255 -0.01846498 8.17944503 -0.02409142 C11.42358409 -0.03512803 14.66769113 -0.03897206 17.91184616 -0.04278088 C20.23440274 -0.04904548 22.55695831 -0.05569227 24.87951279 -0.0626936 C31.19572386 -0.08010193 37.51192736 -0.09065465 43.82815647 -0.09889913 C47.77343057 -0.10404903 51.71870232 -0.11012473 55.66397476 -0.11641026 C66.59123186 -0.13327791 77.51848688 -0.14791328 88.445755 -0.155159 C91.27999243 -0.15706882 94.11422986 -0.15898916 96.94846725 -0.16094494 C98.00509007 -0.16167055 98.00509007 -0.16167055 99.0830588 -0.16241082 C110.49410264 -0.17071116 121.90504165 -0.19604961 133.31603971 -0.22852562 C145.0366957 -0.26161051 156.75729843 -0.27960898 168.47800136 -0.28280324 C175.05667931 -0.2851554 181.63519149 -0.294138 188.21382523 -0.31926441 C194.40263389 -0.34252029 200.59116731 -0.34678816 206.78000832 -0.33650303 C209.05036649 -0.33600698 211.3207381 -0.34234763 213.59105492 -0.35605907 C216.69312758 -0.37374443 219.79420887 -0.36668775 222.8962822 -0.35352612 C223.79240573 -0.36449536 224.68852927 -0.37546461 225.61180806 -0.38676625 C231.48011919 -0.32674985 235.92458747 0.82417523 240.82883835 4.13422108 C245.51234176 9.06422467 247.07668079 12.82916296 247.09626389 19.59766102 C247.100795 20.24471902 247.10532611 20.89177701 247.10999453 21.55844283 C247.12264573 23.72472555 247.12101772 25.89075708 247.11936569 28.05707264 C247.12535062 29.61116833 247.13215608 31.16526105 247.13972092 32.71934986 C247.1573946 36.94060579 247.16207695 41.16178064 247.16335249 45.38306999 C247.16477419 48.02177555 247.16904422 50.66046051 247.17434692 53.29916096 C247.19285369 62.5090055 247.20101697 71.71879215 247.19944382 80.92865467 C247.19824314 89.50604637 247.21932926 98.08318614 247.25093114 106.66051412 C247.27711158 114.02967295 247.28781033 121.39874962 247.286533 128.76795459 C247.28602376 133.16688976 247.29168524 137.56560119 247.3128891 141.96448994 C247.33230064 146.10470142 247.33237624 150.24447647 247.31785583 154.38470364 C247.31577004 155.90038219 247.320455 157.41608826 247.33257675 158.93171978 C247.3919815 166.87692903 247.37352388 173.34125476 242.82883835 180.13422108 C237.95990139 184.64689436 234.67063019 186.38287237 228.02512741 186.38959217 C226.9925959 186.39502285 226.9925959 186.39502285 225.93920517 186.40056324 C224.44309183 186.4074571 222.94695335 186.40996269 221.45082474 186.40861607 C219.0687443 186.40764813 216.68711195 186.42063059 214.30509567 186.43759632 C207.53163405 186.48374454 200.75821343 186.50840534 193.98460007 186.51508045 C189.83768445 186.52015165 185.69122715 186.54469492 181.54446793 186.58040714 C179.97713881 186.59009104 178.40974563 186.59260073 176.84239578 186.58723545 C152.83584698 186.50902569 136.54504139 195.09975907 119.38352585 211.46625233 C117.84162577 212.99878864 116.32990839 214.56167151 114.82883835 216.13422108 C111.91246752 214.82506312 109.93811825 213.4559443 107.7624321 211.12250233 C107.20007858 210.5325951 106.63772507 209.94268787 106.05833054 209.33490467 C105.46697311 208.71180408 104.87561569 208.0887035 104.26633835 207.44672108 C92.08510003 194.97031466 77.91272216 187.30420591 60.22766781 186.9027195 C57.35860123 186.8692844 54.49007908 186.85719599 51.62082291 186.85982609 C49.26585958 186.86080323 46.91133798 186.8477145 44.55643845 186.83084583 C37.86895117 186.78490481 31.18151755 186.75994909 24.49387741 186.7533617 C20.38431377 186.74834074 16.27522401 186.72407758 12.16582108 186.68803501 C10.60780052 186.67826584 9.04971462 186.6758893 7.49167252 186.6812067 C5.31415744 186.68829771 3.13805579 186.67096123 0.96067429 186.64838123 C-0.27491226 186.6455312 -1.51049881 186.64268116 -2.78352737 186.63974476 C-9.53503487 185.63224317 -13.252414 181.28457513 -17.17116165 176.13422108 C-18.58358937 173.30936564 -18.30693505 170.94442434 -18.31833267 167.78394032 C-18.32200936 167.12492938 -18.32568605 166.46591844 -18.32947415 165.78693748 C-18.34052821 163.56838099 -18.34435774 161.34987132 -18.3481636 159.13129139 C-18.35442699 157.54469115 -18.36107368 155.95809239 -18.36807632 154.37149525 C-18.38549837 150.05317183 -18.39604151 145.73485949 -18.40428185 141.41650963 C-18.4094298 138.71920866 -18.41550565 136.02191115 -18.42179298 133.32461262 C-18.44084903 124.88735367 -18.45507889 116.45010349 -18.46340495 108.01282716 C-18.47317779 98.26991736 -18.49949675 88.52723473 -18.53990585 78.78440499 C-18.57005788 71.25651806 -18.58487298 63.72869627 -18.58818597 56.20075011 C-18.59053764 51.70346778 -18.599513 47.20642801 -18.62464714 42.7092104 C-18.6479168 38.47712665 -18.65216567 34.24544537 -18.64188576 30.01331425 C-18.64139 28.46131394 -18.64772221 26.90929391 -18.6614418 25.35735416 C-18.67914984 23.23523338 -18.67206189 21.11455864 -18.65890884 18.99243641 C-18.6612972 17.8059211 -18.66368555 16.61940578 -18.66614628 15.39693546 C-17.8984537 10.33665382 -15.11163296 6.52335401 -11.17116165 3.32172108 C-7.36317038 0.54506077 -4.62988924 0.01159634 0 0 Z " fill="#FC7DA0" transform="translate(245.17116165161133,41.86577892303467)"/>
<path d="M0 0 C1.43572348 -0.00445668 1.43572348 -0.00445668 2.90045148 -0.0090034 C6.09830086 -0.0176546 9.29611264 -0.01919561 12.49397278 -0.02069092 C14.79077738 -0.02532161 17.08758121 -0.03034661 19.38438416 -0.03573608 C25.61804735 -0.04883752 31.85169979 -0.05530059 38.08537459 -0.05974674 C41.98262091 -0.06268099 45.8798643 -0.06678646 49.77710915 -0.07125092 C60.58181112 -0.08335487 71.38650986 -0.09373866 82.19121838 -0.09712601 C82.88184243 -0.09734557 83.57246648 -0.09756514 84.28401854 -0.09779136 C84.9762291 -0.09800964 85.66843967 -0.09822791 86.38162631 -0.09845281 C87.78414675 -0.09889626 89.18666719 -0.09934282 90.58918762 -0.09979248 C91.63271998 -0.10012463 91.63271998 -0.10012463 92.69733379 -0.10046348 C103.96320078 -0.10440927 115.22900301 -0.12185911 126.494845 -0.145152 C138.08001536 -0.16891048 149.66515008 -0.1810723 161.25034505 -0.18249393 C167.74747254 -0.18354054 174.24450859 -0.18941811 180.74161339 -0.20731354 C186.8557512 -0.22382708 192.96972917 -0.22593369 199.08388138 -0.21717453 C201.3219184 -0.21640593 203.55996414 -0.22072338 205.79797935 -0.23063278 C222.00861149 -0.29817333 236.75179766 -0.21824592 249.54011536 11.10919189 C259.57294286 21.46081953 261.06099562 32.99503607 260.96443176 46.73419189 C260.97122173 48.37165291 260.98013255 50.00910627 260.99098206 51.64654541 C261.0136184 56.0599164 261.00500453 60.47269766 260.98908663 64.88607788 C260.97634578 69.52491741 260.98819031 74.16370956 260.99601746 78.80255127 C261.00509034 86.58975198 260.99318835 94.37671487 260.96931458 102.16387939 C260.94210782 111.14134533 260.95092366 120.11824331 260.9784466 129.0956955 C261.00120423 136.83114195 261.00430535 144.56641836 260.99125326 152.30188751 C260.98349519 156.90986935 260.98231599 161.51758504 260.9989357 166.12554932 C261.01347857 170.45970989 261.00318162 174.79314484 260.97446442 179.12722778 C260.96790561 180.70894166 260.96966105 182.2907176 260.98077774 183.87240601 C261.06834036 197.6068878 258.38290843 207.99336137 248.63386536 218.01544189 C238.82949578 227.00966964 227.61055197 228.61543389 214.64949036 228.43341064 C213.4886644 228.4291658 212.32783844 228.42492096 211.13183594 228.42054749 C207.4642966 228.40390263 203.79732927 228.36627677 200.12995911 228.32794189 C197.6267119 228.31287673 195.12345598 228.29919155 192.62019348 228.28692627 C186.51909049 228.25404575 180.41831569 228.20398998 174.31745911 228.14044189 C174.32022449 229.02189786 174.32298986 229.90335382 174.32583904 230.81152058 C174.39217446 252.28756099 174.44177645 273.76358368 174.47289562 295.23970509 C174.48834571 305.62551878 174.50939966 316.01126397 174.54377747 326.39703369 C174.57373675 335.45227868 174.59304761 344.50747403 174.59972459 353.56276721 C174.60362579 358.3547462 174.61275532 363.14658324 174.63464928 367.93851662 C174.65511768 372.45533281 174.6612721 376.97194951 174.65678215 381.48880768 C174.65760274 383.14029464 174.66350642 384.79178876 174.67507553 386.4432354 C174.76893858 400.54170068 173.36987226 413.2568119 163.50105286 424.14434814 C156.33581119 430.84638227 147.81320089 435.25182766 137.94392395 435.2784729 C136.85351303 435.28392624 135.76310211 435.28937958 134.63964844 435.29499817 C132.85207878 435.29656166 132.85207878 435.29656166 131.02839661 435.29815674 C129.09561613 435.30595635 127.16283566 435.31376 125.23005581 435.32171464 C123.15359062 435.32942291 121.07712982 435.33480901 119.00065613 435.33967209 C114.66196177 435.35038212 110.32334457 435.37063781 105.98469543 435.39279175 C93.64724797 435.45460583 81.30980437 435.50861225 68.97224426 435.54180908 C62.15714054 435.56022676 55.34216568 435.58925532 48.52715683 435.62981379 C44.92628028 435.6507722 41.32556536 435.66632498 37.72462463 435.66862106 C33.69679688 435.67119225 29.66941497 435.69677511 25.64167786 435.72393799 C23.87839897 435.71942879 23.87839897 435.71942879 22.07949829 435.71482849 C4.43653061 435.89067627 -6.34739352 441.99598279 -18.68254089 454.14044189 C-19.92785096 455.42914964 -21.16840984 456.7224588 -22.40519714 458.01934814 C-23.05987976 458.69812012 -23.71456238 459.37689209 -24.38908386 460.07623291 C-25.68743457 461.42914827 -26.97225446 462.79520971 -28.24162292 464.175354 C-31.22052952 467.27642522 -33.09323319 468.95535943 -37.26457214 470.26544189 C-43.65209603 470.03184102 -47.45936228 466.72863457 -51.72941589 462.24591064 C-52.66680117 461.28030447 -53.60430502 460.31481339 -54.54191589 459.34942627 C-55.98418338 457.84543794 -57.422833 456.33815679 -58.85832214 454.82769775 C-69.99570893 443.1553022 -80.46435719 436.28847807 -97.02484131 435.76863098 C-99.31507664 435.75459804 -101.60544765 435.75636417 -103.89567566 435.77154541 C-105.8325161 435.76576394 -107.76935654 435.75997977 -109.70619667 435.754094 C-111.76275946 435.75063657 -113.81919348 435.75443137 -115.87574959 435.76031685 C-120.18546136 435.77201964 -124.49490979 435.75963924 -128.80459595 435.74369812 C-139.50307176 435.70770992 -150.20153922 435.70127072 -160.90007019 435.70379639 C-169.23090493 435.70551259 -177.56152057 435.69826047 -185.89229435 435.66381782 C-190.16620442 435.6471373 -194.4395769 435.64871815 -198.71348393 435.66464055 C-202.00867195 435.67185228 -205.30363856 435.65316516 -208.59880066 435.63873291 C-209.76534683 435.64847641 -210.93189301 435.65821991 -212.13378906 435.66825867 C-223.15358941 435.57231588 -231.96826817 432.66846766 -240.38566589 425.48419189 C-248.2792004 417.42956484 -251.99975759 408.52215728 -251.94996643 397.2734375 C-251.95449754 396.51159346 -251.95902866 395.74974942 -251.96369708 394.96481919 C-251.97629404 392.42791973 -251.97472377 389.89123624 -251.97306824 387.35430908 C-251.97905647 385.52878037 -251.9858627 383.70325419 -251.99342346 381.87773132 C-252.01106168 376.92920437 -252.01577796 371.98074663 -252.01705503 367.03219128 C-252.01847855 363.93698346 -252.02275197 360.84179313 -252.02804947 357.74658966 C-252.0465433 346.93824653 -252.05472098 336.12995267 -252.05314636 325.32159424 C-252.05194549 315.26334209 -252.07303892 305.20530471 -252.10463369 295.14710689 C-252.13082924 286.49802291 -252.14151227 277.84900893 -252.14023554 269.19988561 C-252.13972683 264.0402313 -252.14535976 258.88076788 -252.16659164 253.72115326 C-252.18602901 248.86519693 -252.18606098 244.0096125 -252.17155838 239.15364265 C-252.16947592 237.37798834 -252.17413738 235.60231042 -252.1862793 233.8266964 C-252.27153711 220.48788407 -250.90911193 209.83627168 -241.95207214 199.36700439 C-230.98243118 188.60505026 -218.0719844 187.70010644 -203.59635925 187.79986572 C-201.87091588 187.80071297 -200.14547143 187.80023495 -198.42002869 187.79853821 C-193.75739137 187.79768063 -189.09498754 187.81526781 -184.43240428 187.83626008 C-179.55172977 187.85506659 -174.67104939 187.85678045 -169.79034424 187.8603363 C-160.5576499 187.86964511 -151.32506266 187.89424311 -142.09241539 187.92438477 C-131.57730698 187.95796507 -121.06219335 187.97442391 -110.54704463 187.98947108 C-88.92548371 188.02079371 -67.30401906 188.07353152 -45.68254089 188.14044189 C-45.68622807 187.35875043 -45.68991524 186.57705896 -45.69371414 185.77167988 C-45.78224726 166.70672024 -45.84833882 147.6418019 -45.88978958 128.57668018 C-45.91037028 119.35672919 -45.93840445 110.13691584 -45.98429871 100.91705322 C-46.0243046 92.87625696 -46.05000632 84.83556045 -46.05889487 76.79466742 C-46.06408646 72.54135416 -46.07619361 68.28832614 -46.10546112 64.03510475 C-46.13284826 60.0221862 -46.1409395 56.00966719 -46.13497162 51.99666405 C-46.13606155 50.53306269 -46.14387576 49.06944633 -46.15936279 47.60592651 C-46.3054133 33.07715977 -43.80332861 21.60414195 -33.64738464 11.01934814 C-23.81686249 1.57025719 -13.19692186 -0.01290916 0 0 Z M-21.05754089 27.70294189 C-21.53965027 28.30235596 -22.02175964 28.90177002 -22.51847839 29.51934814 C-24.95363079 32.91058387 -24.81475459 35.34316001 -24.82971191 39.49072266 C-24.8333886 40.14973359 -24.83706529 40.80874453 -24.84085339 41.4877255 C-24.85190745 43.70628198 -24.85573698 45.92479166 -24.85954285 48.14337158 C-24.86580623 49.72997182 -24.87245292 51.31657058 -24.87945557 52.90316772 C-24.89687762 57.22149114 -24.90742075 61.53980348 -24.9156611 65.85815334 C-24.92080905 68.55545431 -24.92688489 71.25275182 -24.93317223 73.95005035 C-24.95222827 82.3873093 -24.96645813 90.82455948 -24.9747842 99.26183581 C-24.98455704 109.00474561 -25.01087599 118.74742824 -25.05128509 128.49025798 C-25.08143712 136.01814491 -25.09625223 143.5459667 -25.09956521 151.07391286 C-25.10191688 155.57119519 -25.11089225 160.06823496 -25.13602638 164.56545258 C-25.15929604 168.79753632 -25.16354491 173.0292176 -25.153265 177.26134872 C-25.15276924 178.81334903 -25.15910145 180.36536906 -25.17282104 181.91730881 C-25.19052908 184.03942959 -25.18344113 186.16010433 -25.17028809 188.28222656 C-25.17267644 189.46874187 -25.17506479 190.65525719 -25.17752552 191.87772751 C-24.16584374 198.54627543 -19.76904931 202.27027245 -14.68254089 206.14044189 C-11.79000821 207.58670824 -9.26843567 207.2812053 -6.0365448 207.29815674 C-5.35327118 207.30323746 -4.66999756 207.30831818 -3.96601868 207.31355286 C-2.47861138 207.32426674 -0.99118786 207.33288292 0.49624252 207.33967209 C2.86053034 207.35147743 5.22463682 207.37094049 7.58885193 207.39279175 C14.3126152 207.45430899 21.03636517 207.50818763 27.7603302 207.54180908 C31.87362453 207.562929 35.98659645 207.59838086 40.09970474 207.64256668 C41.6583383 207.65660557 43.21702901 207.66542134 44.7757225 207.66862106 C66.29568133 207.71741916 82.64051885 213.43966056 98.07624817 228.70147705 C100.84972425 231.48969819 103.59084904 234.30635961 106.31745911 237.14044189 C109.73376281 235.53240313 111.83904214 233.77256614 114.44245911 231.01544189 C127.96470513 217.29530934 143.5703619 208.01647112 163.25398254 207.80328369 C165.45666516 207.79522889 167.65838316 207.80247392 169.86100006 207.82144737 C172.23357931 207.84010693 174.60529185 207.83707065 176.97792053 207.8283844 C183.71347584 207.80676808 190.44868016 207.81758071 197.18415833 207.85552979 C201.32854234 207.87738497 205.47206358 207.87004625 209.61641693 207.84507179 C211.18399285 207.84149713 212.75163805 207.84903882 214.31909943 207.86832237 C225.27296582 208.11948006 225.27296582 208.11948006 234.75086975 203.20960999 C240.9174691 195.06469916 240.89793276 187.58809268 240.85090637 177.76348877 C240.85797219 176.20879806 240.86671999 174.65411422 240.87701416 173.09944153 C240.89944208 168.8948532 240.89658425 164.69064246 240.88769269 160.48601723 C240.88256921 156.96960462 240.88988625 153.45326213 240.89716476 149.93685675 C240.91414232 141.63925852 240.91061902 133.34184431 240.89387512 125.04425049 C240.87694852 116.49622974 240.89280042 107.94871947 240.925098 99.40075445 C240.95182095 92.04847366 240.95906284 84.69635151 240.95058292 77.34402704 C240.94566247 72.95854004 240.9478216 68.57336022 240.96837044 64.18791199 C240.98677076 60.06394601 240.98071646 55.94071279 240.95617104 51.81678581 C240.9511772 50.30756429 240.95461581 48.7982865 240.96731949 47.28911018 C241.0826223 35.77625081 241.0826223 35.77625081 235.31745911 26.14044189 C231.07474467 22.83112464 227.65147456 21.01840174 222.26655197 21.00901413 C221.43933097 21.00517298 220.61210996 21.00133184 219.75982165 20.9973743 C218.39685958 20.99867402 218.39685958 20.99867402 217.00636292 21 C215.55822358 20.99554332 215.55822358 20.99554332 214.08082891 20.9909966 C210.83124644 20.98229379 207.58170075 20.98080001 204.33210754 20.97930908 C202.00807618 20.97468202 199.68404558 20.96965751 197.36001587 20.96426392 C191.03554533 20.95112691 184.71108541 20.94469239 178.38660336 20.94025326 C174.43715458 20.93732455 170.48770872 20.93322012 166.53826141 20.92874908 C155.60246284 20.9166384 144.66666681 20.90625704 133.73086166 20.90287399 C132.68092531 20.90254464 132.68092531 20.90254464 131.60977812 20.90220864 C130.55733288 20.90188122 130.55733288 20.90188122 129.48362613 20.90154719 C128.06186342 20.90110373 126.64010072 20.90065716 125.21833801 20.90020752 C124.51309499 20.89998609 123.80785197 20.89976466 123.08123794 20.89953652 C111.65654262 20.89558943 100.23191113 20.87813833 88.80724046 20.854848 C77.0764504 20.83112677 65.34569236 20.81867178 53.61487794 20.81750607 C47.02898369 20.81645703 40.44317943 20.81052803 33.85730743 20.79268646 C27.66198196 20.77622987 21.46681435 20.77403864 15.27147484 20.78282547 C12.99747737 20.78359714 10.7234715 20.77923606 8.44949532 20.76936722 C5.34497145 20.75668404 2.2410097 20.76250512 -0.86351013 20.77294922 C-1.76322863 20.76489281 -2.66294713 20.75683641 -3.58992982 20.74853587 C-10.53705501 20.8031892 -16.53405311 21.91737603 -21.05754089 27.70294189 Z M-228.05754089 215.64044189 C-228.53965027 216.20762939 -229.02175964 216.77481689 -229.51847839 217.35919189 C-232.14191429 221.37357702 -231.81229255 225.66261676 -231.82298279 230.33865356 C-231.82595391 231.06471019 -231.82892503 231.79076681 -231.83198619 232.53882515 C-231.84065943 234.97228591 -231.84218026 237.40569738 -231.84367371 239.83917236 C-231.84830279 241.58370061 -231.85332757 243.32822785 -231.85871887 245.07275391 C-231.87183468 249.81243779 -231.87828603 254.55210751 -231.88272953 259.2918067 C-231.88566109 262.25277872 -231.88976602 265.21374687 -231.8942337 268.17471695 C-231.9079054 277.43850463 -231.91757412 286.70228347 -231.92143559 295.96608055 C-231.9259181 306.66091195 -231.94347631 317.35561567 -231.97243619 328.05040824 C-231.9940448 336.31718358 -232.00413941 344.58392296 -232.00547671 352.85072625 C-232.00652517 357.78835021 -232.01244185 362.72585409 -232.03029633 367.66344833 C-232.04676318 372.30753361 -232.04893925 376.95140834 -232.04015732 381.59551239 C-232.03938625 383.2990869 -232.04373889 385.00267267 -232.05361557 386.70621872 C-232.06631808 389.03381772 -232.06046799 391.36066902 -232.05003357 393.68826294 C-232.05150013 394.99017012 -232.05296669 396.29207729 -232.05447769 397.6334362 C-231.43724731 403.45332412 -229.10930973 407.23881577 -224.68254089 410.95294189 C-224.00191589 411.53688721 -223.32129089 412.12083252 -222.62004089 412.72247314 C-219.27519897 415.17041189 -216.42336133 415.26644077 -212.41148376 415.27174377 C-211.31836884 415.27575195 -210.22525391 415.27976013 -209.09901428 415.28388977 C-207.29909531 415.28309669 -207.29909531 415.28309669 -205.46281433 415.2822876 C-203.52258613 415.28762159 -201.58235793 415.29296156 -199.64213037 415.29852426 C-197.55407573 415.30372324 -195.46602738 415.3066358 -193.37796783 415.30910683 C-189.01332668 415.31503033 -184.64876654 415.33158777 -180.28416443 415.35044861 C-178.78728872 415.3567865 -177.29041295 415.36311211 -175.79353714 415.36942577 C-175.0437045 415.37259158 -174.29387185 415.3757574 -173.52131701 415.37901914 C-163.36283355 415.42099175 -153.20438643 415.45400913 -143.04582214 415.46636963 C-136.19185074 415.47479485 -129.33807893 415.49745534 -122.48420739 415.5357253 C-118.86361055 415.55534989 -115.24331113 415.56793673 -111.62265778 415.56289101 C-85.20033425 415.53303959 -67.09770459 418.04841546 -47.68254089 437.14044189 C-46.42763855 438.37214111 -46.42763855 438.37214111 -45.14738464 439.62872314 C-43.31093048 441.45222172 -41.48843208 443.2867477 -39.68254089 445.14044189 C-35.93113374 442.01426926 -32.40557419 438.88255597 -29.05754089 435.32794189 C-19.5400066 425.75539296 -5.98297078 416.70265579 7.88003159 416.01294994 C9.34115812 416.01106403 9.34115812 416.01106403 10.83180237 416.00914001 C12.5139534 416.00312775 12.5139534 416.00312775 14.23008728 415.99699402 C16.06916153 415.99778709 16.06916153 415.99778709 17.94538879 415.99859619 C19.93284517 415.99326275 21.92030154 415.98792334 23.90775728 415.98235953 C26.04254228 415.97716611 28.17732113 415.97425007 30.3121109 415.97177696 C34.76732235 415.96585579 39.22245439 415.94930432 43.67762756 415.93043518 C45.20444865 415.924098 46.73126979 415.91777237 48.25809097 415.91145802 C49.02267703 415.9082922 49.78726308 415.90512639 50.57501841 415.90186465 C60.94422935 415.85983359 71.31340302 415.82682251 81.68269348 415.81451416 C88.68089973 415.80612204 95.67890886 415.78358924 102.6770165 415.74515849 C106.37729918 415.72543696 110.07728746 415.71298018 113.77762604 415.71799278 C117.90934111 415.72352169 122.04032536 415.69818435 126.17195129 415.67047119 C127.99888016 415.68037331 127.99888016 415.68037331 129.86271667 415.69047546 C136.81770714 415.61392265 141.41188762 414.90232246 147.31745911 411.14044189 C152.39929679 405.92487164 153.56841861 401.17318053 153.55796814 394.00938416 C153.55967699 393.30274103 153.56138584 392.59609789 153.56314647 391.86804134 C153.56643375 389.50650767 153.55545039 387.14525982 153.54450989 384.78375244 C153.54394561 383.08845527 153.54426266 381.39315761 153.5453949 379.69786072 C153.54596876 375.09908706 153.534209 370.50041772 153.52024698 365.90166831 C153.50774523 361.09436811 153.50656956 356.28706553 153.50419617 351.47975159 C153.49797977 342.37799144 153.48156677 333.27627933 153.46149719 324.17454034 C153.43914317 313.81187134 153.42814601 303.44920004 153.41810632 293.08651292 C153.3972007 271.7711291 153.3620216 250.45578852 153.31745911 229.14044189 C141.13006051 231.01029149 133.6245183 239.34678847 125.44245911 247.89044189 C123.91426212 249.47414825 122.38306358 251.05465797 120.8457489 252.6295166 C119.46510116 254.04550777 118.09434234 255.47112146 116.72419739 256.89727783 C113.42233761 259.97472636 111.58829627 261.11600272 107.06745911 261.20294189 C98.05616642 258.6497423 91.1331815 248.99931039 84.84870911 242.36895752 C74.78294691 232.05247985 64.02902457 227.01247605 49.52619934 226.77154541 C47.33076342 226.75318705 45.13627247 226.75094873 42.94077873 226.76031685 C40.5719339 226.7695593 38.20385866 226.75905772 35.83505249 226.74369812 C29.1089013 226.70394967 22.38281976 226.70239375 15.65657043 226.70465088 C11.51993289 226.70470226 7.38371616 226.68540477 3.24719429 226.65531731 C0.9305996 226.64460048 -1.38515489 226.65655244 -3.70172119 226.66914368 C-13.77648813 226.64348485 -22.39327268 225.31865104 -30.49504089 218.82794189 C-31.52564636 218.02936768 -31.52564636 218.02936768 -32.57707214 217.21466064 C-34.68254089 215.14044189 -34.68254089 215.14044189 -36.26435852 211.56443787 C-38.32450119 208.695724 -39.44034719 208.18841239 -42.95925522 207.4914341 C-47.46191142 207.14898377 -51.96710275 207.22840314 -56.47892761 207.2822876 C-58.22199001 207.27771271 -59.9650467 207.27011433 -61.70808411 207.25971985 C-66.4399324 207.24061948 -71.17063746 207.26534383 -75.90236807 207.29895806 C-80.8558697 207.3278522 -85.80932731 207.3202104 -90.76289368 207.31748962 C-99.08379543 207.31847979 -107.40425177 207.34692295 -115.72502136 207.39263916 C-125.33915905 207.44522377 -134.95274105 207.45931667 -144.56700695 207.45160609 C-153.81964669 207.44468437 -163.07209872 207.4605688 -172.32469559 207.48836327 C-176.2599483 207.50005543 -180.19511329 207.50461066 -184.13038254 207.50356483 C-188.76807148 207.50369092 -193.40525129 207.52407558 -198.04279709 207.5599575 C-199.7426947 207.57001971 -201.44264769 207.57336203 -203.1425705 207.56941223 C-205.46787087 207.56518977 -207.79171346 207.58567853 -210.11683655 207.61231995 C-211.41652311 207.6177245 -212.71620968 207.62312906 -214.05528069 207.6286974 C-219.79772557 208.43885835 -224.33457146 211.11528568 -228.05754089 215.64044189 Z " fill="#062A75" transform="translate(251.6825408935547,20.85955810546875)"/>
<path d="M0 0 C23.0872212 -0.21026706 46.17428448 -0.36896176 69.26226902 -0.46630955 C79.98254471 -0.51271201 90.70222538 -0.5759708 101.42211914 -0.67895508 C110.76592163 -0.76867666 120.10929323 -0.8267277 129.45351452 -0.84679645 C134.40122409 -0.85852761 139.347701 -0.88608226 144.29501534 -0.95157051 C148.95339827 -1.01273364 153.61004296 -1.03149067 158.26878929 -1.01796913 C159.97686848 -1.02044202 161.6850067 -1.03830572 163.39273834 -1.07284927 C176.33463896 -1.32175921 176.33463896 -1.32175921 180.50738335 1.99005318 C182.26010383 4.24895047 183.60691365 6.51165243 185 9 C187.75156173 11.35185149 187.75156173 11.35185149 190.5625 12.9375 C191.45066406 13.48277344 192.33882812 14.02804688 193.25390625 14.58984375 C198.61932547 17.34505903 203.15257612 18.24927722 209.17602539 18.25537109 C210.2140329 18.26080177 210.2140329 18.26080177 211.27301025 18.26634216 C212.76743826 18.27320384 214.26189116 18.27574769 215.7563343 18.27439499 C218.13390346 18.27342268 220.51102912 18.28645764 222.88853455 18.30337524 C229.64562497 18.34941316 236.40267008 18.3742095 243.15991211 18.38085938 C247.3037944 18.3859188 251.44721538 18.41039427 255.59094048 18.44618607 C257.15713142 18.45588645 258.72338664 18.45837027 260.28959846 18.45301437 C276.38483684 18.40058746 289.3384816 21.42113716 301.10940552 32.89318848 C303.54212268 35.31503771 305.92989678 37.77897439 308.3125 40.25 C309.77647379 41.76200855 311.2427384 43.27151352 312.71537781 44.77508545 C314.03907553 46.12731955 315.35439164 47.4877436 316.66918945 48.84863281 C319.93407155 51.86215968 321.79506352 52.97682814 326.25 53.0625 C335.4879949 50.44506811 342.62277066 40.39347869 349.02539062 33.58398438 C354.3386277 28.12277203 359.88028285 23.8730409 367 21 C368.32 21 369.64 21 371 21 C373.43632716 33.46221499 376.17466113 49.06993751 369.5012207 60.58648682 C364.98657533 66.90647655 359.58613842 72.32194613 353.9375 77.625 C353.13025482 78.3837442 352.32300964 79.1424884 351.49130249 79.92422485 C333.2571827 96.76748813 333.2571827 96.76748813 322.140625 96.3515625 C317.72857209 95.62695527 315.02165313 93.09374559 312.0625 89.92578125 C309.3883395 86.13232252 307.90943157 82.21002557 306.3125 77.875 C306.00505859 77.06417969 305.69761719 76.25335938 305.38085938 75.41796875 C304.20058903 72.29296412 303.05644738 69.16934214 302 66 C298.15314618 64.12589173 295.37475716 64.05179804 291.25 64.5 C287.50371525 64.62449889 286.27176479 64.21414131 283.2734375 61.8515625 C281.54510042 60.07224202 279.85963975 58.24994643 278.2265625 56.3828125 C275.20264966 53.14669525 273.33816752 52.10811845 268.88652039 51.7484436 C267.66157364 51.74718475 266.43662689 51.7459259 265.17456055 51.74462891 C264.49581375 51.74100845 263.81706696 51.737388 263.11775208 51.73365784 C261.64566578 51.72677505 260.17355402 51.72425631 258.70145226 51.72560501 C256.35709536 51.72657475 254.01319149 51.71356986 251.66889954 51.69662476 C245.00383142 51.65052729 238.33880604 51.62581317 231.67358398 51.61914062 C227.59035098 51.61406853 223.50758325 51.58952335 219.42450905 51.55381393 C217.88230015 51.54413437 216.34002619 51.54161787 214.79779625 51.54698563 C193.99228805 51.6159145 176.40082531 45.62608867 161 31 C152.92018182 22.62236801 146.30509928 12.52549639 144 1 C96.48 1 48.96 1 0 1 C0 0.67 0 0.34 0 0 Z " fill="#27A1CB" transform="translate(34,229)"/>
<path d="M0 0 C9.02805796 6.18954192 15.62726031 15.173906 18.1875 25.875 C19.37582479 35.82422205 19.41259058 46.05867069 14.1875 54.875 C13.74019531 55.64972656 13.29289062 56.42445313 12.83203125 57.22265625 C6.10472535 68.02602417 -2.45324876 74.52308837 -14.8125 77.875 C-24.71877877 78.91928448 -35.05205151 79.05089801 -43.8125 73.875 C-44.97458984 73.22144531 -44.97458984 73.22144531 -46.16015625 72.5546875 C-57.34991907 65.71753693 -63.74060536 55.50089293 -66.8125 42.875 C-68.07111591 29.469277 -65.42419798 18.3279519 -56.8125 7.875 C-41.07078032 -8.83358154 -19.78205504 -11.55774763 0 0 Z " fill="#FCFEFE" transform="translate(205.8125,300.125)"/>
<path d="M0 0 C3.5386994 1.65139305 4.81070153 2.71605229 7 6 C7.22705078 8.63549805 7.22705078 8.63549805 7.1953125 11.76171875 C7.19031738 12.76936279 7.18532227 13.77700684 7.18017578 14.81518555 C7.15286377 16.7319812 7.15286377 16.7319812 7.125 18.6875 C7.08375 22.750625 7.0425 26.81375 7 31 C15.25 31 23.5 31 32 31 C31.88168305 23.32645718 31.88168305 23.32645718 31.72973633 15.65356445 C31.72224365 14.691521 31.71475098 13.72947754 31.70703125 12.73828125 C31.6913208 11.75899658 31.67561035 10.77971191 31.65942383 9.77075195 C32.06422661 6.47748543 33.0417397 4.65884604 35 2 C38.68497796 -0.45665197 41.71971786 -0.70086491 46 0 C48.8100346 1.79363911 50.50940468 3.01880935 52 6 C52.10749223 8.25043462 52.14891951 10.50411284 52.16113281 12.75708008 C52.16858017 13.79885658 52.16858017 13.79885658 52.17617798 14.86167908 C52.19080841 17.16430648 52.19760358 19.46686496 52.203125 21.76953125 C52.20887642 23.36895246 52.21463416 24.96837364 52.22039795 26.5677948 C52.23091092 29.92451296 52.23675141 33.28120714 52.24023438 36.63793945 C52.24571499 40.93545349 52.2697323 45.23265003 52.29820633 49.53006458 C52.3168487 52.83551451 52.32203919 56.14088828 52.32357025 59.44638634 C52.3265945 61.03039978 52.33461538 62.61441196 52.34775543 64.19837379 C52.36484731 66.41740527 52.36292827 68.63566539 52.35644531 70.85473633 C52.36191376 72.74764153 52.36191376 72.74764153 52.36749268 74.67878723 C51.9011261 78.89357221 50.61988512 81.6800936 47.3125 84.375 C43.74293961 85.33974605 40.54061056 85.01783466 37 84 C34.06912793 81.74548302 33.17185712 80.51557135 32 77 C31.91708047 75.0079697 31.89261823 73.01326287 31.90234375 71.01953125 C31.90556641 69.85615234 31.90878906 68.69277344 31.91210938 67.49414062 C31.92467773 65.67172852 31.92467773 65.67172852 31.9375 63.8125 C31.94201172 62.58595703 31.94652344 61.35941406 31.95117188 60.09570312 C31.96296924 57.06378135 31.98090486 54.0318846 32 51 C23.75 51 15.5 51 7 51 C7.05800781 52.96324219 7.11601562 54.92648438 7.17578125 56.94921875 C7.22267949 59.52862208 7.26817957 62.10805109 7.3125 64.6875 C7.35439453 65.98107422 7.39628906 67.27464844 7.43945312 68.60742188 C7.45556641 69.85458984 7.47167969 71.10175781 7.48828125 72.38671875 C7.51446533 73.53358154 7.54064941 74.68044434 7.56762695 75.86206055 C6.82802613 79.95070113 5.14925694 81.3912761 2 84 C-1.13871188 85.56935594 -3.53855822 85.35201103 -7 85 C-9.875 82.5625 -9.875 82.5625 -12 80 C-12.33 79.67 -12.66 79.34 -13 79 C-13.11549903 76.75707953 -13.15972351 74.51047428 -13.17700195 72.26464844 C-13.18357315 71.56052322 -13.19014435 70.85639801 -13.19691467 70.13093567 C-13.21669556 67.79041447 -13.22832229 65.44995764 -13.23828125 63.109375 C-13.24235678 62.31115578 -13.2464323 61.51293655 -13.25063133 60.69052887 C-13.27151493 56.46377316 -13.2858053 52.23705011 -13.29516602 48.01025391 C-13.30622076 43.64423843 -13.34060283 39.27873401 -13.38033772 34.91289902 C-13.40649295 31.55683447 -13.41485697 28.20089169 -13.41844749 24.84473419 C-13.42331823 23.23558358 -13.43494618 21.62643858 -13.45348549 20.01738739 C-13.47784949 17.76215818 -13.47691742 15.50825038 -13.4699707 13.25292969 C-13.47583694 11.97021179 -13.48170319 10.6874939 -13.48774719 9.36590576 C-12.91692898 5.42673329 -11.77667359 3.79464709 -9 1 C-5.93570224 -0.53214888 -3.3834358 -0.22938548 0 0 Z " fill="#FEFDFE" transform="translate(320,96)"/>
<path d="M0 0 C3.49406769 1.66762322 4.82670681 2.74006022 7 6 C7.22705078 8.72729492 7.22705078 8.72729492 7.1953125 11.98046875 C7.18886719 13.14384766 7.18242188 14.30722656 7.17578125 15.50585938 C7.15902344 16.72080078 7.14226562 17.93574219 7.125 19.1875 C7.11597656 20.41404297 7.10695313 21.64058594 7.09765625 22.90429688 C7.07406104 25.93628085 7.03818967 28.96816473 7 32 C15.25 32 23.5 32 32 32 C31.84239508 24.37124054 31.84239508 24.37124054 31.63964844 16.74365234 C31.57483335 10.51826804 31.69717482 6.65881431 36 2 C39.53430656 -0.35620437 40.83571287 -0.48991613 45 0 C50.57894737 3.15789474 50.57894737 3.15789474 52 6 C52.11785437 8.27552651 52.16987653 10.55454741 52.19287109 12.83300781 C52.20513733 13.88700523 52.20513733 13.88700523 52.21765137 14.96229553 C52.2425051 17.29256335 52.25902276 19.62277017 52.2734375 21.953125 C52.27876118 22.749179 52.28408485 23.545233 52.28956985 24.36540985 C52.31630359 28.58034808 52.33567621 32.79525668 52.35009766 37.01025391 C52.36673053 41.35944552 52.41149534 45.70787714 52.4624691 50.05678177 C52.49616499 53.40430549 52.50767767 56.7516495 52.51332474 60.09932709 C52.52003268 61.70209296 52.53524307 63.30484719 52.55921555 64.90744781 C52.59091801 67.1553946 52.59089745 69.40130145 52.58349609 71.64941406 C52.59158295 72.92689514 52.5996698 74.20437622 52.60800171 75.52056885 C51.8043095 80.11988436 50.28608812 81.73649972 47 85 C43.89074668 86.03819246 41.16820922 85.7863128 38 85 C35.24430553 82.81840855 33.56411253 81.12822506 32 78 C31.91489795 76.0406396 31.89282344 74.07837206 31.90234375 72.1171875 C31.90556641 70.95058594 31.90878906 69.78398437 31.91210938 68.58203125 C31.92467773 66.74705078 31.92467773 66.74705078 31.9375 64.875 C31.94201172 63.64394531 31.94652344 62.41289062 31.95117188 61.14453125 C31.96298659 58.09633361 31.9809225 55.04816084 32 52 C23.75 52 15.5 52 7 52 C7.04640625 53.89105469 7.0928125 55.78210938 7.140625 57.73046875 C7.17814442 60.21613004 7.21454439 62.70180841 7.25 65.1875 C7.30027344 67.05631836 7.30027344 67.05631836 7.3515625 68.96289062 C7.36445312 70.16494141 7.37734375 71.36699219 7.390625 72.60546875 C7.41157227 73.71043701 7.43251953 74.81540527 7.45410156 75.95385742 C6.8967209 79.69280284 5.6060942 81.31666801 3 84 C-0.21694364 85.60847182 -3.52137222 85.61309149 -7 85 C-9.69105198 82.82425584 -11.45532928 81.08934144 -13 78 C-13.11768939 75.78572185 -13.16985212 73.56787001 -13.19287109 71.35058594 C-13.20104858 70.66742813 -13.20922607 69.98427032 -13.21765137 69.28041077 C-13.2425028 67.01507442 -13.25902228 64.74980082 -13.2734375 62.484375 C-13.27876118 61.71038612 -13.28408485 60.93639725 -13.28956985 60.13895416 C-13.31630278 56.04072561 -13.33567552 51.9425275 -13.35009766 47.84423828 C-13.36672908 43.61610491 -13.41149272 39.3887535 -13.4624691 35.16091537 C-13.49617034 31.90603773 -13.50767824 28.65134485 -13.51332474 25.3963089 C-13.52003137 23.83819872 -13.53523839 22.28010045 -13.55921555 20.72216034 C-13.59092956 18.53646219 -13.59089593 16.35286115 -13.58349609 14.16699219 C-13.59158295 12.92504089 -13.5996698 11.6830896 -13.60800171 10.40350342 C-12.79880901 5.87376269 -11.21264488 4.24495275 -8 1 C-5.17998673 -0.41000664 -3.12992745 -0.24548451 0 0 Z " fill="#FCFEFE" transform="translate(75,293)"/>
<path d="M0 0 C1.08474609 0.10634766 1.08474609 0.10634766 2.19140625 0.21484375 C6.04842528 1.67044919 8.49543666 4.24894979 10.39233398 7.90063477 C11.29318028 10.03747206 12.09758964 12.19030664 12.875 14.375 C13.13603516 15.07689453 13.39707031 15.77878906 13.66601562 16.50195312 C14.24650662 18.06586415 14.82132359 19.63188769 15.3918457 21.19946289 C18.45573965 29.58850895 21.58854357 37.9517615 24.87336731 46.25688171 C25.94989513 48.98294071 27.01166017 51.71463988 28.07202148 54.44702148 C28.61326099 55.83081079 29.16126792 57.21196984 29.71557617 58.59057617 C35.5418728 73.11638832 35.5418728 73.11638832 33.4375 81.0625 C31.2937352 83.72596536 29.85291539 84.7651198 26.50390625 85.46875 C22.33005489 85.78435313 20.81906487 85.36457219 17.4375 82.6875 C15.4375 80.0625 15.4375 80.0625 15.4375 78.0625 C4.5475 78.0625 -6.3425 78.0625 -17.5625 78.0625 C-18.2225 79.7125 -18.8825 81.3625 -19.5625 83.0625 C-22.49163124 85.42833677 -25.88871583 85.55421143 -29.58984375 85.4296875 C-31.5625 85.0625 -31.5625 85.0625 -34.5625 83.125 C-37.21443661 79.06422206 -37.13909219 75.7324859 -36.5625 71.0625 C-35.45455394 66.9560549 -33.94850181 63.03978306 -32.3984375 59.08203125 C-31.96874664 57.95157883 -31.53905579 56.8211264 -31.09634399 55.65641785 C-29.72393588 52.05712286 -28.33076516 48.46626521 -26.9375 44.875 C-26.02343611 42.4816172 -25.1106633 40.08774089 -24.19921875 37.69335938 C-22.05930599 32.08859718 -19.88426934 26.49866004 -17.68347168 20.9175415 C-16.7027259 18.41964619 -15.74209905 15.91515237 -14.78613281 13.40771484 C-14.28875694 12.15006332 -13.78991395 10.89299019 -13.2890625 9.63671875 C-12.89541504 8.62569092 -12.50176758 7.61466309 -12.09619141 6.57299805 C-9.3665117 2.10478786 -5.30797792 -0.69317064 0 0 Z " fill="#FCFEFE" transform="translate(328.5625,291.9375)"/>
<path d="M0 0 C4.99503071 0.4913145 6.31841769 1.88091769 9.8125 5.375 C11.13107548 8.01215096 10.93241704 9.9733264 10.92602539 12.92626953 C10.92594986 14.08732208 10.92587433 15.24837463 10.92579651 16.4446106 C10.92063522 17.70296722 10.91547394 18.96132385 10.91015625 20.2578125 C10.9087413 21.54235321 10.90732635 22.82689392 10.90586853 24.15036011 C10.90204911 27.56656842 10.89222373 30.98273426 10.88116455 34.39892578 C10.87093807 37.88443426 10.86636826 41.3699496 10.86132812 44.85546875 C10.85060096 51.69532995 10.83353142 58.53516294 10.8125 65.375 C11.82570313 65.32859375 12.83890625 65.2821875 13.8828125 65.234375 C15.23434532 65.19683242 16.58591028 65.16043494 17.9375 65.125 C18.60265625 65.09148437 19.2678125 65.05796875 19.953125 65.0234375 C25.08164595 64.92287827 27.8800566 66.14776681 31.8125 69.375 C32.94242055 71.63484109 33.11049956 73.17226487 33.25 75.6875 C33.31058594 76.44675781 33.37117188 77.20601563 33.43359375 77.98828125 C32.67669145 80.89688065 31.47072818 82.56773059 29.07495117 84.38696289 C24.28606939 86.47831981 18.95830301 86.06691494 13.81713867 85.97192383 C11.75106033 85.93751766 9.68924579 85.95130565 7.62304688 85.97070312 C-3.57635309 85.88807105 -3.57635309 85.88807105 -8.1875 81.375 C-9.6563902 78.4372196 -9.3473468 75.80614388 -9.38037109 72.52612305 C-9.38854858 71.82185181 -9.39672607 71.11758057 -9.40515137 70.39196777 C-9.43000187 68.05689343 -9.44652054 65.72187987 -9.4609375 63.38671875 C-9.46626118 62.5894166 -9.47158485 61.79211445 -9.47706985 60.97065163 C-9.5038002 56.75038235 -9.52317526 52.53014263 -9.53759766 48.30981445 C-9.55424385 43.95155777 -9.59902079 39.59405755 -9.6499691 35.23608685 C-9.68363216 31.88431433 -9.69517397 28.53272157 -9.70082474 25.18079567 C-9.7075401 23.57441236 -9.72276978 21.96804099 -9.74671555 20.36182213 C-9.77835212 18.11127546 -9.77840752 15.86277137 -9.77099609 13.61206055 C-9.77908295 12.33235886 -9.7871698 11.05265717 -9.79550171 9.73417664 C-9.03211464 5.51650427 -7.42348618 4.07826215 -4.1875 1.375 C-3.1875 0.375 -3.1875 0.375 0 0 Z " fill="#FCFEFE" transform="translate(246.1875,291.625)"/>
<path d="M0 0 C2.42316421 1.81737316 3.40097832 3.59507808 4.75 6.3125 C5.13095093 9.53759766 5.13095093 9.53759766 5.13818359 13.2265625 C5.14344055 13.90201111 5.14869751 14.57745972 5.15411377 15.27337646 C5.1672637 17.4949897 5.15859409 19.71588011 5.1484375 21.9375 C5.15045969 23.48779436 5.15337234 25.03808779 5.15713501 26.58837891 C5.16155156 29.83310019 5.15514907 33.07757325 5.14111328 36.32226562 C5.12402156 40.47514608 5.13386637 44.62744483 5.15183067 48.78030396 C5.16268674 51.98026895 5.15921386 55.18009672 5.1514473 58.38006592 C5.14945032 59.91103179 5.1518869 61.44201025 5.15888596 62.97296143 C5.16653076 65.11512107 5.1548553 67.25634714 5.13818359 69.3984375 C5.13579681 70.6157959 5.13341003 71.8331543 5.13095093 73.08740234 C4.71371885 76.61965312 3.85604937 78.4774076 1.75 81.3125 C-0.99227995 83.46185455 -2.79798392 84.24658099 -6.25 84.75 C-9.97413693 84.2068967 -11.57854076 82.90763183 -14.25 80.3125 C-15.71965208 77.37319585 -15.40171072 74.74523454 -15.42700195 71.46362305 C-15.43357315 70.75935181 -15.44014435 70.05508057 -15.44691467 69.32946777 C-15.46665551 66.99438372 -15.47831214 64.65936401 -15.48828125 62.32421875 C-15.49235678 61.5269166 -15.4964323 60.72961445 -15.50063133 59.90815163 C-15.52149576 55.6878752 -15.53579565 51.46763132 -15.54516602 47.24731445 C-15.55622934 42.88917482 -15.59062683 38.53154594 -15.63033772 34.17358685 C-15.65648983 30.8218135 -15.66485659 27.47016207 -15.66844749 24.11829567 C-15.67331739 22.51193608 -15.68494294 20.90558208 -15.70348549 19.29932213 C-15.72784761 17.04899071 -15.72691803 14.79998361 -15.7199707 12.54956055 C-15.72583694 11.26985886 -15.73170319 9.99015717 -15.73774719 8.67167664 C-15.16645004 4.73708088 -14.02294523 3.10470699 -11.25 0.3125 C-7.69870378 -1.46314811 -3.74219953 -1.14344986 0 0 Z " fill="#FEFCFD" transform="translate(407.25,96.6875)"/>
<path d="M0 0 C4.48440732 4.03018558 8.63164618 8.60827459 9.30078125 14.76953125 C9.33747336 24.29724864 7.87870567 29.96496011 1 37 C-4.59571064 41.52419158 -9.52388085 41.44141008 -16.59765625 41.43359375 C-22.28103927 40.70930498 -26.97501967 38.02498033 -31 34 C-35.50777188 27.36218207 -37.42296894 20.97795701 -36 13 C-33.24394845 4.95940923 -27.73722622 0.60547442 -20.5 -3.375 C-13.04306266 -5.23923433 -6.57360216 -3.84796224 0 0 Z " fill="#68CCD1" transform="translate(195,317)"/>
<path d="M0 0 C5.47267973 2.81165197 10.36166849 7.39354554 13 13 C13.54645893 16.96182724 13.37004266 19.16740402 11.75 22.8125 C9.8417835 25.19777062 8.90651969 26.11189676 6 27 C1.97284741 27.4474614 -0.35680467 27.32159766 -4 25.5 C-13.32154116 17.73204904 -13.32154116 17.73204904 -14.58203125 12.65625 C-14.76439683 8.60368163 -14.30209729 6.48335567 -12.125 3 C-8.47127514 -0.43879987 -4.86845014 -0.88983974 0 0 Z " fill="#FD5F4F" transform="translate(458,374)"/>
<path d="M0 0 C3.49890004 2.11391877 4.70578686 3.11736059 6 7 C6.56865431 10.62517121 6.68304264 12.99420095 4.578125 16.09375 C2.78861055 18.14327937 0.91922132 20.0723978 -1 22 C-1.61875 22.804375 -2.2375 23.60875 -2.875 24.4375 C-6.27956135 26.94085393 -9.83205151 27.32449426 -14 27 C-19.39759036 24.20481928 -19.39759036 24.20481928 -21 21 C-21.75350659 16.87283891 -21.87410945 13.40596196 -19.61328125 9.76953125 C-17.83740885 7.71629917 -15.98447839 5.85078722 -14 4 C-12.824375 2.7625 -12.824375 2.7625 -11.625 1.5 C-7.77546496 -0.69973431 -4.32878803 -0.79204274 0 0 Z " fill="#FD5F50" transform="translate(465,271)"/>
<path d="M0 0 C3.12316838 2.4725083 5.71033372 4.72194651 6.23046875 8.8125 C6.12006194 14.43321008 4.31159143 17.38702692 0.5 21.5 C-3.50818074 25.18706755 -6.50672331 27.30665941 -12.0234375 27.31640625 C-14.9302836 26.85108108 -16.76459634 25.89670614 -19 24 C-21.35087362 20.47368957 -21.59657033 18.55576544 -21.515625 14.4140625 C-20.53933994 9.84327337 -17.31749154 7.09399738 -14 4 C-12.824375 2.7625 -12.824375 2.7625 -11.625 1.5 C-7.78198965 -0.69600592 -4.31658596 -0.93056835 0 0 Z " fill="#FD5F50" transform="translate(175,159)"/>
<path d="M0 0 C4.2893404 1.1928 7.0797018 4.49450249 10.12109375 7.58984375 C11.32765625 8.54890625 11.32765625 8.54890625 12.55859375 9.52734375 C14.91864585 12.64261252 15.32125662 15.72516072 15.12109375 19.58984375 C13.57233353 23.25796006 11.65894218 25.72264597 8.12109375 27.58984375 C4.07463126 28.11438518 1.78339165 27.9209927 -1.87890625 26.08984375 C-6.56579304 22.18410476 -10.97696077 18.2956802 -12.94140625 12.40234375 C-12.84130037 7.89757914 -11.79956085 5.59173258 -8.75390625 2.27734375 C-5.7553132 0.5173 -3.49872729 -0.16534628 0 0 Z " fill="#FD5F4F" transform="translate(62.87890625,158.41015625)"/>
<path d="M0 0 C2.72952099 1.21312044 4.41227788 2.15129638 6.1171875 4.61328125 C7.37951748 8.02604063 7.32886082 11.34793608 7.3125 14.9375 C7.32861328 15.64068359 7.34472656 16.34386719 7.36132812 17.06835938 C7.36555049 21.57361796 6.7458238 24.41086422 4 28 C0.57080428 30.57189679 -2.83939486 30.502142 -7 30 C-10.47565519 27.98287868 -12.70453512 25.88639464 -14 22 C-14.14619515 19.71148355 -14.22091336 17.41799684 -14.25 15.125 C-14.28867188 13.30355469 -14.28867188 13.30355469 -14.328125 11.4453125 C-13.89801884 6.9291978 -12.35680064 4.4052578 -9.25 1.1875 C-5.99828436 -0.52868326 -3.62539838 -0.38162088 0 0 Z " fill="#FD5F4F" transform="translate(119,136)"/>
<path d="M0 0 C3.10164344 2.38587957 4.22072096 4.15308765 5.4375 7.875 C5.4375 12.0835698 4.9610991 14.17345902 2.4375 17.5546875 C-1.63571254 20.70506283 -4.55754387 20.58781118 -9.5625 20.4375 C-10.3565625 20.44845703 -11.150625 20.45941406 -11.96875 20.47070312 C-15.9995831 20.42031771 -18.08979324 20.17598126 -21.5625 17.96484375 C-24.62092298 14.76903068 -24.96254512 12.41662825 -24.9140625 7.98046875 C-24.27910257 4.1777643 -22.35182244 2.47414137 -19.5625 -0.125 C-13.52999093 -2.27946753 -6.00197046 -1.89535909 0 0 Z " fill="#FD5F50" transform="translate(488.5625,326.125)"/>
<path d="M0 0 C2.81083807 2.81083807 3.77143886 6.21585145 5.125 9.875 C5.40214844 10.59558594 5.67929687 11.31617188 5.96484375 12.05859375 C6.22652344 12.75855469 6.48820312 13.45851563 6.7578125 14.1796875 C6.9964502 14.81632324 7.23508789 15.45295898 7.48095703 16.10888672 C8 18 8 18 8 22 C2.72 22 -2.56 22 -8 22 C-5.87460394 14.39331935 -3.14771471 7.24098798 0 0 Z " fill="#6FCED3" transform="translate(327,328)"/>
</svg>
